<svg viewBox="0 0 1799 413" xmlns="http://www.w3.org/2000/svg">
<path d="M1682.28 412.514C1654.71 412.514 1632.48 407 1615.57 395.973C1598.66 384.945 1586.34 369.507 1578.63 349.658C1570.91 329.441 1567.05 306.099 1567.05 279.634H1652.51C1652.51 302.056 1654.71 317.494 1659.13 325.949C1663.9 334.035 1670.52 338.079 1678.97 338.079C1687.06 338.079 1692.58 335.138 1695.52 329.257C1698.46 323.008 1699.93 314.738 1699.93 304.445C1699.93 294.153 1698.09 285.515 1694.41 278.531C1691.1 271.547 1685.59 264.931 1677.87 258.682C1670.15 252.433 1659.86 245.449 1647 237.73C1634.13 230.01 1621.63 220.821 1609.5 210.161C1597.74 199.501 1588 186.268 1580.28 170.463C1572.93 154.657 1569.25 134.991 1569.25 111.466C1569.25 73.2377 1579.73 45.1179 1600.68 27.1065C1621.63 9.09506 1648.47 0.0893555 1681.18 0.0893555C1716.84 0.0893555 1744.77 9.64642 1764.99 28.7606C1785.21 47.8747 1795.31 80.0379 1795.31 125.25H1708.2C1708.56 106.136 1707.09 92.7194 1703.79 85.0002C1700.48 76.9135 1694.6 72.8701 1686.14 72.8701C1679.16 72.8701 1674.01 75.8108 1670.7 81.692C1667.76 87.2057 1666.29 94.9249 1666.29 104.85C1666.29 114.774 1667.76 123.045 1670.7 129.661C1673.64 135.91 1678.61 141.791 1685.59 147.305C1692.58 152.819 1701.76 159.068 1713.16 166.052C1728.6 175.241 1742.75 185.717 1755.62 197.48C1768.85 208.875 1779.32 222.475 1787.04 238.281C1794.76 254.087 1798.62 273.201 1798.62 295.623C1798.62 335.322 1788.33 364.728 1767.75 383.842C1747.16 402.957 1718.67 412.514 1682.28 412.514Z" fill="black"/>
<path d="M1316.86 407V5.05176H1427.69C1453.05 5.05176 1475.29 8.54376 1494.4 15.5278C1513.52 22.5118 1528.41 34.4581 1539.07 51.3668C1549.72 68.2754 1555.05 91.8005 1555.05 121.942C1555.05 148.04 1550.83 169.176 1542.37 185.35C1533.92 201.155 1522.71 211.632 1508.74 216.778V220.637C1524.18 223.21 1534.65 232.4 1540.17 248.206C1546.05 264.012 1548.99 281.839 1548.99 301.689V366.199C1548.99 374.653 1549.36 382.188 1550.09 388.805C1550.83 395.054 1551.75 401.119 1552.85 407H1453.05C1451.58 401.486 1450.48 395.238 1449.74 388.254C1449.01 381.27 1448.64 375.94 1448.64 372.264V312.716C1448.64 306.099 1448.27 299.667 1447.54 293.418C1447.17 286.802 1445.52 281.288 1442.58 276.877C1440 272.466 1435.59 270.26 1429.34 270.26H1415.56V407H1316.86ZM1415.56 193.069H1422.73C1436.33 193.069 1445.15 188.658 1449.19 179.836C1453.6 171.014 1455.81 158.516 1455.81 142.343C1455.81 123.596 1453.05 110.547 1447.54 103.196C1442.39 95.4764 1433.94 91.6168 1422.17 91.6168H1415.56V193.069Z" fill="black"/>
<path d="M1037.19 407L1098.94 5.05176H1237.34L1300.19 407H1203.7L1195.43 340.836H1141.4L1133.68 407H1037.19ZM1149.12 263.644H1187.16L1178.34 178.733L1170.07 96.5791H1166.21L1159.04 179.285L1149.12 263.644Z" fill="black"/>
<path d="M838.184 407V5.05176H1021.24V91.6168H935.776V161.641H1013.52V242.141H935.776V320.435H1021.24V407H838.184Z" fill="black"/>
<path d="M639.511 407V256.476L559.562 5.05176H667.631L689.134 156.127H692.443L716.151 5.05176H823.668L743.72 256.476V407H639.511Z" fill="black"/>
<path d="M334.323 412.514C294.625 412.514 264.851 400.935 245.001 377.777C225.152 354.62 214.309 324.111 212.471 286.25H311.717C311.717 302.056 313.739 313.267 317.782 319.884C321.826 326.5 327.339 329.808 334.323 329.808C343.88 329.808 350.313 325.03 353.621 315.473C357.297 305.916 359.135 292.131 359.135 274.12C359.135 253.903 357.113 239.568 353.07 231.113C349.027 222.659 343.145 218.432 335.426 218.432C328.442 218.432 323.112 221.924 319.436 228.908C315.761 235.524 313.739 243.978 313.371 254.271H217.433L227.358 9.46265H437.429V93.2708H318.334L313.371 155.024L317.231 156.678C321.274 149.327 327.339 144.181 335.426 141.24C343.513 138.299 351.967 136.829 360.789 136.829C393.871 136.829 418.315 149.143 434.121 173.771C450.295 198.399 458.381 230.929 458.381 271.363C458.381 319.148 446.987 354.62 424.197 377.777C401.407 400.935 371.449 412.514 334.323 412.514Z" fill="black"/>
<path d="M75.8736 407V161.089H0.335938V81.1407H17.9798C35.256 81.1407 49.9592 74.5242 62.0893 61.2914C74.587 48.0585 81.7548 30.7823 83.5927 9.46265H175.12V407H75.8736Z" fill="black"/>
</svg>
