<svg viewBox="0 0 1796 413" fill="none" xmlns="http://www.w3.org/2000/svg">
<path d="M1679.05 412.514C1651.48 412.514 1629.25 407 1612.34 395.973C1595.43 384.945 1583.11 369.507 1575.4 349.658C1567.68 329.441 1563.82 306.099 1563.82 279.634H1649.28C1649.28 302.056 1651.48 317.494 1655.9 325.949C1660.67 334.035 1667.29 338.079 1675.74 338.079C1683.83 338.079 1689.34 335.138 1692.29 329.257C1695.23 323.008 1696.7 314.738 1696.7 304.445C1696.7 294.153 1694.86 285.515 1691.18 278.531C1687.87 271.547 1682.36 264.931 1674.64 258.682C1666.92 252.433 1656.63 245.449 1643.76 237.73C1630.9 230.01 1618.4 220.821 1606.27 210.161C1594.51 199.501 1584.77 186.268 1577.05 170.463C1569.7 154.657 1566.02 134.991 1566.02 111.466C1566.02 73.2377 1576.5 45.1179 1597.45 27.1065C1618.4 9.09506 1645.24 0.0893555 1677.95 0.0893555C1713.61 0.0893555 1741.54 9.64642 1761.76 28.7606C1781.97 47.8747 1792.08 80.0379 1792.08 125.25H1704.97C1705.33 106.136 1703.86 92.7194 1700.56 85.0002C1697.25 76.9135 1691.37 72.8701 1682.91 72.8701C1675.93 72.8701 1670.78 75.8108 1667.47 81.692C1664.53 87.2057 1663.06 94.9249 1663.06 104.85C1663.06 114.774 1664.53 123.045 1667.47 129.661C1670.41 135.91 1675.38 141.791 1682.36 147.305C1689.34 152.819 1698.53 159.068 1709.93 166.052C1725.37 175.241 1739.52 185.717 1752.38 197.48C1765.62 208.875 1776.09 222.475 1783.81 238.281C1791.53 254.087 1795.39 273.201 1795.39 295.623C1795.39 335.322 1785.1 364.728 1764.51 383.842C1743.93 402.957 1715.44 412.514 1679.05 412.514Z" fill="black"/>
<path d="M1313.63 407V5.05176H1424.46C1449.82 5.05176 1472.06 8.54376 1491.17 15.5278C1510.29 22.5118 1525.17 34.4581 1535.83 51.3668C1546.49 68.2754 1551.82 91.8005 1551.82 121.942C1551.82 148.04 1547.6 169.176 1539.14 185.35C1530.69 201.155 1519.48 211.632 1505.51 216.778V220.637C1520.95 223.21 1531.42 232.4 1536.94 248.206C1542.82 264.012 1545.76 281.839 1545.76 301.689V366.199C1545.76 374.653 1546.13 382.188 1546.86 388.805C1547.6 395.054 1548.52 401.119 1549.62 407H1449.82C1448.35 401.486 1447.25 395.238 1446.51 388.254C1445.78 381.27 1445.41 375.94 1445.41 372.264V312.716C1445.41 306.099 1445.04 299.667 1444.31 293.418C1443.94 286.802 1442.29 281.288 1439.35 276.877C1436.77 272.466 1432.36 270.26 1426.11 270.26H1412.33V407H1313.63ZM1412.33 193.069H1419.5C1433.1 193.069 1441.92 188.658 1445.96 179.836C1450.37 171.014 1452.58 158.516 1452.58 142.343C1452.58 123.596 1449.82 110.547 1444.31 103.196C1439.16 95.4764 1430.71 91.6168 1418.94 91.6168H1412.33V193.069Z" fill="black"/>
<path d="M1033.96 407L1095.71 5.05176H1234.11L1296.96 407H1200.47L1192.2 340.836H1138.17L1130.45 407H1033.96ZM1145.89 263.644H1183.93L1175.11 178.733L1166.84 96.5791H1162.98L1155.81 179.285L1145.89 263.644Z" fill="black"/>
<path d="M834.953 407V5.05176H1018.01V91.6168H932.546V161.641H1010.29V242.141H932.546V320.435H1018.01V407H834.953Z" fill="black"/>
<path d="M636.281 407V256.476L556.332 5.05176H664.4L685.904 156.127H689.212L712.921 5.05176H820.438L740.489 256.476V407H636.281Z" fill="black"/>
<path d="M333.221 412.514C294.625 412.514 264.851 402.222 243.899 381.637C222.947 360.685 212.471 333.117 212.471 298.932C212.471 276.142 216.514 256.66 224.601 240.487C233.055 223.945 244.083 213.102 257.683 207.956V203.545C246.288 197.296 236.731 186.085 229.012 169.911C221.66 153.37 217.984 134.44 217.984 113.12C217.984 80.4056 227.909 54.3074 247.758 34.8257C267.975 14.9764 296.463 5.05176 333.221 5.05176C370.346 5.05176 398.834 14.9764 418.683 34.8257C438.532 54.3074 448.457 80.4056 448.457 113.12C448.457 134.44 444.781 153.37 437.429 169.911C430.078 186.085 420.521 197.296 408.758 203.545V207.956C422.359 213.102 433.202 223.945 441.289 240.487C449.743 256.66 453.971 276.142 453.971 298.932C453.971 333.117 443.495 360.685 422.542 381.637C401.59 402.222 371.816 412.514 333.221 412.514ZM333.221 166.603C339.469 166.603 344.248 163.846 347.556 158.332C351.232 152.819 353.07 141.24 353.07 123.596C353.07 112.936 351.783 103.747 349.21 96.0277C346.637 87.941 341.307 83.8976 333.221 83.8976C325.134 83.8976 319.804 87.941 317.231 96.0277C314.658 103.747 313.371 112.936 313.371 123.596C313.371 141.24 315.209 152.819 318.885 158.332C322.561 163.846 327.339 166.603 333.221 166.603ZM333.221 333.668C339.469 333.668 344.616 330.36 348.659 323.743C352.702 317.127 354.724 306.099 354.724 290.661C354.724 276.693 353.254 266.033 350.313 258.682C347.372 250.963 341.675 247.103 333.221 247.103C325.134 247.103 319.436 250.963 316.128 258.682C313.188 266.033 311.717 276.693 311.717 290.661C311.717 306.099 313.739 317.127 317.782 323.743C321.826 330.36 326.972 333.668 333.221 333.668Z" fill="black"/>
<path d="M75.8736 407V161.089H0.335938V81.1407H17.9798C35.256 81.1407 49.9592 74.5242 62.0893 61.2914C74.587 48.0585 81.7548 30.7823 83.5927 9.46265H175.12V407H75.8736Z" fill="black"/>
</svg>
