<svg  viewBox="0 0 38 25" fill="none" xmlns="http://www.w3.org/2000/svg">
<g clip-path="url(#clip0_33_430)">
<path d="M11.0503 0.000190732C12.0781 0.000190732 13.1059 0.0982292 14.0848 0.294308C14.9168 0.490386 15.6999 0.833523 16.434 1.32372C17.0703 1.81391 17.6087 2.45117 17.9513 3.18647C18.3428 4.11784 18.5386 5.09823 18.4897 6.07862C18.5386 7.15705 18.245 8.23548 17.7066 9.16686C17.1193 10.0492 16.2872 10.7355 15.3573 11.1767C16.6788 11.5198 17.8045 12.3531 18.5386 13.4316C19.2728 14.608 19.6154 15.9806 19.6154 17.3531C19.6154 18.4806 19.4196 19.559 18.9302 20.5394C18.4897 21.4218 17.8534 22.1571 17.1193 22.7943C16.3362 23.3825 15.4062 23.8237 14.4763 24.0688C13.4974 24.3629 12.4696 24.461 11.4418 24.461H0.0869141V-0.0488281H11.0503V0.000190732ZM10.3651 9.90215C11.1481 9.95117 11.9802 9.70607 12.6165 9.21588C13.2527 8.67666 13.5953 7.84333 13.4974 6.96097C13.4974 6.47078 13.3996 5.98058 13.2038 5.53941C13.008 5.19627 12.7633 4.90215 12.4207 4.70607C12.0781 4.50999 11.6865 4.31391 11.295 4.26489C10.8545 4.16686 10.414 4.16686 9.9735 4.16686H5.17704V9.90215H10.3651ZM10.6587 20.3923C11.1481 20.3923 11.6376 20.3433 12.0781 20.2453C12.5186 20.1472 12.9101 19.9512 13.3017 19.7061C13.6443 19.461 13.9379 19.1178 14.1337 18.7257C14.3784 18.2355 14.4763 17.6963 14.4274 17.1571C14.5253 16.1276 14.1337 15.1472 13.3995 14.461C12.6165 13.8727 11.6865 13.6276 10.7077 13.6767H5.17704V20.4414H10.6587V20.3923Z" fill="white"/>
<path d="M26.859 20.2943C27.691 21.0295 28.7678 21.4217 29.8445 21.3727C30.7255 21.3727 31.5575 21.1276 32.2427 20.6374C32.8301 20.2452 33.2216 19.706 33.4663 19.0688H37.5286C37.0882 20.8825 36.0114 22.5001 34.5431 23.6276C33.1237 24.608 31.4107 25.0492 29.6487 25.0001C28.4252 25.0001 27.2016 24.8041 26.0269 24.3139C24.9991 23.8727 24.0692 23.2354 23.335 22.4021C22.6009 21.5197 22.0136 20.5394 21.622 19.4609C21.1815 18.2354 20.9857 16.9609 21.0347 15.6864C21.0347 14.4119 21.2305 13.1864 21.6709 11.9609C22.8456 8.52955 26.0759 6.22563 29.6977 6.27465C31.0192 6.22563 32.2917 6.56877 33.4663 7.157C34.4941 7.74524 35.4241 8.52955 36.1093 9.50995C36.7945 10.5394 37.3329 11.6668 37.5776 12.8923C37.8713 14.1668 37.9691 15.5394 37.9202 16.8629H25.7822C25.6354 18.0884 26.0269 19.3139 26.859 20.2943ZM32.1449 10.9315C31.4597 10.2452 30.5297 9.9021 29.5509 9.95112C28.9146 9.95112 28.2783 10.0492 27.7399 10.3433C27.2995 10.5884 26.9079 10.9315 26.5653 11.3237C26.2716 11.7158 26.0759 12.108 25.929 12.5982C25.8311 12.9903 25.7333 13.3825 25.7333 13.7747H33.2706C33.1727 12.7452 32.7811 11.7648 32.1449 10.9315Z" fill="white"/>
<path d="M34.152 1.61768H24.7549V4.01963H34.152V1.61768Z" fill="white"/>
</g>
<defs>
<clipPath id="clip0_33_430">
<rect width="37.8333" height="25" fill="white" transform="translate(0.0869141)"/>
</clipPath>
</defs>
</svg>
