<svg viewBox="0 0 26 25" fill="none" xmlns="http://www.w3.org/2000/svg">
<path d="M18.1877 0H6.98586C3.18178 0 0.0869141 3.09502 0.0869141 6.8991V18.1009C0.0869141 21.9051 3.18178 25 6.98586 25H18.1877C21.992 25 25.0869 21.905 25.0869 18.1009V6.8991C25.0871 3.09502 21.992 0 18.1877 0ZM22.8689 18.1009C22.8689 20.6821 20.769 22.7819 18.1878 22.7819H6.98586C4.40486 22.782 2.30504 20.6821 2.30504 18.1009V6.8991C2.30504 4.31809 4.40486 2.21812 6.98586 2.21812H18.1877C20.7688 2.21812 22.8688 4.31809 22.8688 6.8991V18.1009H22.8689Z" fill="white"/>
<path d="M12.5864 6.05859C9.0343 6.05859 6.14453 8.94836 6.14453 12.5005C6.14453 16.0524 9.0343 18.942 12.5864 18.942C16.1385 18.942 19.0283 16.0524 19.0283 12.5005C19.0283 8.94836 16.1385 6.05859 12.5864 6.05859ZM12.5864 16.7238C10.2575 16.7238 8.36265 14.8292 8.36265 12.5003C8.36265 10.1713 10.2574 8.27657 12.5864 8.27657C14.9154 8.27657 16.8101 10.1713 16.8101 12.5003C16.8101 14.8292 14.9153 16.7238 12.5864 16.7238Z" fill="white"/>
<path d="M19.2985 4.17822C18.8711 4.17822 18.4513 4.35124 18.1495 4.65438C17.8462 4.95604 17.6719 5.37601 17.6719 5.80484C17.6719 6.23235 17.8464 6.65217 18.1495 6.95531C18.4512 7.25697 18.8711 7.43147 19.2985 7.43147C19.7273 7.43147 20.1458 7.25697 20.449 6.95531C20.7521 6.65217 20.9251 6.2322 20.9251 5.80484C20.9251 5.37601 20.7521 4.95604 20.449 4.65438C20.1473 4.35124 19.7273 4.17822 19.2985 4.17822Z" fill="white"/>
</svg>
