<svg viewBox="0 0 27 25" fill="none" xmlns="http://www.w3.org/2000/svg">
<path d="M5.4747 2.77901C5.47434 3.51568 5.18559 4.22204 4.67198 4.74268C4.15837 5.26333 3.46197 5.55562 2.73598 5.55525C2.00999 5.55488 1.31388 5.26188 0.800784 4.74072C0.287688 4.21955 -0.000362653 3.51291 3.42664e-07 2.77624C0.000363338 2.03956 0.28911 1.33321 0.80272 0.812565C1.31633 0.29192 2.01273 -0.000367988 2.73872 3.47705e-07C3.46471 0.000368683 4.16082 0.293363 4.67392 0.814529C5.18702 1.3357 5.47507 2.04234 5.4747 2.77901ZM5.55682 7.61208H0.0821208V25H5.55682V7.61208ZM14.2069 7.61208H8.75952V25H14.1521V15.8755C14.1521 10.7925 20.6807 10.3203 20.6807 15.8755V25H26.087V13.9867C26.087 5.41775 16.4241 5.73718 14.1521 9.94528L14.2069 7.61208Z" fill="white"/>
</svg>
