<svg viewBox="0 0 88 50" fill="none" xmlns="http://www.w3.org/2000/svg">
<path d="M42.1263 19.9769H18.7837L26.7095 9.98254H50.084L58.0169 2.44173e-07H58.0617H23.543C23.0084 -0.000198219 22.4806 0.120588 21.9992 0.353324C21.5178 0.586061 21.0953 0.924724 20.7631 1.34398L0.391375 27.0295C0.180256 27.2957 0.0484154 27.616 0.0109963 27.9538C-0.0264227 28.2915 0.0320967 28.633 0.179834 28.939C0.327571 29.2449 0.558534 29.503 0.846197 29.6835C1.13386 29.864 1.46656 29.9596 1.80608 29.9594H34.257L42.1263 19.9769Z" fill="black"/>
<path d="M67.0471 38.6347L87.42 12.9479C87.6306 12.6817 87.762 12.3614 87.7992 12.0238C87.8364 11.6862 87.7778 11.345 87.6301 11.0392C87.4825 10.7334 87.2517 10.4754 86.9644 10.2948C86.677 10.1142 86.3446 10.0183 86.0053 10.0181H53.5544L45.6839 20.0018H69.0265L61.1006 29.9949H37.7227L53.5897 50.0001H66.3892L58.441 39.9787H64.2684C64.8027 39.9784 65.3301 39.8574 65.8113 39.6247C66.2924 39.392 66.7148 39.0536 67.0471 38.6347Z" fill="black"/>
</svg>
