<svg width="280" height="30" viewBox="0 0 280 30" fill="none" xmlns="http://www.w3.org/2000/svg">
<g clip-path="url(#clip0_33_267)">
<path d="M19.3577 25.9162L19.2796 25.9948C18.4991 26.8586 16.3135 29.1361 11.0838 29.0576C7.25914 29.0576 4.76137 28.1937 2.9661 26.2304L2.34166 27.9581L2.2636 28.2723H1.95138H0.702497H0L0.234166 27.5654L1.56111 24.1885C0.780553 22.5393 0.780553 20.8115 0.780553 17.7487L0.858608 1.57068V1.09948H1.32694H2.2636H2.73193V1.57068V17.7487V18.534C2.73193 19.3979 2.73193 20.2618 2.80999 21.0471L7.18108 10.2094H6.71275V8.40314H7.96164L10.8497 1.17801L11.318 0L11.7863 1.17801L19.2796 20.2618C19.2796 19.712 19.2796 19.0838 19.2796 18.534V17.7487V1.57068V1.09948H19.748H20.7627H21.231V1.57068V17.7487C21.231 17.9843 21.231 18.2199 21.231 18.4555C21.3091 19.8691 21.3091 21.911 20.6066 23.7958L22.0896 27.5654L22.3238 28.2723H21.6213H20.6066H20.2944L20.1383 27.9581L19.3577 25.9162ZM13.2694 10.2094H9.28858L3.90276 23.9529C4.91748 25.3665 6.94692 26.8586 11.0838 26.9372C13.8938 26.9372 17.0941 25.9162 18.4991 23.5602L13.2694 10.2094ZM9.99107 8.32461H12.4888L11.24 5.10471L9.99107 8.32461Z" fill="black"/>
<path d="M19.3577 25.9162L19.2796 25.9948C18.4991 26.8586 16.3135 29.1361 11.0838 29.0576C7.25914 29.0576 4.76137 28.1937 2.9661 26.2304L2.34166 27.9581L2.2636 28.2723H1.95138H0.702497H0L0.234166 27.5654L1.56111 24.1885C0.780553 22.5393 0.780553 20.8115 0.780553 17.7487L0.858608 1.57068V1.09948H1.32694H2.2636H2.73193V1.57068V17.7487V18.534C2.73193 19.3979 2.73193 20.2618 2.80999 21.0471L7.18108 10.2094H6.71275V8.40314H7.96164L10.8497 1.17801L11.318 0L11.7863 1.17801L19.2796 20.2618C19.2796 19.712 19.2796 19.0838 19.2796 18.534V17.7487V1.57068V1.09948H19.748H20.7627H21.231V1.57068V17.7487C21.231 17.9843 21.231 18.2199 21.231 18.4555C21.3091 19.8691 21.3091 21.911 20.6066 23.7958L22.0896 27.5654L22.3238 28.2723H21.6213H20.6066H20.2944L20.1383 27.9581L19.3577 25.9162ZM13.2694 10.2094H9.28858L3.90276 23.9529C4.91748 25.3665 6.94692 26.8586 11.0838 26.9372C13.8938 26.9372 17.0941 25.9162 18.4991 23.5602L13.2694 10.2094ZM9.99107 8.32461H12.4888L11.24 5.10471L9.99107 8.32461Z" fill="black"/>
<path d="M35.7496 13.4297L35.8277 13.5082C35.8277 13.9794 35.9058 14.215 36.0619 14.7648C36.296 15.4716 37.4669 18.4559 39.5744 23.7962C39.8866 24.5815 40.1207 24.7386 41.4477 25.2098L41.3696 25.7595C40.511 25.7595 39.6524 25.7595 38.7938 25.7595C38.1694 25.7595 37.4669 25.7595 36.7644 25.7595L36.9205 25.2883L37.5449 24.7386C37.3888 24.3459 36.9205 23.0894 36.3741 21.6758C35.7496 21.6758 34.891 21.7543 32.4713 21.7543C31.9249 23.2464 31.6908 23.8747 31.4566 24.5815L32.9397 25.2883L32.7835 25.7595C32.1591 25.7595 31.4566 25.7595 30.7541 25.7595C30.1297 25.7595 29.5052 25.7595 28.8027 25.7595L28.9588 25.2883L30.2077 24.5815C30.6761 23.6391 32.5494 19.1627 34.0324 15.393C34.1105 15.236 34.1105 15.0789 34.0324 14.9218L33.8763 14.3721L35.7496 13.4297ZM34.5008 16.2569C33.5641 18.77 33.2519 19.5553 32.8616 20.6548C33.408 20.6548 35.4374 20.7334 36.0619 20.7334C35.4374 18.77 34.891 17.3564 34.5008 16.2569Z" fill="black"/>
<path d="M43.2429 19.0839L42.3062 18.6912L42.4623 18.2985C42.7746 18.0629 44.9601 17.5132 45.4284 17.5132L45.3504 18.8483C46.4431 18.0629 47.2237 17.5132 48.1604 17.5132C49.1751 17.5132 49.9556 18.1415 50.1898 18.9268C51.2826 18.0629 52.2192 17.5132 53.0778 17.5132C54.7951 17.5132 55.4976 18.9268 55.4976 20.2619V24.5027C55.4976 24.6598 55.6537 24.7383 55.8878 24.8954L56.7464 25.2881L56.5903 25.7593C55.8878 25.7593 55.1073 25.7593 54.4048 25.7593C53.7023 25.7593 53.0778 25.7593 52.3753 25.7593L52.4534 25.2881L53.234 24.6598C53.234 24.11 53.312 22.8535 53.312 20.8116C53.312 19.5551 52.6876 18.9268 51.907 18.9268C51.2826 18.9268 50.8142 19.1624 50.2679 19.6336C50.3459 19.9477 50.424 20.4189 50.424 20.8901V24.6598L51.3606 25.2095L51.2045 25.6807C50.5801 25.6807 49.9556 25.6807 49.2531 25.6807C48.5506 25.6807 47.8481 25.6807 47.1456 25.6807L47.2237 25.2095L48.0823 24.5812C48.0823 24.11 48.1604 22.6964 48.1604 20.4975C48.1604 19.398 47.614 18.8483 46.6773 18.8483C46.287 18.8483 45.7407 19.0839 45.2723 19.4765C45.2723 21.0472 45.2723 24.2671 45.2723 24.5812L46.209 25.131L46.0529 25.6022C45.4284 25.6022 44.7259 25.6022 44.0234 25.6022C43.3209 25.6022 42.5404 25.6022 41.8379 25.6022L41.9159 25.131L42.9307 24.5027C42.9307 24.2671 43.0087 22.8535 43.0087 20.6545V19.0839H43.2429Z" fill="black"/>
<path d="M59.9472 21.6755C59.9472 21.754 59.9472 21.8326 59.9472 21.9111C59.9472 23.7174 61.04 24.8954 62.523 24.8954C62.6791 24.8954 62.8352 24.8954 62.9913 24.8168C63.5377 24.4242 64.3183 23.8744 64.7086 23.6388L64.7866 23.953C64.7086 24.5812 63.85 25.3666 63.5377 25.6022C63.2255 25.6807 62.3669 25.9163 61.7425 25.9163C59.3228 25.9163 57.6836 24.3456 57.6836 21.8326C57.6836 19.3195 59.5569 17.5132 61.7425 17.5132C63.6158 17.5132 65.0208 18.6912 65.0208 20.7331C65.0208 20.9687 64.9427 21.2043 64.8647 21.2828C64.7086 21.3614 64.0061 21.597 62.9913 21.597H59.9472V21.6755ZM62.7572 20.8901C62.7572 20.7331 62.8352 20.576 62.8352 20.3404C62.8352 19.1624 62.445 18.2985 61.5864 18.2985C60.4936 18.2985 59.9472 19.9477 59.9472 20.9687H62.7572V20.8901Z" fill="black"/>
<path d="M66.3474 18.22C66.5815 18.0629 68.3768 17.5917 69.1574 17.5132C69.2354 17.9059 69.3915 18.7697 69.3135 19.0839H69.3915C70.016 18.0629 70.8746 17.5132 71.7332 17.5132C72.2015 17.5132 72.5137 17.6703 72.6699 17.9059C72.6699 18.4556 72.2015 19.7121 71.8893 20.2619L71.6551 20.3404C71.421 20.0263 71.2649 19.7121 70.9526 19.0839C70.8746 19.0053 70.7965 19.0053 70.7185 19.0053C70.3282 19.0053 69.7038 19.4765 69.4696 20.1048V24.7383L71.2649 25.2881L71.0307 25.6807C70.1721 25.6807 69.1574 25.6807 68.2207 25.6807C67.5182 25.6807 66.7377 25.6807 66.0352 25.6807L66.1132 25.2095L67.1279 24.6598C67.206 22.775 67.206 19.8692 67.206 19.0839L66.2693 18.6127L66.3474 18.22Z" fill="black"/>
<path d="M73.6062 18.0629C73.9184 17.9843 75.4014 17.5917 76.6503 17.5131V21.2042C76.6503 23.2461 76.6503 24.2671 76.6503 24.6597L77.8992 25.2095L77.7431 25.6807C76.9625 25.6807 76.26 25.6807 75.4795 25.6807C74.777 25.6807 73.9964 25.6807 73.2939 25.6807L73.372 25.2095L74.3087 24.6597C74.3087 24.0315 74.3087 22.6178 74.3087 21.1257V18.9267L73.2939 18.4555L73.6062 18.0629ZM75.6356 13.5864C75.9478 13.665 76.4942 14.3718 76.7284 14.843V15.0786C76.4942 15.4712 75.8698 16.0995 75.5575 16.3351L75.4014 16.4137C75.0112 16.178 74.4648 15.5498 74.3087 15.1571V15C74.6209 14.5288 75.1673 13.9791 75.4795 13.7435L75.6356 13.5864Z" fill="black"/>
<path d="M78.7578 21.8326C78.7578 18.8483 81.3336 17.5132 83.5192 17.5132C84.69 17.5132 85.6267 17.9059 85.9389 18.22C85.8608 18.6127 85.5486 19.7907 85.1583 20.3404L84.8461 20.4189C84.69 20.1048 84.3778 19.2409 84.1436 18.3771C84.0656 18.2985 83.9095 18.2985 83.5972 18.2985C81.802 18.2985 80.9434 19.9477 80.9434 21.597C80.9434 23.4818 81.9581 24.8954 83.7534 24.8954C83.9095 24.8954 84.0656 24.8954 84.2217 24.8168C84.7681 24.4242 85.3925 23.953 85.7828 23.7959L85.9389 24.1886C85.7828 24.6598 85.0803 25.5237 84.7681 25.6807C84.5339 25.7593 83.6753 25.9949 83.0509 25.9949C81.0995 25.9163 78.7578 24.8168 78.7578 21.8326Z" fill="black"/>
<path d="M91.7148 20.4189C91.7148 18.8483 90.9343 18.4556 90.1537 18.4556C89.7635 18.4556 89.4512 18.6127 89.2171 18.6912C89.139 19.398 88.9829 20.3404 88.9049 20.8116L88.7487 20.8901C88.5146 20.8116 87.5779 20.0263 87.3438 19.2409C87.9682 18.7697 88.9829 18.1415 89.8415 17.8273C90.3098 17.6703 90.7001 17.5132 91.0904 17.5132C93.2759 17.5132 93.9004 19.1624 93.9004 20.2619C93.9004 21.5184 93.9004 23.0891 93.9004 24.2671C94.0565 24.5812 94.6809 25.0524 95.2273 25.2095L95.1493 25.4451C94.9151 25.6022 94.4468 25.9163 93.7443 25.9163C92.4954 25.9163 92.0271 25.3666 91.871 24.9739C91.0123 25.6807 90.3879 25.9949 89.7635 25.9949C88.2024 25.9949 87.4218 24.7383 87.4218 23.7959C87.4218 23.0106 87.656 22.6179 88.2024 22.3038C88.7487 21.9111 90.7001 21.2828 91.871 20.9687L91.7148 20.4189ZM89.4512 23.3247C89.4512 24.3456 90.2318 24.6598 90.7001 24.6598C90.9343 24.6598 91.2465 24.5812 91.4807 24.3456C91.5587 24.2671 91.6368 24.11 91.6368 23.953V21.597C91.1685 21.754 90.3879 22.0682 89.9976 22.3038C89.6074 22.6179 89.4512 22.8535 89.4512 23.3247Z" fill="black"/>
<path d="M96.7889 19.0838L95.8523 18.6126L96.0084 18.2199C96.3206 17.9843 98.5061 17.4346 98.9745 17.4346L98.8184 18.7696C99.9111 17.9058 100.77 17.4346 101.55 17.4346C103.502 17.4346 104.048 18.9267 104.048 20.2618V24.3456C104.048 24.5812 104.126 24.6597 104.36 24.7382L105.297 25.2094L105.141 25.6806C104.438 25.6806 103.658 25.6806 102.877 25.6806C102.253 25.6806 101.628 25.6806 100.926 25.6806L101.004 25.2094L101.706 24.6597C101.706 24.11 101.784 22.932 101.784 20.5759C101.784 19.3979 101.238 18.8482 100.379 18.8482C99.8331 18.8482 99.2867 19.1623 98.8184 19.555C98.8184 20.9686 98.8184 24.3456 98.8184 24.7382L99.755 25.288L99.677 25.7592C99.0525 25.7592 98.35 25.7592 97.7256 25.7592C97.0231 25.7592 96.2425 25.7592 95.54 25.7592L95.6961 25.288L96.6328 24.7382C96.6328 24.5026 96.7109 22.7749 96.7109 20.6545V19.0838H96.7889Z" fill="black"/>
<path d="M110.293 13.8223C111.151 13.8223 111.932 13.8223 112.712 13.8223C113.493 13.8223 114.274 13.8223 115.054 13.8223L114.898 14.2935L113.883 14.9217C113.883 16.9636 113.883 19.1626 113.883 21.5971C113.883 22.461 114.039 23.0893 114.352 23.5605C114.898 24.3458 115.757 24.817 117.006 24.817C118.176 24.817 119.113 24.3458 119.659 23.5605C120.05 23.0107 120.284 22.2254 120.284 21.2045C120.284 18.5343 120.284 16.6495 120.206 14.9217L118.879 14.2935L119.035 13.8223C119.581 13.8223 120.206 13.8223 120.752 13.8223C121.455 13.8223 122.235 13.8223 122.938 13.8223L122.86 14.2935L121.377 14.9217C121.299 15.2359 121.299 15.6285 121.142 21.0474C121.142 22.1469 120.908 23.0893 120.44 23.8746C119.659 25.1312 118.254 25.9165 116.381 25.9165C114.664 25.9165 112.869 25.3668 112.01 23.7961C111.62 23.1678 111.542 22.3039 111.542 21.3615C111.542 18.6914 111.542 16.4139 111.542 14.8432L110.059 14.2149L110.293 13.8223Z" fill="black"/>
<path d="M124.265 19.0838L123.328 18.6126L123.484 18.2199C123.796 17.9843 125.982 17.4346 126.45 17.4346L126.294 18.7696C127.387 17.9058 128.245 17.4346 129.026 17.4346C130.977 17.4346 131.524 18.9267 131.524 20.2618V24.3456C131.524 24.5812 131.602 24.6597 131.836 24.7382L132.773 25.2094L132.616 25.6806C131.914 25.6806 131.133 25.6806 130.353 25.6806C129.728 25.6806 129.104 25.6806 128.401 25.6806L128.479 25.2094L129.182 24.6597C129.182 24.11 129.26 22.932 129.26 20.5759C129.26 19.3979 128.714 18.8482 127.855 18.8482C127.309 18.8482 126.762 19.1623 126.294 19.555C126.294 20.9686 126.294 24.3456 126.294 24.7382L127.231 25.288L127.153 25.7592C126.528 25.7592 125.826 25.7592 125.201 25.7592C124.499 25.7592 123.718 25.7592 123.016 25.7592L123.172 25.288L124.108 24.7382C124.108 24.5026 124.186 22.7749 124.186 20.6545V19.0838H124.265Z" fill="black"/>
<path d="M133.709 18.0629C134.021 17.9843 135.504 17.5917 136.753 17.5131V21.2042C136.753 23.2461 136.753 24.2671 136.753 24.6597L138.002 25.2095L137.846 25.6807C137.065 25.6807 136.363 25.6807 135.582 25.6807C134.88 25.6807 134.099 25.6807 133.396 25.6807L133.475 25.2095L134.411 24.6597C134.411 24.0315 134.411 22.6178 134.411 21.1257V18.9267L133.396 18.4555L133.709 18.0629ZM135.738 13.5864C136.05 13.665 136.597 14.3718 136.831 14.843V15.0786C136.597 15.4712 135.972 16.0995 135.66 16.3351L135.504 16.4137C135.114 16.178 134.567 15.5498 134.411 15.1571V15C134.723 14.5288 135.27 13.9791 135.582 13.7435L135.738 13.5864Z" fill="black"/>
<path d="M138.314 17.7489C139.017 17.7489 139.641 17.7489 140.422 17.7489C141.046 17.7489 141.67 17.7489 142.295 17.7489L142.139 18.2201L141.67 18.7699C141.983 19.6338 142.607 21.3615 143.31 23.2463C143.622 22.461 144.168 20.8118 144.793 18.8484L144.246 18.1416L144.402 17.6704C144.715 17.6704 145.183 17.6704 145.495 17.6704C145.964 17.6704 146.51 17.6704 146.978 17.6704L146.822 18.1416C146.432 18.3772 146.12 18.6128 145.729 18.927C145.417 19.4767 143.856 23.3249 143.31 24.817C143.075 25.2097 142.607 25.6809 142.217 25.9165H141.983C141.827 25.6023 140.734 22.8537 139.095 18.7699C138.704 18.4558 138.392 18.2987 137.924 18.0631L138.314 17.7489Z" fill="black"/>
<path d="M149.633 21.6756C149.633 21.7541 149.633 21.8326 149.633 21.9112C149.633 23.7175 150.725 24.8955 152.208 24.8955C152.365 24.8955 152.521 24.8955 152.677 24.8169C153.223 24.4243 154.004 23.8745 154.394 23.6389L154.472 23.9531C154.394 24.5813 153.535 25.3667 153.223 25.6023C152.911 25.7593 152.052 25.9949 151.35 25.9949C148.93 25.9949 147.291 24.4243 147.291 21.9112C147.291 19.3981 149.164 17.5918 151.35 17.5918C153.223 17.5918 154.628 18.7698 154.628 20.8117C154.628 21.0473 154.55 21.2829 154.472 21.3614C154.316 21.44 153.613 21.6756 152.599 21.6756H149.633V21.6756ZM152.443 20.8902C152.443 20.7332 152.521 20.5761 152.521 20.3405C152.521 19.1625 152.13 18.2986 151.272 18.2986C150.179 18.2986 149.633 19.9478 149.633 20.9688H152.443V20.8902Z" fill="black"/>
<path d="M156.033 18.22C156.267 18.0629 158.063 17.5917 158.843 17.5132C158.921 17.9059 159.077 18.7697 158.999 19.0839H159.077C159.702 18.0629 160.56 17.5132 161.419 17.5132C161.887 17.5132 162.199 17.6703 162.356 17.9059C162.356 18.4556 161.887 19.7121 161.575 20.2619L161.341 20.3404C161.107 20.0263 160.951 19.7121 160.638 19.0839C160.56 19.0053 160.482 19.0053 160.404 19.0053C160.014 19.0053 159.389 19.4765 159.155 20.1048V24.7383L160.951 25.2881L160.872 25.7593C160.014 25.7593 158.999 25.7593 158.063 25.7593C157.36 25.7593 156.579 25.7593 155.877 25.7593L155.955 25.2881L156.97 24.7383C157.048 22.8535 157.048 19.9477 157.048 19.1624L156.111 18.6912L156.033 18.22Z" fill="black"/>
<path d="M166.336 17.5135C166.726 17.5135 167.273 17.6706 167.663 17.9062C167.975 17.6706 168.366 17.5135 168.678 17.3564L168.834 17.435C168.756 18.1418 168.6 19.3983 168.366 19.8695L168.053 19.9481C167.819 19.5554 167.585 19.0057 167.429 18.5345C167.351 18.4559 166.961 18.2203 166.336 18.2203C165.556 18.2203 165.165 18.7701 165.165 19.2413C165.165 19.5554 165.399 19.8695 165.868 20.1051C166.648 20.4978 167.351 20.8119 168.053 21.2046C169.068 21.7543 169.38 22.3826 169.38 23.168C169.38 25.3669 167.195 25.8381 165.946 25.8381C164.853 25.8381 163.76 25.4454 163.292 25.1313C163.292 24.6601 163.604 23.2465 163.76 22.9324L163.994 22.7753C164.307 23.2465 164.775 24.346 165.009 24.9742C165.243 25.0528 165.634 25.1313 166.024 25.1313C166.883 25.1313 167.429 24.5816 167.429 23.9533C167.429 23.5606 167.273 23.2465 166.804 23.0109C166.336 22.7753 165.79 22.4612 165.165 22.147C164.073 21.6758 163.448 20.969 163.448 19.8695C163.526 18.7701 164.463 17.5135 166.336 17.5135Z" fill="black"/>
<path d="M170.629 18.0629C170.941 17.9843 172.424 17.5917 173.673 17.5131V21.2042C173.673 23.2461 173.673 24.2671 173.673 24.6597L174.922 25.2095L174.766 25.6807C173.985 25.6807 173.283 25.6807 172.502 25.6807C171.799 25.6807 171.019 25.6807 170.316 25.6807L170.394 25.2095L171.331 24.6597C171.331 24.0315 171.331 22.6178 171.331 21.1257V18.9267L170.316 18.4555L170.629 18.0629ZM172.658 13.5864C172.97 13.665 173.517 14.3718 173.751 14.843V15.0786C173.517 15.4712 172.892 16.0995 172.58 16.3351L172.424 16.4137C172.034 16.178 171.487 15.5498 171.331 15.1571V15C171.643 14.5288 172.19 13.9791 172.502 13.7435L172.658 13.5864Z" fill="black"/>
<path d="M181.401 17.7491L181.089 18.4559L178.747 18.6915C178.747 19.791 178.747 21.5187 178.747 23.5606C178.747 23.9533 178.903 24.1889 178.981 24.346C179.137 24.503 179.45 24.5816 179.84 24.5816C180.464 24.5816 181.011 24.346 181.245 24.1104H181.323V24.7386C180.933 25.3669 179.996 25.8381 178.981 25.8381C178.123 25.8381 177.42 25.524 176.952 25.0528C176.64 24.6601 176.562 24.2674 176.562 23.1679V18.613L175.469 18.2988L175.703 17.592H176.562C176.718 17.1208 177.108 15.8643 177.42 15.3931C177.732 15.1575 178.591 14.9219 178.825 14.9219L178.747 17.5135H181.401V17.7491Z" fill="black"/>
<path d="M187.567 17.7489C187.957 17.7489 188.347 17.7489 188.816 17.7489C189.44 17.7489 189.987 17.7489 190.455 17.7489L190.299 18.2201C189.909 18.4558 189.518 18.6128 189.206 18.8484C188.582 20.105 186.864 24.5814 185.537 27.7228C185.303 28.7437 185.225 29.372 185.069 29.9217C184.991 30.0002 184.835 30.0003 184.679 30.0003C183.976 30.0003 183.274 29.4505 183.118 29.1364C183.274 28.8222 184.132 27.9584 184.835 27.2516C184.991 26.8589 185.303 26.2306 185.537 25.7594C185.303 25.3667 183.43 20.5762 182.727 18.927C182.571 18.6914 182.415 18.5343 181.557 18.1416L181.713 17.6704C182.415 17.6704 183.118 17.6704 183.82 17.6704C184.445 17.6704 185.069 17.6704 185.694 17.6704L185.616 18.1416L185.147 18.6128C185.459 19.5552 186.006 20.9688 186.786 23.0107H186.864C187.333 21.6756 188.035 19.5552 188.269 18.6914L187.567 18.1416V17.7489Z" fill="black"/>
<path d="M194.904 18.0629C195.216 17.9843 196.699 17.5917 197.948 17.5131V21.2042C197.948 23.2461 197.948 24.2671 197.948 24.6597L199.197 25.2095L199.041 25.6807C198.26 25.6807 197.558 25.6807 196.777 25.6807C196.075 25.6807 195.294 25.6807 194.592 25.6807L194.67 25.2095L195.607 24.6597C195.607 24.0315 195.607 22.6178 195.607 21.1257V18.9267L194.592 18.4555L194.904 18.0629ZM196.855 13.5864C197.168 13.665 197.714 14.3718 197.948 14.843V15.0786C197.714 15.4712 197.09 16.0995 196.777 16.3351L196.621 16.4137C196.231 16.178 195.685 15.5498 195.528 15.1571V15C195.841 14.5288 196.387 13.9791 196.699 13.7435L196.855 13.5864Z" fill="black"/>
<path d="M201.148 19.0838L200.212 18.6126L200.368 18.2199C200.68 17.9843 202.866 17.4346 203.334 17.4346L203.178 18.7696C204.27 17.9058 205.129 17.4346 205.91 17.4346C207.861 17.4346 208.407 18.9267 208.407 20.2618V24.3456C208.407 24.5812 208.485 24.6597 208.72 24.7382L209.656 25.2094L209.5 25.6806C208.798 25.6806 208.017 25.6806 207.237 25.6806C206.612 25.6806 205.988 25.6806 205.285 25.6806L205.363 25.2094L206.066 24.6597C206.066 24.11 206.144 22.932 206.144 20.5759C206.144 19.3979 205.597 18.8482 204.739 18.8482C204.192 18.8482 203.646 19.1623 203.178 19.555C203.178 20.9686 203.178 24.3456 203.178 24.7382L204.114 25.288L204.036 25.7592C203.412 25.7592 202.709 25.7592 202.085 25.7592C201.382 25.7592 200.602 25.7592 199.899 25.7592L200.056 25.288L200.992 24.7382C200.992 24.5026 201.07 22.7749 201.07 20.6545V19.0838H201.148Z" fill="black"/>
<path d="M214.887 13.9793C215.589 13.9007 218.165 13.7437 219.336 13.7437C222.458 13.7437 224.097 14.529 224.097 16.4138C224.097 18.2201 222.536 19.0054 221.053 19.241V19.3981C223.785 19.6337 224.878 20.6546 224.878 22.3039C224.878 25.3667 221.209 25.8379 218.711 25.8379C217.384 25.8379 216.135 25.8379 214.73 25.7594L214.887 25.2882L216.135 24.6599C216.135 24.3457 216.214 23.0107 216.214 20.5761V14.8431L214.809 14.4505L214.887 13.9793ZM218.399 19.084C220.038 19.084 221.677 18.6128 221.677 16.6494C221.677 15.707 221.287 15.1573 220.741 14.8431C220.35 14.6075 219.726 14.4505 218.867 14.4505H218.399V19.084ZM222.302 22.2253C222.302 20.8902 221.677 19.7908 218.399 19.7908V20.1049C218.399 21.6756 218.399 23.8745 218.477 25.0526C220.272 25.0526 221.131 24.6599 221.677 24.0316C222.224 23.4819 222.302 22.8536 222.302 22.2253Z" fill="black"/>
<path d="M225.971 18.3772L226.127 17.9845C226.829 17.8275 228.156 17.6704 229.249 17.6704C229.171 18.6128 229.093 20.0264 229.093 22.7751C229.093 23.5605 229.171 23.9531 229.405 24.1887C229.639 24.4243 230.03 24.6599 230.498 24.6599C230.966 24.6599 231.591 24.4243 231.981 23.9531V19.2411C231.981 19.0055 231.747 18.8484 230.732 18.4558L230.888 18.0631C231.669 17.906 233.23 17.7489 234.245 17.7489C234.166 18.4558 234.166 19.6338 234.166 24.3458C234.479 24.8955 235.103 25.2097 235.415 25.2882L235.337 25.5238C235.181 25.6809 234.557 25.9165 233.932 25.9165C233.152 25.9165 232.293 25.6809 231.981 24.6599C231.357 25.3667 230.498 25.995 229.405 25.995C228.781 25.995 228.078 25.7594 227.61 25.3667C227.063 24.8955 226.829 24.1887 226.829 23.1678C226.829 21.8327 226.829 20.0264 226.829 18.927L225.971 18.3772Z" fill="black"/>
<path d="M240.567 25.2096L240.411 25.7594C239.63 25.7594 238.928 25.7594 238.225 25.7594C237.445 25.7594 236.664 25.7594 235.884 25.7594L235.962 25.2882L237.055 24.6599C237.055 24.0316 237.055 22.9321 237.055 18.6128C237.055 16.9636 237.055 15.4714 236.977 14.6075L235.962 14.1363L236.118 13.7437C236.664 13.5081 238.382 13.2725 239.24 13.2725C239.24 14.7646 239.162 16.6494 239.162 18.6128C239.162 22.2253 239.162 23.639 239.24 24.817L240.567 25.2096Z" fill="black"/>
<path d="M247.903 18.6915C248.138 18.9271 248.45 19.5554 248.45 20.2622C248.45 21.99 247.045 23.0894 245.015 23.0894C244.391 23.0894 243.766 22.9324 243.298 22.6968C243.142 22.9324 242.986 23.168 242.986 23.325C242.986 23.7177 243.376 24.1889 243.766 24.1889C244.859 24.1104 246.264 24.0318 247.903 24.1889C248.45 24.2674 248.84 24.4245 249.152 24.8172C249.465 25.1313 249.699 25.6811 249.699 26.1523C249.699 27.0947 249.074 28.1156 247.981 28.8224C247.123 29.4507 245.952 29.8434 244.625 29.8434C242.674 29.8434 241.425 28.9795 241.425 27.9585C241.425 27.6444 241.581 27.4088 241.815 27.1732L243.064 25.9952C242.596 25.8381 242.361 25.6025 241.971 25.2098C241.737 24.8957 241.503 24.346 241.503 24.0318C241.503 23.7177 242.283 22.9324 242.83 22.4612C242.205 22.0685 241.737 21.2831 241.737 20.4193C241.737 18.7701 243.298 17.592 245.328 17.592C245.874 17.592 246.342 17.6706 246.733 17.7491C247.279 17.8276 247.669 17.9062 248.216 17.9847L249.777 17.3564L249.855 17.5135L249.152 18.7701L247.903 18.6915ZM245.093 26.1523C244.001 26.1523 243.845 26.2308 243.688 26.3093C243.454 26.4664 243.22 26.9376 243.22 27.2517C243.22 28.2727 244.313 28.9009 245.484 28.9009C246.811 28.9009 247.903 28.2727 247.903 27.1732C247.903 26.7805 247.669 26.3879 247.045 26.2308C246.655 26.1523 246.186 26.1523 245.093 26.1523ZM245.093 18.1418C244.079 18.1418 243.766 19.3983 243.766 20.2622C243.766 21.2046 244.157 22.3826 245.093 22.3826C246.03 22.3826 246.342 21.2831 246.342 20.2622C246.42 19.5554 246.186 18.1418 245.093 18.1418Z" fill="black"/>
<path d="M254.929 20.4189C254.929 18.8483 254.148 18.4556 253.368 18.4556C252.977 18.4556 252.665 18.6127 252.431 18.6912C252.353 19.398 252.197 20.3404 252.119 20.8116L251.963 20.8901C251.728 20.8116 250.792 20.0263 250.558 19.2409C251.182 18.7697 252.197 18.1415 253.055 17.8273C253.524 17.6703 253.914 17.5132 254.304 17.5132C256.49 17.5132 257.114 19.1624 257.114 20.2619C257.114 21.5184 257.114 23.0891 257.114 24.2671C257.27 24.5812 257.895 25.0524 258.441 25.2095L258.363 25.4451C258.129 25.6022 257.661 25.9163 256.958 25.9163C255.709 25.9163 255.241 25.3666 255.085 24.9739C254.226 25.6807 253.602 25.9949 252.977 25.9949C251.416 25.9949 250.636 24.7383 250.636 23.7959C250.636 23.0106 250.87 22.6179 251.416 22.3038C251.963 21.9111 253.914 21.2828 255.085 20.9687L254.929 20.4189ZM252.743 23.3247C252.743 24.3456 253.524 24.6598 253.992 24.6598C254.226 24.6598 254.538 24.5812 254.773 24.3456C254.851 24.2671 254.929 24.11 254.929 23.953V21.597C254.46 21.754 253.68 22.0682 253.29 22.3038C252.899 22.6179 252.743 22.8535 252.743 23.3247Z" fill="black"/>
<path d="M259.3 18.22C259.534 18.0629 261.329 17.5917 262.11 17.5132C262.188 17.9059 262.344 18.7697 262.266 19.0839H262.344C262.968 18.0629 263.827 17.5132 264.685 17.5132C265.154 17.5132 265.466 17.6703 265.622 17.9059C265.622 18.4556 265.154 19.7121 264.842 20.2619L264.607 20.3404C264.373 20.0263 264.217 19.7121 263.905 19.0839C263.827 19.0053 263.749 19.0053 263.671 19.0053C263.28 19.0053 262.656 19.4765 262.422 20.1048V24.7383L264.217 25.2881L264.139 25.7593C263.28 25.7593 262.266 25.7593 261.329 25.7593C260.627 25.7593 259.846 25.7593 259.144 25.7593L259.222 25.2881L260.236 24.7383C260.314 22.8535 260.314 19.9477 260.314 19.1624L259.378 18.6912L259.3 18.22Z" fill="black"/>
<path d="M266.559 18.0629C266.872 17.9843 268.355 17.5917 269.603 17.5131V21.2042C269.603 23.2461 269.603 24.2671 269.603 24.6597L270.852 25.2095L270.696 25.6807C269.916 25.6807 269.213 25.6807 268.433 25.6807C267.73 25.6807 266.95 25.6807 266.247 25.6807L266.325 25.2095L267.262 24.6597C267.262 24.0315 267.262 22.6178 267.262 21.1257V18.9267L266.247 18.4555L266.559 18.0629ZM268.589 13.5864C268.901 13.665 269.447 14.3718 269.681 14.843V15.0786C269.447 15.4712 268.823 16.0995 268.511 16.3351L268.355 16.4137C267.964 16.178 267.418 15.5498 267.262 15.1571V15C267.574 14.5288 268.12 13.9791 268.433 13.7435L268.589 13.5864Z" fill="black"/>
<path d="M276.316 20.4189C276.316 18.8483 275.536 18.4556 274.755 18.4556C274.365 18.4556 274.053 18.6127 273.819 18.6912C273.741 19.398 273.584 20.3404 273.506 20.8116L273.35 20.8901C273.116 20.8116 272.179 20.0263 271.945 19.2409C272.57 18.7697 273.584 18.1415 274.443 17.8273C274.911 17.6703 275.302 17.5132 275.692 17.5132C277.878 17.5132 278.502 19.1624 278.502 20.2619C278.502 21.5184 278.502 23.0891 278.502 24.2671C278.658 24.5812 279.283 25.0524 279.829 25.2095L279.751 25.4451C279.517 25.6022 279.048 25.9163 278.346 25.9163C277.097 25.9163 276.629 25.3666 276.473 24.9739C275.614 25.6807 274.989 25.9949 274.365 25.9949C272.804 25.9949 272.023 24.7383 272.023 23.7959C272.023 23.0106 272.258 22.6179 272.804 22.3038C273.35 21.9111 275.302 21.2828 276.473 20.9687L276.316 20.4189ZM274.053 23.3247C274.053 24.3456 274.833 24.6598 275.302 24.6598C275.536 24.6598 275.848 24.5812 276.082 24.3456C276.16 24.2671 276.238 24.11 276.238 23.953V21.597C275.77 21.754 274.989 22.0682 274.599 22.3038C274.209 22.6179 274.053 22.8535 274.053 23.3247Z" fill="black"/>
<path d="M19.3577 25.9162L19.2796 25.9948C18.4991 26.8586 16.3135 29.1361 11.0838 29.0576C7.25914 29.0576 4.76137 28.1937 2.9661 26.2304L2.34166 27.9581L2.2636 28.2723H1.95138H0.702497H0L0.234166 27.5654L1.56111 24.1885C0.780553 22.5393 0.780553 20.8115 0.780553 17.7487L0.858608 1.57068V1.09948H1.32694H2.2636H2.73193V1.57068V17.7487V18.534C2.73193 19.3979 2.73193 20.2618 2.80999 21.0471L7.18108 10.2094H6.71275V8.40314H7.96164L10.8497 1.17801L11.318 0L11.7863 1.17801L19.2796 20.2618C19.2796 19.712 19.2796 19.0838 19.2796 18.534V17.7487V1.57068V1.09948H19.748H20.7627H21.231V1.57068V17.7487C21.231 17.9843 21.231 18.2199 21.231 18.4555C21.3091 19.8691 21.3091 21.911 20.6066 23.7958L22.0896 27.5654L22.3238 28.2723H21.6213H20.6066H20.2944L20.1383 27.9581L19.3577 25.9162ZM13.2694 10.2094H9.28858L3.90276 23.9529C4.91748 25.3665 6.94692 26.8586 11.0838 26.9372C13.8938 26.9372 17.0941 25.9162 18.4991 23.5602L13.2694 10.2094ZM9.99107 8.32461H12.4888L11.24 5.10471L9.99107 8.32461Z" fill="black"/>
<path d="M35.7496 13.4297L35.8277 13.5082C35.8277 13.9794 35.9058 14.215 36.0619 14.7648C36.296 15.4716 37.4669 18.4559 39.5744 23.7962C39.8866 24.5815 40.1207 24.7386 41.4477 25.2098L41.3696 25.7595C40.511 25.7595 39.6524 25.7595 38.7938 25.7595C38.1694 25.7595 37.4669 25.7595 36.7644 25.7595L36.9205 25.2883L37.5449 24.7386C37.3888 24.3459 36.9205 23.0894 36.3741 21.6758C35.7496 21.6758 34.891 21.7543 32.4713 21.7543C31.9249 23.2464 31.6908 23.8747 31.4566 24.5815L32.9397 25.2883L32.7835 25.7595C32.1591 25.7595 31.4566 25.7595 30.7541 25.7595C30.1297 25.7595 29.5052 25.7595 28.8027 25.7595L28.9588 25.2883L30.2077 24.5815C30.6761 23.6391 32.5494 19.1627 34.0324 15.393C34.1105 15.236 34.1105 15.0789 34.0324 14.9218L33.8763 14.3721L35.7496 13.4297ZM34.5008 16.2569C33.5641 18.77 33.2519 19.5553 32.8616 20.6548C33.408 20.6548 35.4374 20.7334 36.0619 20.7334C35.4374 18.77 34.891 17.3564 34.5008 16.2569Z" fill="black"/>
<path d="M43.2429 19.0839L42.3062 18.6912L42.4623 18.2985C42.7746 18.0629 44.9601 17.5132 45.4284 17.5132L45.3504 18.8483C46.4431 18.0629 47.2237 17.5132 48.1604 17.5132C49.1751 17.5132 49.9556 18.1415 50.1898 18.9268C51.2826 18.0629 52.2192 17.5132 53.0778 17.5132C54.7951 17.5132 55.4976 18.9268 55.4976 20.2619V24.5027C55.4976 24.6598 55.6537 24.7383 55.8878 24.8954L56.7464 25.2881L56.5903 25.7593C55.8878 25.7593 55.1073 25.7593 54.4048 25.7593C53.7023 25.7593 53.0778 25.7593 52.3753 25.7593L52.4534 25.2881L53.234 24.6598C53.234 24.11 53.312 22.8535 53.312 20.8116C53.312 19.5551 52.6876 18.9268 51.907 18.9268C51.2826 18.9268 50.8142 19.1624 50.2679 19.6336C50.3459 19.9477 50.424 20.4189 50.424 20.8901V24.6598L51.3606 25.2095L51.2045 25.6807C50.5801 25.6807 49.9556 25.6807 49.2531 25.6807C48.5506 25.6807 47.8481 25.6807 47.1456 25.6807L47.2237 25.2095L48.0823 24.5812C48.0823 24.11 48.1604 22.6964 48.1604 20.4975C48.1604 19.398 47.614 18.8483 46.6773 18.8483C46.287 18.8483 45.7407 19.0839 45.2723 19.4765C45.2723 21.0472 45.2723 24.2671 45.2723 24.5812L46.209 25.131L46.0529 25.6022C45.4284 25.6022 44.7259 25.6022 44.0234 25.6022C43.3209 25.6022 42.5404 25.6022 41.8379 25.6022L41.9159 25.131L42.9307 24.5027C42.9307 24.2671 43.0087 22.8535 43.0087 20.6545V19.0839H43.2429Z" fill="black"/>
<path d="M59.9472 21.6755C59.9472 21.754 59.9472 21.8326 59.9472 21.9111C59.9472 23.7174 61.04 24.8954 62.523 24.8954C62.6791 24.8954 62.8352 24.8954 62.9913 24.8168C63.5377 24.4242 64.3183 23.8744 64.7086 23.6388L64.7866 23.953C64.7086 24.5812 63.85 25.3666 63.5377 25.6022C63.2255 25.6807 62.3669 25.9163 61.7425 25.9163C59.3228 25.9163 57.6836 24.3456 57.6836 21.8326C57.6836 19.3195 59.5569 17.5132 61.7425 17.5132C63.6158 17.5132 65.0208 18.6912 65.0208 20.7331C65.0208 20.9687 64.9427 21.2043 64.8647 21.2828C64.7086 21.3614 64.0061 21.597 62.9913 21.597H59.9472V21.6755ZM62.7572 20.8901C62.7572 20.7331 62.8352 20.576 62.8352 20.3404C62.8352 19.1624 62.445 18.2985 61.5864 18.2985C60.4936 18.2985 59.9472 19.9477 59.9472 20.9687H62.7572V20.8901Z" fill="black"/>
<path d="M66.3474 18.22C66.5815 18.0629 68.3768 17.5917 69.1574 17.5132C69.2354 17.9059 69.3915 18.7697 69.3135 19.0839H69.3915C70.016 18.0629 70.8746 17.5132 71.7332 17.5132C72.2015 17.5132 72.5137 17.6703 72.6699 17.9059C72.6699 18.4556 72.2015 19.7121 71.8893 20.2619L71.6551 20.3404C71.421 20.0263 71.2649 19.7121 70.9526 19.0839C70.8746 19.0053 70.7965 19.0053 70.7185 19.0053C70.3282 19.0053 69.7038 19.4765 69.4696 20.1048V24.7383L71.2649 25.2881L71.0307 25.6807C70.1721 25.6807 69.1574 25.6807 68.2207 25.6807C67.5182 25.6807 66.7377 25.6807 66.0352 25.6807L66.1132 25.2095L67.1279 24.6598C67.206 22.775 67.206 19.8692 67.206 19.0839L66.2693 18.6127L66.3474 18.22Z" fill="black"/>
<path d="M73.6062 18.0629C73.9184 17.9843 75.4014 17.5917 76.6503 17.5131V21.2042C76.6503 23.2461 76.6503 24.2671 76.6503 24.6597L77.8992 25.2095L77.7431 25.6807C76.9625 25.6807 76.26 25.6807 75.4795 25.6807C74.777 25.6807 73.9964 25.6807 73.2939 25.6807L73.372 25.2095L74.3087 24.6597C74.3087 24.0315 74.3087 22.6178 74.3087 21.1257V18.9267L73.2939 18.4555L73.6062 18.0629ZM75.6356 13.5864C75.9478 13.665 76.4942 14.3718 76.7284 14.843V15.0786C76.4942 15.4712 75.8698 16.0995 75.5575 16.3351L75.4014 16.4137C75.0112 16.178 74.4648 15.5498 74.3087 15.1571V15C74.6209 14.5288 75.1673 13.9791 75.4795 13.7435L75.6356 13.5864Z" fill="black"/>
<path d="M78.7578 21.8326C78.7578 18.8483 81.3336 17.5132 83.5192 17.5132C84.69 17.5132 85.6267 17.9059 85.9389 18.22C85.8608 18.6127 85.5486 19.7907 85.1583 20.3404L84.8461 20.4189C84.69 20.1048 84.3778 19.2409 84.1436 18.3771C84.0656 18.2985 83.9095 18.2985 83.5972 18.2985C81.802 18.2985 80.9434 19.9477 80.9434 21.597C80.9434 23.4818 81.9581 24.8954 83.7534 24.8954C83.9095 24.8954 84.0656 24.8954 84.2217 24.8168C84.7681 24.4242 85.3925 23.953 85.7828 23.7959L85.9389 24.1886C85.7828 24.6598 85.0803 25.5237 84.7681 25.6807C84.5339 25.7593 83.6753 25.9949 83.0509 25.9949C81.0995 25.9163 78.7578 24.8168 78.7578 21.8326Z" fill="black"/>
<path d="M91.7148 20.4189C91.7148 18.8483 90.9343 18.4556 90.1537 18.4556C89.7635 18.4556 89.4512 18.6127 89.2171 18.6912C89.139 19.398 88.9829 20.3404 88.9049 20.8116L88.7487 20.8901C88.5146 20.8116 87.5779 20.0263 87.3438 19.2409C87.9682 18.7697 88.9829 18.1415 89.8415 17.8273C90.3098 17.6703 90.7001 17.5132 91.0904 17.5132C93.2759 17.5132 93.9004 19.1624 93.9004 20.2619C93.9004 21.5184 93.9004 23.0891 93.9004 24.2671C94.0565 24.5812 94.6809 25.0524 95.2273 25.2095L95.1493 25.4451C94.9151 25.6022 94.4468 25.9163 93.7443 25.9163C92.4954 25.9163 92.0271 25.3666 91.871 24.9739C91.0123 25.6807 90.3879 25.9949 89.7635 25.9949C88.2024 25.9949 87.4218 24.7383 87.4218 23.7959C87.4218 23.0106 87.656 22.6179 88.2024 22.3038C88.7487 21.9111 90.7001 21.2828 91.871 20.9687L91.7148 20.4189ZM89.4512 23.3247C89.4512 24.3456 90.2318 24.6598 90.7001 24.6598C90.9343 24.6598 91.2465 24.5812 91.4807 24.3456C91.5587 24.2671 91.6368 24.11 91.6368 23.953V21.597C91.1685 21.754 90.3879 22.0682 89.9976 22.3038C89.6074 22.6179 89.4512 22.8535 89.4512 23.3247Z" fill="black"/>
<path d="M96.7889 19.0838L95.8523 18.6126L96.0084 18.2199C96.3206 17.9843 98.5061 17.4346 98.9745 17.4346L98.8184 18.7696C99.9111 17.9058 100.77 17.4346 101.55 17.4346C103.502 17.4346 104.048 18.9267 104.048 20.2618V24.3456C104.048 24.5812 104.126 24.6597 104.36 24.7382L105.297 25.2094L105.141 25.6806C104.438 25.6806 103.658 25.6806 102.877 25.6806C102.253 25.6806 101.628 25.6806 100.926 25.6806L101.004 25.2094L101.706 24.6597C101.706 24.11 101.784 22.932 101.784 20.5759C101.784 19.3979 101.238 18.8482 100.379 18.8482C99.8331 18.8482 99.2867 19.1623 98.8184 19.555C98.8184 20.9686 98.8184 24.3456 98.8184 24.7382L99.755 25.288L99.677 25.7592C99.0525 25.7592 98.35 25.7592 97.7256 25.7592C97.0231 25.7592 96.2425 25.7592 95.54 25.7592L95.6961 25.288L96.6328 24.7382C96.6328 24.5026 96.7109 22.7749 96.7109 20.6545V19.0838H96.7889Z" fill="black"/>
<path d="M110.293 13.8223C111.151 13.8223 111.932 13.8223 112.712 13.8223C113.493 13.8223 114.274 13.8223 115.054 13.8223L114.898 14.2935L113.883 14.9217C113.883 16.9636 113.883 19.1626 113.883 21.5971C113.883 22.461 114.039 23.0893 114.352 23.5605C114.898 24.3458 115.757 24.817 117.006 24.817C118.176 24.817 119.113 24.3458 119.659 23.5605C120.05 23.0107 120.284 22.2254 120.284 21.2045C120.284 18.5343 120.284 16.6495 120.206 14.9217L118.879 14.2935L119.035 13.8223C119.581 13.8223 120.206 13.8223 120.752 13.8223C121.455 13.8223 122.235 13.8223 122.938 13.8223L122.86 14.2935L121.377 14.9217C121.299 15.2359 121.299 15.6285 121.142 21.0474C121.142 22.1469 120.908 23.0893 120.44 23.8746C119.659 25.1312 118.254 25.9165 116.381 25.9165C114.664 25.9165 112.869 25.3668 112.01 23.7961C111.62 23.1678 111.542 22.3039 111.542 21.3615C111.542 18.6914 111.542 16.4139 111.542 14.8432L110.059 14.2149L110.293 13.8223Z" fill="black"/>
<path d="M124.265 19.0838L123.328 18.6126L123.484 18.2199C123.796 17.9843 125.982 17.4346 126.45 17.4346L126.294 18.7696C127.387 17.9058 128.245 17.4346 129.026 17.4346C130.977 17.4346 131.524 18.9267 131.524 20.2618V24.3456C131.524 24.5812 131.602 24.6597 131.836 24.7382L132.773 25.2094L132.616 25.6806C131.914 25.6806 131.133 25.6806 130.353 25.6806C129.728 25.6806 129.104 25.6806 128.401 25.6806L128.479 25.2094L129.182 24.6597C129.182 24.11 129.26 22.932 129.26 20.5759C129.26 19.3979 128.714 18.8482 127.855 18.8482C127.309 18.8482 126.762 19.1623 126.294 19.555C126.294 20.9686 126.294 24.3456 126.294 24.7382L127.231 25.288L127.153 25.7592C126.528 25.7592 125.826 25.7592 125.201 25.7592C124.499 25.7592 123.718 25.7592 123.016 25.7592L123.172 25.288L124.108 24.7382C124.108 24.5026 124.186 22.7749 124.186 20.6545V19.0838H124.265Z" fill="black"/>
<path d="M133.709 18.0629C134.021 17.9843 135.504 17.5917 136.753 17.5131V21.2042C136.753 23.2461 136.753 24.2671 136.753 24.6597L138.002 25.2095L137.846 25.6807C137.065 25.6807 136.363 25.6807 135.582 25.6807C134.88 25.6807 134.099 25.6807 133.396 25.6807L133.475 25.2095L134.411 24.6597C134.411 24.0315 134.411 22.6178 134.411 21.1257V18.9267L133.396 18.4555L133.709 18.0629ZM135.738 13.5864C136.05 13.665 136.597 14.3718 136.831 14.843V15.0786C136.597 15.4712 135.972 16.0995 135.66 16.3351L135.504 16.4137C135.114 16.178 134.567 15.5498 134.411 15.1571V15C134.723 14.5288 135.27 13.9791 135.582 13.7435L135.738 13.5864Z" fill="black"/>
<path d="M138.314 17.7489C139.017 17.7489 139.641 17.7489 140.422 17.7489C141.046 17.7489 141.67 17.7489 142.295 17.7489L142.139 18.2201L141.67 18.7699C141.983 19.6338 142.607 21.3615 143.31 23.2463C143.622 22.461 144.168 20.8118 144.793 18.8484L144.246 18.1416L144.402 17.6704C144.715 17.6704 145.183 17.6704 145.495 17.6704C145.964 17.6704 146.51 17.6704 146.978 17.6704L146.822 18.1416C146.432 18.3772 146.12 18.6128 145.729 18.927C145.417 19.4767 143.856 23.3249 143.31 24.817C143.075 25.2097 142.607 25.6809 142.217 25.9165H141.983C141.827 25.6023 140.734 22.8537 139.095 18.7699C138.704 18.4558 138.392 18.2987 137.924 18.0631L138.314 17.7489Z" fill="black"/>
<path d="M149.633 21.6756C149.633 21.7541 149.633 21.8326 149.633 21.9112C149.633 23.7175 150.725 24.8955 152.208 24.8955C152.365 24.8955 152.521 24.8955 152.677 24.8169C153.223 24.4243 154.004 23.8745 154.394 23.6389L154.472 23.9531C154.394 24.5813 153.535 25.3667 153.223 25.6023C152.911 25.7593 152.052 25.9949 151.35 25.9949C148.93 25.9949 147.291 24.4243 147.291 21.9112C147.291 19.3981 149.164 17.5918 151.35 17.5918C153.223 17.5918 154.628 18.7698 154.628 20.8117C154.628 21.0473 154.55 21.2829 154.472 21.3614C154.316 21.44 153.613 21.6756 152.599 21.6756H149.633V21.6756ZM152.443 20.8902C152.443 20.7332 152.521 20.5761 152.521 20.3405C152.521 19.1625 152.13 18.2986 151.272 18.2986C150.179 18.2986 149.633 19.9478 149.633 20.9688H152.443V20.8902Z" fill="black"/>
<path d="M156.033 18.22C156.267 18.0629 158.063 17.5917 158.843 17.5132C158.921 17.9059 159.077 18.7697 158.999 19.0839H159.077C159.702 18.0629 160.56 17.5132 161.419 17.5132C161.887 17.5132 162.199 17.6703 162.356 17.9059C162.356 18.4556 161.887 19.7121 161.575 20.2619L161.341 20.3404C161.107 20.0263 160.951 19.7121 160.638 19.0839C160.56 19.0053 160.482 19.0053 160.404 19.0053C160.014 19.0053 159.389 19.4765 159.155 20.1048V24.7383L160.951 25.2881L160.872 25.7593C160.014 25.7593 158.999 25.7593 158.063 25.7593C157.36 25.7593 156.579 25.7593 155.877 25.7593L155.955 25.2881L156.97 24.7383C157.048 22.8535 157.048 19.9477 157.048 19.1624L156.111 18.6912L156.033 18.22Z" fill="black"/>
<path d="M166.336 17.5135C166.726 17.5135 167.273 17.6706 167.663 17.9062C167.975 17.6706 168.366 17.5135 168.678 17.3564L168.834 17.435C168.756 18.1418 168.6 19.3983 168.366 19.8695L168.053 19.9481C167.819 19.5554 167.585 19.0057 167.429 18.5345C167.351 18.4559 166.961 18.2203 166.336 18.2203C165.556 18.2203 165.165 18.7701 165.165 19.2413C165.165 19.5554 165.399 19.8695 165.868 20.1051C166.648 20.4978 167.351 20.8119 168.053 21.2046C169.068 21.7543 169.38 22.3826 169.38 23.168C169.38 25.3669 167.195 25.8381 165.946 25.8381C164.853 25.8381 163.76 25.4454 163.292 25.1313C163.292 24.6601 163.604 23.2465 163.76 22.9324L163.994 22.7753C164.307 23.2465 164.775 24.346 165.009 24.9742C165.243 25.0528 165.634 25.1313 166.024 25.1313C166.883 25.1313 167.429 24.5816 167.429 23.9533C167.429 23.5606 167.273 23.2465 166.804 23.0109C166.336 22.7753 165.79 22.4612 165.165 22.147C164.073 21.6758 163.448 20.969 163.448 19.8695C163.526 18.7701 164.463 17.5135 166.336 17.5135Z" fill="black"/>
<path d="M170.629 18.0629C170.941 17.9843 172.424 17.5917 173.673 17.5131V21.2042C173.673 23.2461 173.673 24.2671 173.673 24.6597L174.922 25.2095L174.766 25.6807C173.985 25.6807 173.283 25.6807 172.502 25.6807C171.799 25.6807 171.019 25.6807 170.316 25.6807L170.394 25.2095L171.331 24.6597C171.331 24.0315 171.331 22.6178 171.331 21.1257V18.9267L170.316 18.4555L170.629 18.0629ZM172.658 13.5864C172.97 13.665 173.517 14.3718 173.751 14.843V15.0786C173.517 15.4712 172.892 16.0995 172.58 16.3351L172.424 16.4137C172.034 16.178 171.487 15.5498 171.331 15.1571V15C171.643 14.5288 172.19 13.9791 172.502 13.7435L172.658 13.5864Z" fill="black"/>
<path d="M181.401 17.7491L181.089 18.4559L178.747 18.6915C178.747 19.791 178.747 21.5187 178.747 23.5606C178.747 23.9533 178.903 24.1889 178.981 24.346C179.137 24.503 179.45 24.5816 179.84 24.5816C180.464 24.5816 181.011 24.346 181.245 24.1104H181.323V24.7386C180.933 25.3669 179.996 25.8381 178.981 25.8381C178.123 25.8381 177.42 25.524 176.952 25.0528C176.64 24.6601 176.562 24.2674 176.562 23.1679V18.613L175.469 18.2988L175.703 17.592H176.562C176.718 17.1208 177.108 15.8643 177.42 15.3931C177.732 15.1575 178.591 14.9219 178.825 14.9219L178.747 17.5135H181.401V17.7491Z" fill="black"/>
<path d="M187.567 17.7489C187.957 17.7489 188.347 17.7489 188.816 17.7489C189.44 17.7489 189.987 17.7489 190.455 17.7489L190.299 18.2201C189.909 18.4558 189.518 18.6128 189.206 18.8484C188.582 20.105 186.864 24.5814 185.537 27.7228C185.303 28.7437 185.225 29.372 185.069 29.9217C184.991 30.0002 184.835 30.0003 184.679 30.0003C183.976 30.0003 183.274 29.4505 183.118 29.1364C183.274 28.8222 184.132 27.9584 184.835 27.2516C184.991 26.8589 185.303 26.2306 185.537 25.7594C185.303 25.3667 183.43 20.5762 182.727 18.927C182.571 18.6914 182.415 18.5343 181.557 18.1416L181.713 17.6704C182.415 17.6704 183.118 17.6704 183.82 17.6704C184.445 17.6704 185.069 17.6704 185.694 17.6704L185.616 18.1416L185.147 18.6128C185.459 19.5552 186.006 20.9688 186.786 23.0107H186.864C187.333 21.6756 188.035 19.5552 188.269 18.6914L187.567 18.1416V17.7489Z" fill="black"/>
<path d="M194.904 18.0629C195.216 17.9843 196.699 17.5917 197.948 17.5131V21.2042C197.948 23.2461 197.948 24.2671 197.948 24.6597L199.197 25.2095L199.041 25.6807C198.26 25.6807 197.558 25.6807 196.777 25.6807C196.075 25.6807 195.294 25.6807 194.592 25.6807L194.67 25.2095L195.607 24.6597C195.607 24.0315 195.607 22.6178 195.607 21.1257V18.9267L194.592 18.4555L194.904 18.0629ZM196.855 13.5864C197.168 13.665 197.714 14.3718 197.948 14.843V15.0786C197.714 15.4712 197.09 16.0995 196.777 16.3351L196.621 16.4137C196.231 16.178 195.685 15.5498 195.528 15.1571V15C195.841 14.5288 196.387 13.9791 196.699 13.7435L196.855 13.5864Z" fill="black"/>
<path d="M201.149 19.0838L200.213 18.6126L200.369 18.2199C200.681 17.9843 202.866 17.4346 203.335 17.4346L203.179 18.7696C204.271 17.9058 205.13 17.4346 205.911 17.4346C207.862 17.4346 208.408 18.9267 208.408 20.2618V24.3456C208.408 24.5812 208.486 24.6597 208.721 24.7382L209.657 25.2094L209.501 25.6806C208.799 25.6806 208.018 25.6806 207.238 25.6806C206.613 25.6806 205.989 25.6806 205.286 25.6806L205.364 25.2094L206.067 24.6597C206.067 24.11 206.145 22.932 206.145 20.5759C206.145 19.3979 205.598 18.8482 204.74 18.8482C204.193 18.8482 203.647 19.1623 203.179 19.555C203.179 20.9686 203.179 24.3456 203.179 24.7382L204.115 25.288L204.037 25.7592C203.413 25.7592 202.71 25.7592 202.086 25.7592C201.383 25.7592 200.603 25.7592 199.9 25.7592L200.056 25.288L200.993 24.7382C200.993 24.5026 201.071 22.7749 201.071 20.6545V19.0838H201.149Z" fill="black"/>
<path d="M214.887 13.9793C215.589 13.9007 218.165 13.7437 219.336 13.7437C222.458 13.7437 224.097 14.529 224.097 16.4138C224.097 18.2201 222.536 19.0054 221.053 19.241V19.3981C223.785 19.6337 224.878 20.6546 224.878 22.3039C224.878 25.3667 221.209 25.8379 218.711 25.8379C217.384 25.8379 216.135 25.8379 214.73 25.7594L214.887 25.2882L216.135 24.6599C216.135 24.3457 216.214 23.0107 216.214 20.5761V14.8431L214.809 14.4505L214.887 13.9793ZM218.399 19.084C220.038 19.084 221.677 18.6128 221.677 16.6494C221.677 15.707 221.287 15.1573 220.741 14.8431C220.35 14.6075 219.726 14.4505 218.867 14.4505H218.399V19.084ZM222.302 22.2253C222.302 20.8902 221.677 19.7908 218.399 19.7908V20.1049C218.399 21.6756 218.399 23.8745 218.477 25.0526C220.272 25.0526 221.131 24.6599 221.677 24.0316C222.224 23.4819 222.302 22.8536 222.302 22.2253Z" fill="black"/>
<path d="M225.971 18.3772L226.127 17.9845C226.829 17.8275 228.156 17.6704 229.249 17.6704C229.171 18.6128 229.093 20.0264 229.093 22.7751C229.093 23.5605 229.171 23.9531 229.405 24.1887C229.639 24.4243 230.03 24.6599 230.498 24.6599C230.966 24.6599 231.591 24.4243 231.981 23.9531V19.2411C231.981 19.0055 231.747 18.8484 230.732 18.4558L230.888 18.0631C231.669 17.906 233.23 17.7489 234.245 17.7489C234.166 18.4558 234.166 19.6338 234.166 24.3458C234.479 24.8955 235.103 25.2097 235.415 25.2882L235.337 25.5238C235.181 25.6809 234.557 25.9165 233.932 25.9165C233.152 25.9165 232.293 25.6809 231.981 24.6599C231.357 25.3667 230.498 25.995 229.405 25.995C228.781 25.995 228.078 25.7594 227.61 25.3667C227.063 24.8955 226.829 24.1887 226.829 23.1678C226.829 21.8327 226.829 20.0264 226.829 18.927L225.971 18.3772Z" fill="black"/>
<path d="M240.567 25.2096L240.411 25.7594C239.63 25.7594 238.928 25.7594 238.225 25.7594C237.445 25.7594 236.664 25.7594 235.884 25.7594L235.962 25.2882L237.055 24.6599C237.055 24.0316 237.055 22.9321 237.055 18.6128C237.055 16.9636 237.055 15.4714 236.977 14.6075L235.962 14.1363L236.118 13.7437C236.664 13.5081 238.382 13.2725 239.24 13.2725C239.24 14.7646 239.162 16.6494 239.162 18.6128C239.162 22.2253 239.162 23.639 239.24 24.817L240.567 25.2096Z" fill="black"/>
<path d="M247.903 18.6915C248.138 18.9271 248.45 19.5554 248.45 20.2622C248.45 21.99 247.045 23.0894 245.015 23.0894C244.391 23.0894 243.766 22.9324 243.298 22.6968C243.142 22.9324 242.986 23.168 242.986 23.325C242.986 23.7177 243.376 24.1889 243.766 24.1889C244.859 24.1104 246.264 24.0318 247.903 24.1889C248.45 24.2674 248.84 24.4245 249.152 24.8172C249.465 25.1313 249.699 25.6811 249.699 26.1523C249.699 27.0947 249.074 28.1156 247.981 28.8224C247.123 29.4507 245.952 29.8434 244.625 29.8434C242.674 29.8434 241.425 28.9795 241.425 27.9585C241.425 27.6444 241.581 27.4088 241.815 27.1732L243.064 25.9952C242.596 25.8381 242.361 25.6025 241.971 25.2098C241.737 24.8957 241.503 24.346 241.503 24.0318C241.503 23.7177 242.283 22.9324 242.83 22.4612C242.205 22.0685 241.737 21.2831 241.737 20.4193C241.737 18.7701 243.298 17.592 245.328 17.592C245.874 17.592 246.342 17.6706 246.733 17.7491C247.279 17.8276 247.669 17.9062 248.216 17.9847L249.777 17.3564L249.855 17.5135L249.152 18.7701L247.903 18.6915ZM245.093 26.1523C244.001 26.1523 243.845 26.2308 243.688 26.3093C243.454 26.4664 243.22 26.9376 243.22 27.2517C243.22 28.2727 244.313 28.9009 245.484 28.9009C246.811 28.9009 247.903 28.2727 247.903 27.1732C247.903 26.7805 247.669 26.3879 247.045 26.2308C246.655 26.1523 246.186 26.1523 245.093 26.1523ZM245.093 18.1418C244.079 18.1418 243.766 19.3983 243.766 20.2622C243.766 21.2046 244.157 22.3826 245.093 22.3826C246.03 22.3826 246.342 21.2831 246.342 20.2622C246.42 19.5554 246.186 18.1418 245.093 18.1418Z" fill="black"/>
<path d="M254.929 20.4189C254.929 18.8483 254.148 18.4556 253.368 18.4556C252.977 18.4556 252.665 18.6127 252.431 18.6912C252.353 19.398 252.197 20.3404 252.119 20.8116L251.963 20.8901C251.728 20.8116 250.792 20.0263 250.558 19.2409C251.182 18.7697 252.197 18.1415 253.055 17.8273C253.524 17.6703 253.914 17.5132 254.304 17.5132C256.49 17.5132 257.114 19.1624 257.114 20.2619C257.114 21.5184 257.114 23.0891 257.114 24.2671C257.27 24.5812 257.895 25.0524 258.441 25.2095L258.363 25.4451C258.129 25.6022 257.661 25.9163 256.958 25.9163C255.709 25.9163 255.241 25.3666 255.085 24.9739C254.226 25.6807 253.602 25.9949 252.977 25.9949C251.416 25.9949 250.636 24.7383 250.636 23.7959C250.636 23.0106 250.87 22.6179 251.416 22.3038C251.963 21.9111 253.914 21.2828 255.085 20.9687L254.929 20.4189ZM252.743 23.3247C252.743 24.3456 253.524 24.6598 253.992 24.6598C254.226 24.6598 254.538 24.5812 254.773 24.3456C254.851 24.2671 254.929 24.11 254.929 23.953V21.597C254.46 21.754 253.68 22.0682 253.29 22.3038C252.899 22.6179 252.743 22.8535 252.743 23.3247Z" fill="black"/>
<path d="M259.3 18.22C259.534 18.0629 261.329 17.5917 262.11 17.5132C262.188 17.9059 262.344 18.7697 262.266 19.0839H262.344C262.968 18.0629 263.827 17.5132 264.685 17.5132C265.154 17.5132 265.466 17.6703 265.622 17.9059C265.622 18.4556 265.154 19.7121 264.842 20.2619L264.607 20.3404C264.373 20.0263 264.217 19.7121 263.905 19.0839C263.827 19.0053 263.749 19.0053 263.671 19.0053C263.28 19.0053 262.656 19.4765 262.422 20.1048V24.7383L264.217 25.2881L264.139 25.7593C263.28 25.7593 262.266 25.7593 261.329 25.7593C260.627 25.7593 259.846 25.7593 259.144 25.7593L259.222 25.2881L260.236 24.7383C260.314 22.8535 260.314 19.9477 260.314 19.1624L259.378 18.6912L259.3 18.22Z" fill="black"/>
<path d="M266.559 18.0629C266.872 17.9843 268.355 17.5917 269.603 17.5131V21.2042C269.603 23.2461 269.603 24.2671 269.603 24.6597L270.852 25.2095L270.696 25.6807C269.916 25.6807 269.213 25.6807 268.433 25.6807C267.73 25.6807 266.95 25.6807 266.247 25.6807L266.325 25.2095L267.262 24.6597C267.262 24.0315 267.262 22.6178 267.262 21.1257V18.9267L266.247 18.4555L266.559 18.0629ZM268.589 13.5864C268.901 13.665 269.447 14.3718 269.681 14.843V15.0786C269.447 15.4712 268.823 16.0995 268.511 16.3351L268.355 16.4137C267.964 16.178 267.418 15.5498 267.262 15.1571V15C267.574 14.5288 268.12 13.9791 268.433 13.7435L268.589 13.5864Z" fill="black"/>
<path d="M276.316 20.4189C276.316 18.8483 275.536 18.4556 274.755 18.4556C274.365 18.4556 274.053 18.6127 273.819 18.6912C273.741 19.398 273.584 20.3404 273.506 20.8116L273.35 20.8901C273.116 20.8116 272.179 20.0263 271.945 19.2409C272.57 18.7697 273.584 18.1415 274.443 17.8273C274.911 17.6703 275.302 17.5132 275.692 17.5132C277.878 17.5132 278.502 19.1624 278.502 20.2619C278.502 21.5184 278.502 23.0891 278.502 24.2671C278.658 24.5812 279.283 25.0524 279.829 25.2095L279.751 25.4451C279.517 25.6022 279.048 25.9163 278.346 25.9163C277.097 25.9163 276.629 25.3666 276.473 24.9739C275.614 25.6807 274.989 25.9949 274.365 25.9949C272.804 25.9949 272.023 24.7383 272.023 23.7959C272.023 23.0106 272.258 22.6179 272.804 22.3038C273.35 21.9111 275.302 21.2828 276.473 20.9687L276.316 20.4189ZM274.053 23.3247C274.053 24.3456 274.833 24.6598 275.302 24.6598C275.536 24.6598 275.848 24.5812 276.082 24.3456C276.16 24.2671 276.238 24.11 276.238 23.953V21.597C275.77 21.754 274.989 22.0682 274.599 22.3038C274.209 22.6179 274.053 22.8535 274.053 23.3247Z" fill="black"/>
</g>
<defs>
<clipPath id="clip0_33_267">
<rect width="279.75" height="30" fill="white"/>
</clipPath>
</defs>
</svg>
