<svg width="152" height="50" viewBox="0 0 152 50" fill="none" xmlns="http://www.w3.org/2000/svg">
<path d="M151.486 31.866C151.256 31.9435 151.023 32.0069 150.786 32.0558C150.414 32.1064 150.279 31.8955 150.288 31.5411C150.307 31.0411 150.273 30.5405 150.186 30.0477C150.039 30.2333 149.883 30.419 149.739 30.6088C149.503 30.921 149.284 30.9168 149.056 30.6088C148.911 30.3966 148.721 30.2194 148.499 30.0899C148.499 30.554 148.499 31.0138 148.499 31.4736C148.499 31.9335 148.351 32.0727 147.908 32.0727C147.465 32.0727 147.322 31.8829 147.33 31.461C147.352 30.5666 147.33 29.6723 147.33 28.7779C147.33 28.5585 147.419 28.2084 147.558 28.1535C147.721 28.0778 147.905 28.0608 148.079 28.1054C148.253 28.15 148.406 28.2535 148.512 28.3982C148.79 28.7779 149.056 29.1618 149.355 29.5921C149.651 29.1702 149.9 28.8032 150.174 28.4488C150.244 28.3506 150.334 28.2684 150.438 28.2078C150.542 28.1473 150.658 28.1097 150.778 28.0977C150.898 28.0857 151.019 28.0996 151.133 28.1383C151.247 28.177 151.352 28.2398 151.439 28.3223L151.486 31.866Z" fill="black"/>
<path d="M0.000693508 24.9599C0.00866857 19.993 1.49597 15.141 4.27288 11.0229C7.04979 6.9048 10.9904 3.7072 15.5922 1.83796C20.1939 -0.0312785 25.2482 -0.487415 30.1102 0.527733C34.9723 1.54288 39.4217 3.9833 42.8911 7.53769C46.3604 11.0921 48.6924 15.5994 49.5895 20.4846C50.4866 25.3698 49.9082 30.4115 47.9281 34.9666C45.9479 39.5217 42.6558 43.3838 38.4717 46.0602C34.2875 48.7365 29.401 50.1059 24.4354 49.9936C10.8976 49.7025 -0.100555 38.4766 0.000693508 24.9599ZM48.0938 24.9894C48.0922 20.4258 46.7379 15.9651 44.2022 12.1709C41.6664 8.37668 38.063 5.41915 33.8471 3.67199C29.6313 1.92482 24.9921 1.46641 20.5158 2.35468C16.0396 3.24295 11.927 5.43803 8.6977 8.6626C5.46841 11.8872 3.26733 15.9965 2.37252 20.4715C1.47772 24.9465 1.92935 29.5863 3.67036 33.8047C5.41137 38.0231 8.36363 41.6309 12.1542 44.1722C15.9447 46.7134 20.4034 48.0742 24.9669 48.0825C31.0937 48.0792 36.9691 45.6462 41.3045 41.3171C45.6399 36.988 48.0815 31.1161 48.0938 24.9894V24.9894Z" fill="black"/>
<path d="M82.1768 37.6959C83.4424 39.202 84.8936 40.3242 86.8173 40.784C89.155 41.3174 91.5682 41.4359 93.9469 41.1342C95.2885 40.9865 95.7441 41.0498 95.6597 42.6487C95.6597 42.9482 95.6597 43.2562 95.6597 43.5599C95.6597 44.3362 95.3391 44.7665 94.5671 44.8255C92.5843 44.9226 90.5973 45.0365 88.6187 44.9521C87.2918 44.8733 85.979 44.6368 84.708 44.2476C82.6999 43.6612 81.1052 42.3871 79.7342 40.8262C79.2785 40.3073 78.7681 39.8306 78.3293 39.3033C78.1913 39.1023 77.9992 38.9445 77.7752 38.8482C77.5512 38.7519 77.3045 38.721 77.0637 38.7591C76.7645 38.7782 76.4644 38.7782 76.1651 38.7591C76.1651 39.0037 76.1314 39.1809 76.1314 39.3961C76.1314 40.7967 76.1314 42.1973 76.1314 43.6148C76.1314 44.5766 75.777 44.9141 74.8109 44.9184C74.2034 44.9184 73.5959 44.9184 72.9885 44.9184C72.1658 44.9184 71.7861 44.4965 71.7861 43.6907C71.7861 38.4427 71.7861 33.196 71.7861 27.9508C71.7861 27.107 72.1616 26.7442 72.9927 26.7442C74.9459 26.7442 76.9034 26.7062 78.8567 26.7695C79.7657 26.8062 80.6674 26.9477 81.544 27.1914C82.5897 27.4507 83.5221 28.0443 84.1998 28.8818C84.8774 29.7194 85.2632 30.7552 85.2986 31.832C85.3725 32.6016 85.3598 33.377 85.2607 34.1438C85.1433 34.7943 84.8836 35.4108 84.4999 35.9491C84.1163 36.4874 83.6183 36.9341 83.0416 37.2572C82.7632 37.3753 82.4805 37.523 82.1768 37.6959ZM77.6248 35.3461V35.3166C78.0467 35.3166 78.5023 35.3461 78.9368 35.3166C80.3416 35.2027 81.2698 34.3547 81.3626 33.1313C81.4554 31.832 80.7129 30.8574 79.2532 30.6001C78.303 30.4852 77.3453 30.4443 76.3887 30.4778C76.2917 30.4778 76.1145 30.7435 76.1145 30.8996C76.0892 32.2454 76.1145 33.5954 76.1145 34.9411C76.1145 35.2407 76.2031 35.363 76.5153 35.363C76.8275 35.363 77.262 35.3461 77.6248 35.3461Z" fill="black"/>
<path d="M66.9381 35.2745C68.0076 35.6511 68.906 36.3998 69.4693 37.3838C71.0808 40.3369 69.5579 43.7119 66.2124 44.4966C65.0934 44.731 63.9552 44.8623 62.8122 44.8889C61.1458 44.9522 59.4794 44.8889 57.8088 44.8889C56.7752 44.8889 56.4082 44.5261 56.4082 43.4925V28.1111C56.4082 27.0565 56.7584 26.6979 57.7919 26.7105C59.8127 26.7358 61.8419 26.7105 63.85 26.8497C64.8848 26.9603 65.8964 27.2292 66.8495 27.6471C67.4679 27.8875 68.0049 28.2994 68.3972 28.8345C68.7896 29.3696 69.021 30.0056 69.0643 30.6677C69.2119 32.0008 69.0643 33.2748 68.1235 34.3168C67.7544 34.667 67.358 34.9872 66.9381 35.2745V35.2745ZM60.7703 41.3705C61.6689 41.3705 62.5084 41.4042 63.3437 41.3705C63.8468 41.3378 64.3433 41.2385 64.8203 41.0752C65.1915 40.9753 65.5155 40.7473 65.7347 40.4315C65.954 40.1157 66.0545 39.7325 66.0184 39.3497C66.0457 38.9494 65.932 38.5521 65.697 38.2269C65.4619 37.9017 65.1204 37.6691 64.7317 37.5695C63.4408 37.1476 62.1119 37.3712 60.7703 37.329V41.3705ZM60.7492 30.1699C60.7492 31.4903 60.7492 32.7011 60.7492 33.8781C60.7709 33.9469 60.8097 34.009 60.8622 34.0585C60.9146 34.1079 60.9789 34.1432 61.0488 34.1607C61.7726 34.1848 62.4971 34.158 63.2172 34.0806C63.6774 34.0391 64.1049 33.8252 64.4139 33.4817C64.723 33.1382 64.8907 32.6906 64.8836 32.2286C64.9073 31.9979 64.8843 31.7647 64.8159 31.5431C64.7475 31.3214 64.6351 31.1159 64.4855 30.9387C64.3358 30.7615 64.152 30.6162 63.9449 30.5117C63.7379 30.4071 63.5119 30.3454 63.2805 30.3302C62.4403 30.2303 61.5953 30.1768 60.7492 30.1699V30.1699Z" fill="black"/>
<path d="M66.8751 14.8097C68.339 15.3961 69.4063 16.2989 69.7987 17.7628C70.4905 20.3995 69.7607 23.4285 65.7445 24.1288C64.5098 24.3145 63.2637 24.4132 62.0152 24.4241C60.5682 24.4705 59.1169 24.4241 57.6699 24.4241C56.784 24.4241 56.4043 24.0529 56.4043 23.1585C56.4043 17.933 56.4043 12.706 56.4043 7.47763C56.4043 6.63389 56.8262 6.21202 57.6488 6.24577C59.6696 6.24577 61.6945 6.24577 63.7111 6.35546C65.3015 6.44827 66.816 6.8617 68.0521 8.01341C69.5962 9.44776 69.5666 13.4555 67.1578 14.6072C67.0589 14.668 66.9644 14.7356 66.8751 14.8097V14.8097ZM60.7496 21.0492C62.0574 20.9479 63.2808 20.9353 64.4915 20.7412C64.9319 20.7014 65.3391 20.4904 65.6255 20.1536C65.9118 19.8167 66.0546 19.3809 66.0229 18.9398C66.0229 17.9105 65.5504 17.2524 64.4747 17.0709C63.3234 16.9414 62.1655 16.8794 61.0069 16.8853C60.9225 16.8853 60.758 17.0667 60.7538 17.1638C60.7496 18.3956 60.7496 19.6233 60.7496 21.0492ZM60.7496 9.75151C60.7496 11.072 60.7496 12.2616 60.7496 13.4555C60.7496 13.5526 60.9225 13.734 61.0111 13.7297C61.8483 13.7458 62.6853 13.6894 63.5128 13.561C64.4831 13.3585 64.9303 12.5991 64.8839 11.5993C64.892 11.1792 64.7408 10.7716 64.4606 10.4586C64.1804 10.1455 63.792 9.95013 63.3736 9.91182C62.5383 9.75995 61.6777 9.78104 60.7496 9.73042V9.75151Z" fill="black"/>
<path d="M101.891 33.1313V33.7556C101.891 37.0293 101.891 40.3031 101.891 43.5725C101.891 44.5555 101.574 44.8761 100.596 44.8846C99.9713 44.8846 99.3301 44.8846 98.7226 44.8846C97.8789 44.8846 97.5498 44.5597 97.5498 43.7202C97.5498 38.4384 97.5498 33.1594 97.5498 27.8832C97.5498 27.0732 97.9295 26.7821 98.731 26.6978C99.4803 26.5877 100.245 26.6785 100.948 26.9609C101.651 27.2433 102.266 27.7072 102.73 28.3051C104.017 29.7985 105.498 31.119 106.886 32.5238C107.007 32.6644 107.116 32.8154 107.211 32.9752L107.354 32.8908C107.354 32.7558 107.392 32.6166 107.392 32.4689C107.392 31.0008 107.392 29.5369 107.392 28.0688C107.392 27.0015 107.683 26.7104 108.734 26.7104H110.252C111.488 26.7104 111.742 26.9635 111.742 28.1785V39.0037C111.742 40.5337 111.742 42.0679 111.742 43.6063C111.742 44.5386 111.4 44.8719 110.476 44.8719C109.902 44.8719 109.328 44.8719 108.755 44.8719C107.738 44.8719 107.417 44.5555 107.413 43.5472C107.413 41.9948 107.413 40.4423 107.413 38.9067C107.414 38.6965 107.342 38.4924 107.211 38.3287C105.523 36.6412 103.836 34.9537 102.127 33.2663C102.06 33.2199 102.009 33.203 101.891 33.1313Z" fill="black"/>
<path d="M87.6777 15.3201V7.68006C87.6777 6.59586 88.0152 6.25836 89.1037 6.27102C90.8544 6.27102 92.6136 6.2204 94.3559 6.37649C96.141 6.56108 97.8184 7.31822 99.1376 8.5348C100.457 9.75139 101.347 11.3621 101.675 13.1264C102.097 15.4804 102.059 17.8134 100.908 19.9776C100.287 21.2218 99.3485 22.2803 98.1879 23.0462C97.0272 23.812 95.6851 24.2582 94.2969 24.3397C92.4744 24.4958 90.6266 24.4241 88.7915 24.4283C88.049 24.4283 87.6862 24.0064 87.682 23.1627C87.682 21.5764 87.682 19.9944 87.682 18.4082L87.6777 15.3201ZM92.0778 20.661C92.525 20.661 92.9216 20.661 93.3434 20.661C94.2114 20.6453 95.0519 20.3546 95.7441 19.8308C96.4362 19.3069 96.9443 18.5769 97.1951 17.7459C97.7173 16.216 97.7024 14.5539 97.1529 13.0336C96.8222 12.0064 96.1198 11.1397 95.1833 10.6036C94.2468 10.0674 93.1437 9.90042 92.0905 10.1353L92.0778 20.661Z" fill="black"/>
<path d="M130.142 17.2945H124.16V17.8472C124.16 19.6528 124.16 21.4584 124.16 23.264C124.16 24.1077 123.852 24.4241 123.008 24.4326C122.333 24.4326 121.658 24.4326 120.988 24.4326C120.173 24.4326 119.84 24.0993 119.836 23.302V7.41013C119.836 6.60436 120.178 6.27108 120.975 6.26686C121.667 6.26686 122.359 6.26686 123.051 6.26686C123.831 6.26686 124.16 6.60014 124.16 7.37638C124.16 9.26636 124.16 11.1732 124.16 13.0421C124.16 13.464 124.278 13.561 124.675 13.5526C126.324 13.5526 127.978 13.5526 129.628 13.5526C130.049 13.5526 130.163 13.4091 130.159 13.0041C130.138 11.1816 130.159 9.35917 130.159 7.51982C130.159 6.51155 130.429 6.25421 131.454 6.25421C132.095 6.25421 132.72 6.25421 133.378 6.25421C133.526 6.23765 133.677 6.25457 133.818 6.30371C133.959 6.35285 134.087 6.43298 134.193 6.53819C134.299 6.6434 134.38 6.77103 134.43 6.9117C134.481 7.05237 134.499 7.2025 134.483 7.35107C134.483 12.661 134.483 17.9737 134.483 23.2893C134.505 23.4404 134.491 23.5944 134.444 23.7396C134.397 23.8848 134.317 24.0172 134.211 24.1267C134.105 24.2363 133.975 24.3201 133.831 24.3716C133.687 24.4232 133.534 24.4411 133.382 24.4241C132.64 24.4452 131.897 24.4452 131.159 24.4241C131.018 24.4406 130.876 24.4245 130.743 24.377C130.61 24.3295 130.489 24.252 130.391 24.1503C130.292 24.0487 130.219 23.9258 130.176 23.7911C130.133 23.6564 130.121 23.5135 130.142 23.3737C130.142 21.5723 130.142 19.7667 130.142 17.9611V17.2945Z" fill="black"/>
<path d="M103.748 15.3074C103.748 12.7762 103.748 10.245 103.748 7.71374C103.748 6.59156 104.073 6.25407 105.182 6.26672C106.916 6.26672 108.663 6.21188 110.384 6.36375C112.194 6.54289 113.895 7.3096 115.229 8.54674C116.562 9.78388 117.453 11.4234 117.767 13.2149C118.189 15.628 118.1 18.0074 116.856 20.1884C116.212 21.3839 115.272 22.3936 114.125 23.1206C112.978 23.8476 111.664 24.2674 110.308 24.3396C108.515 24.4831 106.705 24.4198 104.904 24.424C104.14 24.424 103.752 24.0021 103.748 23.2006C103.748 21.2768 103.748 19.3531 103.748 17.4294V15.3074ZM108.131 10.1226V20.6694C108.595 20.6694 109.034 20.6989 109.464 20.6694C111.228 20.5217 112.527 19.678 113.16 17.9905C113.496 17.1301 113.658 16.2114 113.635 15.2879C113.613 14.3644 113.407 13.4547 113.029 12.6116C112.627 11.694 111.919 10.9443 111.026 10.4904C110.133 10.0365 109.11 9.90652 108.131 10.1226V10.1226Z" fill="black"/>
<path d="M114.268 35.8147V28.1071C114.268 27.0524 114.61 26.7107 115.652 26.7107C117.137 26.7107 118.605 26.6854 120.103 26.7107C122.208 26.7524 124.223 27.5728 125.759 29.0135C127.295 30.4541 128.242 32.4128 128.418 34.5111C128.651 36.2046 128.467 37.9292 127.882 39.5356C126.587 42.746 124.136 44.4967 120.71 44.7963C118.985 44.9439 117.243 44.8764 115.509 44.8806C114.64 44.8806 114.243 44.4588 114.243 43.5897C114.257 40.9966 114.266 38.4049 114.268 35.8147ZM118.618 41.1176C119.103 41.1176 119.504 41.1176 119.905 41.1176C120.787 41.0989 121.641 40.7991 122.341 40.2619C123.041 39.7248 123.552 38.9782 123.799 38.1307C124.107 37.1119 124.198 36.04 124.069 34.9836C123.845 32.195 121.959 30.4864 119.217 30.4738C118.715 30.4738 118.605 30.6341 118.605 31.1066C118.626 34.2411 118.605 37.3756 118.605 40.5101L118.618 41.1176Z" fill="black"/>
<path d="M71.6598 13.1264C71.6598 11.2407 71.6598 9.35071 71.6598 7.46074C71.6598 6.617 72.0226 6.27106 72.8663 6.26685H74.7858C75.6296 6.26685 75.9924 6.63387 75.9966 7.46917C75.9966 10.8441 75.9966 14.2486 75.9966 17.6405C76.0153 18.2941 76.1481 18.9394 76.3889 19.5473C76.7138 20.391 77.4394 20.7201 78.3253 20.7496C79.2787 20.7834 80.1098 20.5092 80.4895 19.5937C80.7557 18.9408 80.8988 18.2442 80.9114 17.5392C80.9536 14.2528 80.9114 10.9623 80.9114 7.67589C80.9114 6.56215 81.2067 6.26685 82.3162 6.26685H84.0374C84.8812 6.26685 85.2566 6.64231 85.2608 7.50714C85.2608 8.77275 85.2608 10.0046 85.2608 11.2533C85.2608 13.5272 85.2862 15.8053 85.2608 18.0834C85.247 18.8736 85.1565 19.6605 84.9908 20.4332C84.825 21.3888 84.3733 22.2716 83.6955 22.9653C83.0177 23.6589 82.1455 24.1308 81.194 24.3186C79.372 24.7785 77.4643 24.7785 75.6422 24.3186C73.3557 23.7491 71.9804 22.1502 71.7652 19.6486C71.6176 17.9062 71.6724 16.147 71.6387 14.3963C71.6513 13.9702 71.6598 13.5483 71.6598 13.1264Z" fill="black"/>
<path d="M136.382 26.4197C137.656 26.4598 138.911 26.7329 140.086 27.2254C140.851 27.558 141.518 28.0821 142.021 28.7472C142.524 29.4123 142.847 30.1958 142.959 31.0223C143.111 31.8955 142.862 32.2499 142.002 32.4144C141.259 32.5537 140.513 32.6718 139.762 32.7773C139.31 32.8405 139.049 32.6718 138.977 32.1655C138.694 30.1743 136.197 29.7904 135.028 30.554C134.816 30.6891 134.641 30.8749 134.519 31.0947C134.397 31.3145 134.332 31.5613 134.329 31.8127C134.327 32.0641 134.387 32.3122 134.505 32.5344C134.622 32.7566 134.794 32.9459 135.003 33.0852C135.587 33.42 136.2 33.7024 136.834 33.929C138.015 34.4141 139.251 34.7727 140.378 35.3718C142.757 36.6374 143.512 38.9112 142.972 41.3243C142.83 42.0327 142.505 42.6916 142.03 43.2361C141.555 43.7806 140.946 44.1919 140.264 44.4293C138.108 45.2729 135.733 45.3738 133.514 44.7162C131.497 44.1129 130.312 42.6785 129.928 40.6072C129.789 39.8647 130.033 39.5272 130.772 39.3795C131.51 39.2319 132.193 39.1137 132.91 39.0083C133.628 38.9028 133.775 39.0589 133.898 39.7254C133.962 40.0603 134.113 40.3727 134.335 40.6316C134.557 40.8905 134.842 41.0871 135.163 41.202C135.936 41.5181 136.796 41.548 137.589 41.2864C137.911 41.201 138.196 41.0148 138.404 40.7551C138.612 40.4955 138.732 40.176 138.745 39.8436C138.796 39.5291 138.735 39.2065 138.573 38.9326C138.41 38.6587 138.156 38.4509 137.855 38.3459C137.011 37.9831 136.121 37.7173 135.252 37.4052C134.539 37.1478 133.809 36.9369 133.121 36.6289C130.7 35.5405 129.848 33.794 129.991 31.4906C130.052 30.3941 130.466 29.3467 131.171 28.5044C131.875 27.6621 132.833 27.07 133.902 26.8162C134.721 26.6414 135.549 26.5091 136.382 26.4197V26.4197Z" fill="black"/>
<path d="M145.15 21.2346H140.981C140.832 21.8927 140.685 22.5466 140.538 23.1963C140.332 24.137 139.961 24.4324 138.994 24.4324C138.303 24.4324 137.611 24.4324 136.923 24.4324C136.235 24.4324 135.873 24.0105 136.079 23.306C137.606 17.9623 139.139 12.6256 140.678 7.29601C140.739 6.9868 140.914 6.71164 141.167 6.52437C141.421 6.3371 141.735 6.25122 142.049 6.28352C142.741 6.28352 143.433 6.28352 144.124 6.28352C145.01 6.28352 145.39 6.55774 145.618 7.40569C146.993 12.1869 148.37 16.9681 149.748 21.7493L150.17 23.2047C150.41 24.0485 150.136 24.4324 149.267 24.4366H147.191C146.825 24.4736 146.458 24.366 146.17 24.1367C145.881 23.9074 145.694 23.5745 145.647 23.2089C145.5 22.5846 145.365 21.9433 145.225 21.3358C145.213 21.3063 145.183 21.281 145.15 21.2346ZM143.133 12.0125H143.002L141.618 18.2857H144.55C144.07 16.1595 143.601 14.0881 143.133 12.0125V12.0125Z" fill="black"/>
<path d="M94.5002 39.3752H94.0784C93.0363 39.3752 92.7495 39.1896 92.5343 38.1729C92.5298 38.0644 92.5009 37.9583 92.4499 37.8625C92.3988 37.7666 92.327 37.6834 92.2395 37.6191C92.1521 37.5547 92.0513 37.5108 91.9446 37.4905C91.8379 37.4703 91.728 37.4742 91.6231 37.5021C90.8826 37.5443 90.1403 37.5443 89.3998 37.5021C88.978 37.5021 88.7713 37.5992 88.7291 38.0295C88.7039 38.2284 88.6514 38.4229 88.573 38.6074C88.5004 38.8358 88.3561 39.0346 88.1616 39.1744C87.967 39.3143 87.7325 39.3877 87.493 39.3837C87.0247 39.3837 86.5522 39.3837 86.0797 39.3837C85.2824 39.3837 85.0166 39.0335 85.236 38.2573C85.7043 36.6415 86.1852 35.03 86.6619 33.4184L88.2819 27.9341C88.5645 26.9849 88.9358 26.7107 89.9229 26.7107C90.4123 26.7107 90.8975 26.7107 91.3868 26.7107C92.2517 26.7107 92.6524 27.0018 92.8929 27.8371C93.7704 30.7845 94.6451 33.7376 95.5169 36.6963C95.6646 37.1942 95.8165 37.6962 95.9599 38.1982C96.1962 39.0419 95.9304 39.3752 95.0782 39.3794L94.5002 39.3752ZM90.7034 30.8619H90.5895C90.2436 32.195 89.8934 33.5281 89.5433 34.8823H91.7032L90.7034 30.8619Z" fill="black"/>
<path d="M146.035 29.1237C146.035 29.9337 146.035 30.6888 146.035 31.4398C146.035 31.8616 145.913 32.0768 145.432 32.0726C144.951 32.0684 144.879 31.8321 144.883 31.4398C144.883 30.6888 144.883 29.9337 144.883 29.1364C144.698 29.1364 144.554 29.0942 144.411 29.0942C144.057 29.0942 143.896 28.9254 143.9 28.5584C143.905 28.1914 144.099 28.1028 144.415 28.1028C145.107 28.1028 145.795 28.1028 146.482 28.1028C146.807 28.1028 146.997 28.204 147.005 28.5542C147.014 28.9043 146.866 29.0942 146.503 29.0942C146.389 29.0942 146.246 29.1111 146.035 29.1237Z" fill="black"/>
<path d="M29.9114 36.9703C28.9393 36.8858 28.0025 36.5658 27.1819 36.038C26.5256 35.5996 25.7541 35.3656 24.9649 35.3656C24.1757 35.3656 23.4043 35.5996 22.748 36.038C21.834 36.6245 20.7752 36.9461 19.6893 36.967C18.6034 36.9878 17.5331 36.7071 16.5972 36.1561C15.9264 35.7975 15.7155 35.2449 16.0065 34.7049C16.2976 34.1649 16.8714 34.0426 17.5379 34.4138C18.1825 34.8045 18.9254 35.0026 19.6789 34.9847C20.4325 34.9668 21.1651 34.7335 21.7904 34.3125C22.7292 33.6959 23.8268 33.3649 24.95 33.3597C26.0732 33.3544 27.1739 33.6752 28.1184 34.283C29.6076 35.1605 31.0715 35.2364 32.5607 34.359C32.6721 34.2817 32.7982 34.2284 32.9312 34.2022C33.0642 34.1761 33.2011 34.1777 33.3335 34.207C33.4658 34.2363 33.5906 34.2927 33.7001 34.3726C33.8096 34.4524 33.9014 34.5541 33.9697 34.6711C34.0363 34.7896 34.0781 34.9203 34.0929 35.0554C34.1076 35.1904 34.0949 35.3271 34.0555 35.4571C34.0161 35.5872 33.9508 35.7079 33.8636 35.812C33.7764 35.9162 33.669 36.0017 33.5479 36.0633C32.45 36.7135 31.186 37.0288 29.9114 36.9703Z" fill="black"/>
<path d="M16.8761 18.9398C15.3124 18.9559 13.8013 19.5067 12.5941 20.5007C11.8938 21.0618 11.3285 21.104 10.9066 20.6189C10.4847 20.1337 10.6197 19.5515 11.3496 18.9567C12.966 17.6541 14.9832 16.9505 17.0591 16.9651C19.1351 16.9797 21.1421 17.7116 22.7401 19.0368C22.9362 19.1788 23.0895 19.3719 23.1832 19.5952C23.277 19.8184 23.3076 20.063 23.2716 20.3025C23.0522 22.0406 22.8497 23.7829 22.643 25.521C22.6305 25.6517 22.591 25.7784 22.5271 25.8931C22.4631 26.0078 22.376 26.108 22.2713 26.1873C22.1666 26.2666 22.0466 26.3233 21.9189 26.3538C21.7912 26.3844 21.6585 26.3881 21.5293 26.3647C21.3939 26.3489 21.2632 26.305 21.1458 26.2358C21.0283 26.1666 20.9266 26.0736 20.8471 25.9628C20.7677 25.852 20.7123 25.7258 20.6845 25.5923C20.6567 25.4588 20.657 25.321 20.6856 25.1877C20.8501 23.766 21.0062 22.3401 21.2045 20.9226C21.2429 20.7508 21.2222 20.571 21.1456 20.4125C21.069 20.254 20.9411 20.126 20.7826 20.0493C19.6215 19.2954 18.2601 18.9087 16.8761 18.9398Z" fill="black"/>
<path d="M32.9735 16.9737C35.086 16.9548 37.1353 17.6943 38.7489 19.0578C39.3395 19.5429 39.445 20.1589 39.0569 20.6314C38.8409 20.8315 38.5556 20.9399 38.2611 20.9336C37.9667 20.9273 37.6863 20.8068 37.4791 20.5976C36.3515 19.6295 34.9419 19.0505 33.4594 18.9464C31.9769 18.8423 30.5002 19.2186 29.2484 20.0196C29.064 20.112 28.9162 20.2639 28.8289 20.4507C28.7416 20.6375 28.72 20.8483 28.7675 21.049C28.9615 22.4159 29.1092 23.7912 29.2611 25.1622C29.337 25.8541 29.0079 26.3139 28.4173 26.3772C27.8267 26.4405 27.4217 26.1114 27.3289 25.4154C27.1095 23.6773 26.907 21.9349 26.6961 20.1968C26.6676 19.9873 26.697 19.7739 26.781 19.5799C26.8651 19.3858 27.0005 19.2184 27.1728 19.0957C28.7873 17.7121 30.8473 16.9585 32.9735 16.9737Z" fill="black"/>
<path d="M25.0042 31.4945C23.7935 31.4945 22.5785 31.4945 21.3635 31.4945C19.8194 31.4945 18.6846 30.6001 18.4104 29.1869C18.3453 28.859 18.3612 28.5201 18.4568 28.1997C18.5227 28.0035 18.6584 27.8384 18.838 27.7357C19.0177 27.6331 19.2289 27.6 19.4313 27.6428C19.6439 27.6558 19.8456 27.7411 20.003 27.8846C20.1603 28.0282 20.2638 28.2212 20.2962 28.4317C20.5366 29.4189 20.6843 29.5413 21.6925 29.5413H28.4425C29.3199 29.5413 29.5604 29.3303 29.7081 28.4613C29.7417 28.2048 29.8756 27.9721 30.0803 27.8139C30.285 27.6558 30.5441 27.5852 30.8007 27.6175C31.0516 27.6591 31.2775 27.7939 31.4332 27.9949C31.5888 28.196 31.6628 28.4485 31.6402 28.7017C31.6271 29.3894 31.3621 30.0484 30.8956 30.5537C30.4291 31.0591 29.7934 31.3759 29.109 31.4439C27.7464 31.5198 26.3795 31.4439 25.0127 31.4439L25.0042 31.4945Z" fill="black"/>
<path d="M16.973 14.1769C15.3486 14.227 13.7519 14.6104 12.2818 15.3033C11.9541 15.4577 11.5795 15.4803 11.2356 15.3665C11.0921 15.2713 10.9702 15.147 10.8779 15.0017C10.7856 14.8563 10.7249 14.6931 10.6998 14.5228C10.6801 14.3276 10.7258 14.1314 10.8296 13.965C10.9334 13.7985 11.0896 13.6713 11.2735 13.6031C12.5313 12.9468 13.8953 12.5183 15.3024 12.3375C17.776 11.9984 20.2944 12.4176 22.5248 13.5398C22.8413 13.7093 23.0955 13.9753 23.2504 14.2992C23.3206 14.4749 23.3273 14.6695 23.2696 14.8497C23.2119 15.0298 23.0932 15.1842 22.934 15.2864C22.768 15.4025 22.5735 15.4713 22.3714 15.4854C22.1692 15.4995 21.9671 15.4584 21.7865 15.3665C20.8247 15.0206 19.8628 14.662 18.8756 14.4005C18.2482 14.2767 17.612 14.202 16.973 14.1769V14.1769Z" fill="black"/>
<path d="M32.7626 12.2446C34.7735 12.2142 36.7624 12.6655 38.5633 13.5608C38.8612 13.7274 39.0967 13.9866 39.2341 14.2991C39.2997 14.4759 39.3043 14.6697 39.2469 14.8494C39.1895 15.0291 39.0736 15.1844 38.9177 15.2905C38.7649 15.4121 38.5794 15.4855 38.3848 15.5013C38.1902 15.517 37.9953 15.4745 37.825 15.3791C36.7404 14.8318 35.5731 14.4669 34.3699 14.2991C32.2807 14.0331 30.1593 14.382 28.2654 15.3032C27.975 15.4609 27.6343 15.4988 27.3162 15.4086C27.0082 15.229 26.7837 14.9348 26.6919 14.5902C26.6578 14.3879 26.6957 14.18 26.799 14.0028C26.9023 13.8255 27.0644 13.69 27.2572 13.6199C28.5737 12.9425 30.0038 12.5135 31.4759 12.3543C31.9948 12.2868 32.4841 12.2657 32.7626 12.2446Z" fill="black"/>
<path d="M25.0303 38.8687H28.6162C29.346 38.8687 29.7637 39.2357 29.7637 39.8516C29.7637 40.4675 29.3418 40.843 28.6204 40.843C26.2129 40.843 23.8026 40.843 21.3896 40.843C20.6555 40.843 20.2336 40.4886 20.221 39.8811C20.2083 39.2736 20.6428 38.8729 21.3896 38.8687H25.0303Z" fill="black"/>
<path d="M26.204 10.3883C26.2057 10.5478 26.1755 10.706 26.1153 10.8537C26.055 11.0013 25.9659 11.1355 25.8532 11.2482C25.7404 11.361 25.6062 11.4501 25.4586 11.5104C25.3109 11.5706 25.1527 11.6008 24.9932 11.5991C24.6755 11.603 24.3692 11.4805 24.1417 11.2586C23.9143 11.0367 23.7843 10.7335 23.7804 10.4157C23.7764 10.098 23.8989 9.79169 24.1208 9.56423C24.3428 9.33677 24.6459 9.20679 24.9637 9.20287C25.1232 9.19838 25.282 9.22558 25.4309 9.28288C25.5799 9.34019 25.7159 9.42646 25.8313 9.53672C25.9466 9.64697 26.039 9.779 26.103 9.92518C26.1669 10.0714 26.2013 10.2288 26.204 10.3883V10.3883Z" fill="black"/>
</svg>
