<svg width="67" height="51" viewBox="0 0 67 51" fill="none" xmlns="http://www.w3.org/2000/svg">
<g clip-path="url(#clip0_33_200)">
<path d="M24.9028 0.186523H17.748V50.1865H24.9028V0.186523Z" fill="black"/>
<path d="M66.432 0.186523H48.4414V6.20312H53.9889V50.1865H60.9363V6.20312H66.432V0.186523Z" fill="black"/>
<path d="M15.1041 0.186523H0.431641V50.1865H7.37901V27.5205H13.2895V21.5558H7.37901V6.20312H15.1041V0.186523Z" fill="black"/>
<path d="M43.3082 0.186523H28.6357V50.1865H34.8573V27.5205H42.4786C42.686 31.2031 42.7897 34.9894 42.7897 38.7757C42.7897 40.6948 42.8416 42.6139 42.8416 44.4811C42.8416 46.4002 42.8416 48.2674 42.8416 50.1865H49.3223C49.3223 49.0973 49.3223 48.0081 49.3223 46.9189C49.3223 45.8297 49.3223 44.7405 49.3223 43.5994C49.3223 41.421 49.2705 39.1907 49.2705 36.9604C49.2186 34.7301 49.1668 32.5517 49.1149 30.3214C49.0112 28.143 48.9075 25.9127 48.752 23.7861C48.5965 21.6077 48.3891 19.4811 48.1298 17.4064C47.8706 15.3318 47.5077 13.2571 47.0929 11.2861C46.6782 9.31515 46.1597 7.3442 45.5375 5.47698C44.9154 3.66163 44.1895 1.89814 43.3082 0.186523ZM34.8573 21.5558V6.20312H38.9013C40.5603 10.5081 41.4936 15.7986 42.0639 21.5558H34.8573Z" fill="black"/>
</g>
<defs>
<clipPath id="clip0_33_200">
<rect width="66" height="50" fill="white" transform="translate(0.431641 0.186523)"/>
</clipPath>
</defs>
</svg>
