<svg width="157" height="60" viewBox="0 0 157 60" fill="none" xmlns="http://www.w3.org/2000/svg">
<path fill-rule="evenodd" clip-rule="evenodd" d="M44.5403 25.2756C45.4019 26.9112 46.5539 28.3764 47.9402 29.5995C49.1672 30.5885 51.8351 32.5195 51.8351 32.5195C51.8351 32.5195 49.1502 37.0224 47.7422 38.9824C46.7192 40.4093 42.8863 45.1852 40.9193 47.2822C38.9524 49.3792 35.4264 52.5591 33.5114 54.2171C31.7202 55.7738 26.643 59.4774 25.9807 59.9605L25.9266 60H25.9086C25.5596 59.748 20.1747 55.8301 18.3237 54.2171C16.4097 52.5451 12.8828 49.3742 10.9158 47.2822C8.94885 45.1903 5.12591 40.4023 4.09293 38.9824C2.68496 37.0194 0 32.5195 0 32.5195C0 32.5195 2.66796 30.5885 3.89994 29.5995C5.28591 28.3773 6.43798 26.9132 7.29988 25.2786C7.89291 23.7688 8.3344 22.2038 8.61786 20.6067C7.67546 19.9767 6.78102 19.2778 5.9419 18.5157C4.9934 17.569 4.13163 16.5392 3.36694 15.4387C3.36694 15.4387 6.53889 15.0478 8.82385 14.6938C10.3596 14.4718 11.8391 13.9601 13.1838 13.1858C12.9838 12.4288 12.8999 11.6459 12.9348 10.8638C12.9313 9.39029 13.1834 7.92731 13.6798 6.53989C14.3351 4.53408 15.5161 2.74056 17.0997 1.34598C17.806 0.740548 18.6265 0.28287 19.5127 0C19.5127 0 20.2717 1.66597 20.8437 2.68196C21.4237 3.76569 22.2226 4.7171 23.1896 5.47591C24.0116 6.04937 24.9365 6.45885 25.9136 6.68189C26.8889 6.45164 27.8131 6.04275 28.6395 5.47591C29.6079 4.71848 30.407 3.76676 30.9855 2.68196C31.5675 1.66597 32.3215 0 32.3215 0C33.2083 0.282352 34.0295 0.739696 34.7364 1.34498C36.3177 2.74086 37.497 4.53406 38.1524 6.53889C38.6497 7.92606 38.9018 9.3892 38.8974 10.8628C38.9341 11.6419 38.8528 12.422 38.6564 13.1768C40.0007 13.9518 41.4804 14.4636 43.0163 14.6848C45.3022 15.0398 48.4752 15.4297 48.4752 15.4297C47.7138 16.533 46.8514 17.5631 45.8992 18.5067C45.0592 19.2696 44.1638 19.9692 43.2203 20.5997C43.5033 22.1984 43.9455 23.7648 44.5403 25.2756ZM12.2278 16.0907C10.6945 16.4454 9.1363 16.6824 7.56687 16.7997L7.56187 16.8077C8.28763 17.3802 9.06611 17.8824 9.88684 18.3077C10.8524 18.8056 13.0975 19.6766 14.8855 20.3703C15.5253 20.6185 16.1065 20.8441 16.5497 21.0217C17.9905 21.5913 19.3732 22.2982 20.6787 23.1326C21.9555 23.9362 23.16 24.8493 24.2786 25.8616C24.876 26.4626 25.4269 27.1081 25.9266 27.7925C26.4246 27.1096 26.9749 26.4663 27.5725 25.8686C28.6913 24.8565 29.8958 23.9434 31.1725 23.1396C32.4781 22.3055 33.8608 21.5986 35.3014 21.0287C35.7425 20.852 36.3185 20.6283 36.9522 20.3823C38.7433 19.6869 40.9952 18.8125 41.9643 18.3147C42.7846 17.8872 43.5621 17.3822 44.2863 16.8067C42.7171 16.6899 41.1592 16.4529 39.6263 16.0977C38.5627 15.7777 37.5481 15.3127 36.6114 14.7158C35.7384 16.0619 34.7418 17.3237 33.6344 18.4847C32.7007 19.3871 31.6801 20.195 30.5875 20.8967C30.5875 20.8967 33.2274 17.9207 33.9724 16.7507C34.6046 15.7751 35.1331 14.7362 35.5494 13.6508C35.9323 12.7078 36.1882 11.7182 36.3104 10.7078C36.3869 9.83463 36.3275 8.95486 36.1344 8.09987C35.9035 6.99207 35.4772 5.93424 34.8754 4.97592C34.5828 4.47068 34.1768 4.04036 33.6894 3.71894C33.3936 4.24777 33.0559 4.75204 32.6795 5.22691C32.2159 5.76746 31.7121 6.27222 31.1725 6.73689C31.5225 7.17919 31.8199 7.66076 32.0585 8.17186C32.3958 9.02717 32.5174 9.95239 32.4125 10.8658C32.3177 11.5781 32.1501 12.2787 31.9125 12.9568C31.349 12.7456 30.8086 12.4775 30.2995 12.1568C29.548 11.6888 28.8284 11.1713 28.1455 10.6078C26.9756 9.66884 25.9306 8.74585 25.9306 8.74585C25.9306 8.74585 24.8746 9.66084 23.7126 10.5998C23.031 11.1667 22.3125 11.6875 21.5616 12.1588C21.0528 12.4794 20.5127 12.7474 19.9497 12.9588C19.7124 12.2806 19.5449 11.58 19.4497 10.8678C19.3425 9.95275 19.4627 9.02535 19.7997 8.16786C20.0367 7.65742 20.3327 7.17649 20.6817 6.73489C20.1419 6.27072 19.6378 5.76664 19.1737 5.22691C18.7973 4.75204 18.4595 4.24777 18.1637 3.71894C17.6758 4.0398 17.2697 4.47024 16.9777 4.97592C16.3759 5.93424 15.9496 6.99207 15.7187 8.09987C15.5251 8.95342 15.4647 9.8318 15.5397 10.7038C15.6632 11.7135 15.9208 12.7022 16.3057 13.6438C16.722 14.7292 17.2505 15.7681 17.8827 16.7437C18.6277 17.9137 21.2676 20.8897 21.2676 20.8897C20.1749 20.1878 19.154 19.3799 18.2197 18.4777C17.1106 17.3182 16.1138 16.0562 15.2427 14.7088C14.3062 15.3061 13.2916 15.7711 12.2278 16.0907ZM31.9885 36.7254C31.6551 37.3606 31.2879 37.9775 30.8885 38.5734C30.4765 39.1213 29.5705 40.1113 29.5705 40.1113L29.6825 36.0414C29.6825 36.0414 32.5275 35.5364 33.9714 35.0844C35.2114 34.6954 36.5414 34.1634 36.5414 34.1634C36.5414 34.1634 36.8254 33.2064 37.1084 31.6825C37.4169 29.795 37.5943 27.8885 37.6394 25.9766C37.7464 23.5316 37.7104 21.2626 37.7104 21.2626C37.7104 21.2626 35.2984 22.2026 34.0924 22.7516C33.0304 23.2253 32.02 23.8074 31.0775 24.4886C30.0116 25.2339 28.9991 26.0529 28.0475 26.9396C27.4215 27.5112 26.8339 28.1235 26.2886 28.7725L26.3066 31.5295C26.3066 31.5295 27.2675 31.4335 28.1845 31.2825C28.7763 31.1577 29.3571 30.9859 29.9215 30.7685V29.6515L30.8605 28.9615C31.2685 28.6605 31.9605 28.1825 31.9605 28.1825C31.9605 28.1825 32.4035 27.5995 32.5275 27.4035C32.6515 27.2075 33.2754 26.0926 33.5194 25.6306C33.7634 25.1686 34.4194 23.7956 34.4194 23.7956C34.4194 23.7956 33.8874 25.3976 33.7274 25.9666C33.5674 26.5356 33.2494 27.3855 33.2494 27.3855C33.2494 27.3855 33.5874 27.1735 33.9054 27.0135C34.2234 26.8536 34.6324 26.6596 34.6324 26.6596C34.6298 27.2088 34.5627 27.7559 34.4324 28.2895C34.2674 28.8478 34.0226 29.3793 33.7054 29.8675C33.4333 30.1929 33.1173 30.479 32.7665 30.7175C32.3679 30.9672 31.9541 31.1916 31.5275 31.3895C31.5275 31.3895 30.4285 33.3864 30.0745 33.9234C29.7205 34.4604 29.0105 35.3604 29.0105 35.3604C29.0105 35.3604 29.4715 34.2784 29.7555 33.5874C30.0395 32.8965 30.5185 31.7615 30.5185 31.7615C30.5185 31.7615 29.2945 32.0835 28.1425 32.2615C27.5267 32.3611 26.9057 32.4256 26.2826 32.4545V47.0762C27.466 46.3661 28.5915 45.5636 29.6485 44.6763C31.0046 43.4627 32.2069 42.0874 33.2284 40.5813C34.3178 38.964 35.244 37.2426 35.9934 35.4424C35.3559 35.7313 34.6986 35.9743 34.0264 36.1694C33.2114 36.3814 31.9885 36.7254 31.9885 36.7254ZM18.7497 33.9474C18.3299 32.3525 18.069 30.7199 17.9707 29.0735L17.9697 29.0775C17.8627 27.7135 17.7567 26.4276 17.7567 26.4276C17.7567 26.4276 18.8467 27.0815 19.8827 27.8445C20.6091 28.3935 21.307 28.9793 21.9736 29.5995L22.0786 30.7575C22.6062 30.9648 23.1479 31.1342 23.6996 31.2645C24.32 31.3885 24.947 31.477 25.5776 31.5295L25.5236 28.7825C24.8635 27.8291 24.0632 26.9808 23.1496 26.2666C21.6432 24.9639 19.9702 23.8673 18.1747 23.0056C16.1017 21.9956 14.3638 21.3756 14.3638 21.3756C14.3638 21.3756 14.3408 24.1756 14.4708 26.8516C14.4878 28.7487 14.6516 30.6416 14.9608 32.5135C15.4217 34.7143 16.2746 36.8144 17.4787 38.7134C18.6696 40.6986 20.1107 42.5225 21.7666 44.1403C22.9463 45.2075 24.2063 46.1823 25.5356 47.0562C25.5356 47.0562 25.5536 41.5563 25.5536 39.3563V32.4455C24.6118 32.3237 23.6772 32.1522 22.7536 31.9315C21.3577 31.5495 20.0041 31.0268 18.7137 30.3715C18.7137 30.3715 18.9007 31.6775 19.0847 32.6225C19.2622 33.4711 19.5176 34.3016 19.8477 35.1034C20.2748 35.2997 20.7128 35.4713 21.1596 35.6174C21.6906 35.7954 22.1696 35.9894 22.1696 35.9894L22.2586 40.0823C21.6781 39.3771 21.1338 38.6428 20.6277 37.8824C19.7965 36.6789 19.1625 35.3506 18.7497 33.9474ZM41.0093 43.8013C42.3943 42.2433 43.7203 40.6103 45.2092 38.6254L45.2122 38.6334C46.6982 36.6494 48.8982 33.3174 48.8982 33.3174C47.2786 32.2022 45.7716 30.9319 44.3983 29.5245C43.1565 28.0471 42.2497 26.3181 41.7403 24.4566C41.3006 23.044 41.0649 21.5759 41.0403 20.0967C41.0403 20.0967 40.4153 20.3077 39.6703 20.5697C38.9254 20.8317 38.5484 20.9827 38.5484 20.9827C38.5484 20.9827 38.6184 22.3686 38.5654 23.9976C38.5549 24.3189 38.5452 24.6995 38.5344 25.1214C38.4906 26.839 38.4293 29.242 38.2294 31.1205C38.039 33.0635 37.5115 34.9585 36.6704 36.7204C35.2348 39.6902 33.3188 42.4027 30.9995 44.7483C29.5427 46.2774 27.813 47.5211 25.8996 48.4152C24.0083 47.5115 22.2987 46.2686 20.8557 44.7483C18.5364 42.4027 16.6203 39.6902 15.1847 36.7204C14.3436 34.9585 13.8161 33.0635 13.6258 31.1205C13.425 29.2343 13.3627 26.8201 13.3183 25.0997C13.3077 24.6867 13.298 24.3137 13.2878 23.9976C13.2348 22.3646 13.3058 20.9827 13.3058 20.9827C13.3058 20.9827 12.9278 20.8297 12.1838 20.5697C11.4398 20.3097 10.8138 20.0967 10.8138 20.0967C10.7884 21.5758 10.5527 23.0438 10.1138 24.4566C9.60516 26.3184 8.69828 28.0475 7.45588 29.5245C6.0812 30.9304 4.57426 32.2006 2.95595 33.3174C2.95595 33.3174 5.15091 36.6474 6.63689 38.6334C8.12286 40.6193 9.44984 42.2583 10.8368 43.8093C12.1848 45.3152 14.0268 47.1752 14.0268 47.1752C14.0268 47.1752 14.8908 45.8872 15.4497 45.1432C16.0087 44.3993 17.2497 43.0173 17.2497 43.0173C17.0667 43.4889 16.9089 43.9699 16.7767 44.4583C16.5597 45.2622 16.3247 46.0882 16.3247 46.0882C16.3247 46.0882 18.4327 48.1482 19.5317 49.1242C20.6307 50.1002 22.1726 51.4461 22.1726 51.4461C22.1726 51.4461 21.7656 51.7681 21.1266 52.2271C20.4877 52.6861 20.1877 52.8991 20.1877 52.8991C20.1877 52.8991 21.0847 53.7171 21.8296 54.3181C22.5746 54.9191 24.3296 56.1071 24.3296 56.1071L25.9296 55.0261L27.5155 56.0991C27.5155 56.0991 29.2665 54.9131 30.0155 54.3101C30.7645 53.7071 31.6645 52.8911 31.6645 52.8911C31.6645 52.8911 31.3645 52.6801 30.7255 52.2191C30.0865 51.7581 29.6795 51.4381 29.6795 51.4381C29.6795 51.4381 31.2245 50.0902 32.3205 49.1162C33.4164 48.1422 35.5274 46.0802 35.5274 46.0802C35.5274 46.0802 35.2914 45.2532 35.0674 44.4503C34.8434 43.6473 34.5944 43.0093 34.5944 43.0093C34.5944 43.0093 35.8374 44.3903 36.3944 45.1353C36.9514 45.8802 37.8194 47.1672 37.8194 47.1672C37.8194 47.1672 39.6613 45.3092 41.0093 43.8013ZM32.6352 28.284C32.6341 28.2829 32.633 28.282 32.6319 28.2814V28.2864C32.633 28.2856 32.6341 28.2848 32.6352 28.284ZM32.6352 28.284C32.6941 28.3422 32.7767 28.9976 32.4509 29.2253C32.3784 29.2854 32.2941 29.3298 32.2036 29.3556C32.113 29.3814 32.018 29.388 31.9247 29.3751C31.8314 29.3623 31.7418 29.3301 31.6616 29.2807C31.5815 29.2314 31.5124 29.1658 31.4589 29.0883C31.0069 29.4143 30.6709 29.6623 30.6709 29.6623V30.9753C31.3718 30.8017 32.0332 30.4962 32.6199 30.0753C33.2671 29.411 33.6766 28.5515 33.7848 27.6304C33.3806 27.8091 32.9954 28.028 32.6352 28.284Z" fill="black"/>
<path d="M67.8976 28.9973V39.1371H65.2786L65.1946 38.0231C64.8973 38.4443 64.4996 38.7846 64.0376 39.0134C63.5756 39.2421 63.0639 39.352 62.5487 39.3331C61.976 39.3534 61.4075 39.2287 60.896 38.9705C60.3845 38.7123 59.9465 38.3289 59.6227 37.8561C58.9547 36.8011 58.7607 35.6282 58.7607 32.8422V26.7423C58.7607 23.6214 58.9827 22.4794 59.7907 21.5604C60.2723 21.0985 60.8472 20.7452 61.4768 20.5242C62.1064 20.3033 62.7761 20.2198 63.4407 20.2794C65.1686 20.2794 66.3936 20.7244 67.0586 21.5884C67.736 22.6572 68.0304 23.9244 67.8936 25.1823V26.1823H64.9776V25.0393C64.9776 23.6464 64.5256 23.0344 63.5017 23.0344C62.2207 23.0344 61.9697 23.7024 61.9697 27.1043V32.3412C61.9697 35.7682 62.2697 36.5742 63.4777 36.5742C63.7373 36.5836 63.994 36.5173 64.2166 36.3834C64.4393 36.2496 64.6182 36.0539 64.7317 35.8202C64.9686 35.1506 65.054 34.4368 64.9816 33.7302V31.7792H63.5327V28.9933L67.8976 28.9973Z" fill="black"/>
<path d="M78.5106 39.1425H69.4287C69.4847 34.6306 70.3757 32.4026 73.6636 28.5027C75.0566 26.7747 75.3896 26.0787 75.3896 24.8847C75.3896 23.6308 74.8896 22.8778 73.9966 22.8778C73.7811 22.8756 73.5685 22.9281 73.3787 23.0304C73.189 23.1327 73.0283 23.2815 72.9117 23.4628C72.6366 23.9943 72.5319 24.5976 72.6116 25.1907V26.9727H69.4887V25.6917C69.3581 24.4039 69.6411 23.1079 70.2967 21.9918C70.7429 21.4154 71.3249 20.9584 71.9908 20.6618C72.6567 20.3651 73.3857 20.238 74.1126 20.2918C76.9276 20.2918 78.6266 22.0178 78.6266 24.8917C78.6266 26.7297 78.1745 27.7047 76.3136 30.0447C73.8066 33.1366 73.1136 34.3356 72.7756 36.2846H78.5146L78.5106 39.1425Z" fill="black"/>
<path d="M93.1899 23.5391H87.79V28.246H92.8899V30.9459H87.79V36.1549H93.5019V39.1348H84.582V20.5571H93.1899V23.5391Z" fill="black"/>
<path d="M100.377 26.7135V25.6285C100.377 23.8195 99.9249 23.0385 98.9299 23.0385C98.0929 23.0385 97.5929 23.6505 97.5929 24.6815C97.5929 25.7125 98.0109 26.4095 99.3479 27.5455L101.186 29.1344C103.61 31.2234 104.112 32.1704 104.112 34.6223C104.112 37.7703 102.44 39.4133 99.2369 39.4133C96.0049 39.4133 94.502 37.7973 94.502 34.3133V32.3134H97.5649V33.8214C97.5649 35.6873 98.1499 36.6633 99.2929 36.6633C100.324 36.6633 100.853 35.9943 100.853 34.6563C100.853 33.4564 100.574 32.9304 99.3759 31.8714L97.6209 30.3384C96.715 29.6955 95.9239 28.9044 95.2809 27.9985C94.7255 27.0766 94.4626 26.0079 94.527 24.9335C94.527 21.8416 96.0589 20.2826 99.0119 20.2826C99.6127 20.2445 100.215 20.3257 100.784 20.5215C101.354 20.7174 101.879 21.0239 102.329 21.4236C103.108 22.2046 103.443 23.3455 103.443 25.1565V26.7135H100.377Z" fill="black"/>
<path d="M108.456 39.1378H105.256V20.5571H109.797C111.831 20.5571 112.661 20.7571 113.308 21.3381C114.143 22.1171 114.478 23.4281 114.478 25.794C114.478 29.694 113.447 30.976 110.326 30.976H108.46L108.456 39.1378ZM109.543 28.274C110.824 28.274 111.215 27.689 111.215 25.794C111.318 25.0012 111.13 24.1978 110.686 23.5331C110.463 23.3331 110.157 23.2541 109.432 23.2541H108.457V28.268L109.543 28.274Z" fill="black"/>
<path d="M124.947 33.3713C124.947 36.1863 124.725 37.1323 123.892 38.0792C122.893 38.9412 121.618 39.4155 120.299 39.4155C118.98 39.4155 117.704 38.9412 116.705 38.0792C115.87 37.1323 115.65 36.1853 115.65 33.3713V26.3234C115.65 23.5105 115.873 22.5635 116.705 21.6165C117.704 20.7545 118.98 20.2803 120.299 20.2803C121.618 20.2803 122.893 20.7545 123.892 21.6165C124.729 22.5635 124.947 23.5105 124.947 26.3234V33.3713ZM118.847 33.3173C118.847 36.1033 119.147 36.8283 120.296 36.8283C121.445 36.8283 121.743 36.1033 121.743 33.3173V26.3824C121.743 23.5985 121.443 22.8725 120.296 22.8725C119.149 22.8725 118.847 23.5975 118.847 26.3824V33.3173Z" fill="black"/>
<path d="M129.879 39.1378H126.679V20.5571H131.079C133.03 20.5571 133.979 20.7571 134.617 21.3381C135.371 22.0061 135.731 23.3721 135.731 25.6C135.731 28.3 135.369 28.971 133.559 29.389C135.147 29.668 135.62 30.364 135.62 32.5889V35.2629C135.521 36.5609 135.622 37.8665 135.92 39.1338H132.554C132.43 38.3604 132.383 37.5765 132.415 36.7939V33.3939C132.415 31.36 131.963 30.694 130.606 30.694H129.881L129.879 39.1378ZM130.799 28.107C132.248 28.107 132.665 27.522 132.665 25.627C132.665 23.6491 132.303 23.1491 130.856 23.1491H129.881V28.107H130.799Z" fill="black"/>
<path d="M143.057 39.1372H139.852V23.4275H136.621V20.5625H146.288V23.4265H143.057V39.1372Z" fill="black"/>
<path d="M152.866 26.7135V25.6285C152.866 23.8195 152.414 23.0386 151.417 23.0386C150.582 23.0386 150.08 23.6505 150.08 24.6815C150.08 25.7125 150.498 26.4095 151.835 27.5455L153.674 29.1345C156.097 31.2234 156.599 32.1704 156.599 34.6224C156.599 37.7703 154.927 39.4133 151.724 39.4133C148.495 39.4133 146.987 37.8003 146.987 34.3194V32.3124H150.047V33.8204C150.047 35.6863 150.633 36.6623 151.775 36.6623C152.806 36.6623 153.335 35.9933 153.335 34.6554C153.335 33.4554 153.056 32.9294 151.859 31.8704L150.103 30.3374C149.197 29.6945 148.406 28.9034 147.763 27.9975C147.208 27.0756 146.945 26.0069 147.009 24.9325C147.009 21.8406 148.542 20.2816 151.494 20.2816C152.095 20.2435 152.698 20.3247 153.267 20.5205C153.836 20.7164 154.361 21.0229 154.811 21.4226C155.592 22.2036 155.925 23.3445 155.925 25.1555V26.7125L152.866 26.7135Z" fill="black"/>
</svg>
