<svg width="151" height="21" viewBox="0 0 151 21" fill="none" xmlns="http://www.w3.org/2000/svg">
<g clip-path="url(#clip0_33_106)">
<mask id="mask0_33_106" style="mask-type:luminance" maskUnits="userSpaceOnUse" x="0" y="0" width="151" height="21">
<path d="M150.508 0.187012H0.507812V20.687H150.508V0.187012Z" fill="white"/>
</mask>
<g mask="url(#mask0_33_106)">
<path d="M58.1096 3.07715V8.68944H51.7245V3.07715H48.2109V17.7968H51.7245V11.8821H58.1096V17.7968H61.6569V3.07715H61.488H58.1096Z" fill="black"/>
<path d="M74.5623 3.07715L70.8798 8.89108L67.1974 3.07715H63.042L69.1231 12.6886V17.7968H72.6366V12.6886L78.7177 3.07715H78.3798H74.5623Z" fill="black"/>
<path d="M90.0682 3.07715V13.8649C90.0682 13.9657 90.0344 14.0665 90.0006 14.1673C89.9668 14.2681 89.8993 14.3353 89.8317 14.4026C89.7641 14.4698 89.6628 14.537 89.5952 14.5706C89.4939 14.6042 89.3925 14.6378 89.2911 14.6042H83.6493V3.07715H80.1357V17.7968H90.5411C90.9466 17.8304 91.352 17.7632 91.7236 17.6288C92.0952 17.4944 92.4668 17.2591 92.7371 16.9903C93.0411 16.7214 93.2438 16.3517 93.379 15.9821C93.5141 15.6124 93.5817 15.2091 93.5479 14.8058V3.07715H90.0682Z" fill="black"/>
<path d="M107.265 3.07725H96.8594V17.7969H100.373V6.26987H106.015C106.116 6.26987 106.217 6.26987 106.285 6.33708C106.386 6.37069 106.454 6.4379 106.522 6.50512C106.589 6.57233 106.657 6.63954 106.69 6.74036C106.724 6.84118 106.758 6.942 106.758 7.00922V17.7969H110.305V6.10184C110.339 5.69856 110.272 5.29528 110.136 4.92561C110.001 4.55594 109.799 4.18627 109.495 3.91741C109.19 3.64856 108.853 3.41331 108.481 3.27889C108.076 3.11086 107.67 3.04364 107.265 3.07725Z" fill="black"/>
<path d="M123.987 3.07717H113.582V17.7968H123.987C124.393 17.8304 124.798 17.7632 125.17 17.6288C125.541 17.4944 125.879 17.2591 126.183 16.9903C126.454 16.6878 126.69 16.3518 126.825 15.9821C126.96 15.6124 127.028 15.2091 126.994 14.8059V6.10176C127.028 5.69848 126.96 5.2952 126.825 4.89192C126.69 4.48864 126.487 4.15258 126.183 3.85012C125.879 3.58127 125.541 3.37963 125.17 3.2452C124.798 3.11077 124.393 3.04356 123.987 3.07717ZM123.481 7.00913V13.8313C123.481 13.9321 123.481 14.0329 123.413 14.1001C123.379 14.2009 123.312 14.2682 123.244 14.3354C123.177 14.4026 123.109 14.4698 123.008 14.5034C122.906 14.537 122.805 14.5706 122.737 14.5706H117.062V6.26979H122.704C122.805 6.26979 122.906 6.26979 123.008 6.3034C123.109 6.337 123.177 6.40422 123.278 6.47143C123.379 6.53864 123.413 6.63946 123.447 6.70668C123.481 6.80749 123.481 6.90831 123.481 7.00913Z" fill="black"/>
<path d="M133.143 3.07717C132.738 3.04356 132.332 3.11077 131.961 3.2452C131.589 3.37963 131.218 3.61487 130.947 3.88372C130.677 4.18618 130.441 4.52225 130.305 4.89192C130.17 5.26159 130.103 5.66487 130.137 6.06815V17.7632H133.616V13.2263H140.035V17.7632H143.549V3.07717H133.143ZM140.035 6.26979V10.0673H133.616V7.04274C133.616 6.94192 133.65 6.8411 133.684 6.74028C133.718 6.63946 133.785 6.57225 133.853 6.50504C133.92 6.43782 134.022 6.37061 134.089 6.337C134.191 6.3034 134.292 6.26979 134.393 6.26979H140.035Z" fill="black"/>
<path d="M150.508 3.07715H146.994V17.7968H150.508V3.07715Z" fill="black"/>
<path d="M20.6429 20.687C31.7578 20.687 40.7781 16.0829 40.7781 10.437C40.7781 4.79111 31.7916 0.187012 20.6429 0.187012C9.52808 0.187012 0.507812 4.79111 0.507812 10.437C0.507812 16.0829 9.4943 20.687 20.6429 20.687ZM24.4267 15.646C24.0889 16.419 23.5146 18.0321 22.197 18.7378C21.7916 18.9395 21.3186 19.0403 20.8456 19.0403C20.7443 19.0403 20.6767 19.0403 20.6429 19.0403C17.2308 19.0739 13.8524 18.6034 10.5754 17.6624L10.474 17.6288C10.2038 17.528 10.0686 17.4272 10.0686 17.2591C10.0686 17.1919 10.1024 17.1247 10.1024 17.0911C10.1362 17.0239 10.17 16.9903 10.2038 16.9567L10.3727 16.7887C11.0146 16.2173 13.0416 14.7723 16.8592 13.3608C18.4132 12.7223 20.0011 12.2518 21.6227 11.8485C22.67 11.6132 26.4538 11.0419 24.4267 15.646ZM34.6294 5.32881C34.6632 5.2616 34.697 5.19439 34.7646 5.16078C34.8321 5.12718 34.8997 5.09357 34.9673 5.09357C35.1024 5.09357 35.2713 5.12718 35.3727 5.228C37.7375 6.67308 39.1565 8.48783 39.1565 10.437C39.1565 13.9657 34.5956 17.0239 28.0416 18.3346C27.6362 18.4354 27.3321 18.4018 27.2646 18.3346C27.1632 18.2673 27.1632 18.1665 27.2646 18.0321C27.2984 17.9313 27.3659 17.8641 27.4335 17.7968C30.9808 13.6296 33.7173 7.47963 34.4605 5.69849C34.5281 5.53045 34.5619 5.39603 34.6294 5.32881ZM16.9267 5.19439C17.2646 4.42144 17.8389 2.77472 19.1565 2.10259C19.5619 1.90095 20.0348 1.80013 20.5078 1.80013C20.6092 1.80013 20.6767 1.80013 20.7105 1.80013C24.1227 1.76652 27.5011 2.23701 30.7781 3.178L30.8794 3.2116C31.1497 3.31242 31.2848 3.41324 31.2848 3.58127C31.2848 3.64849 31.2511 3.7157 31.2511 3.74931C31.2173 3.81652 31.1835 3.85013 31.1497 3.88373L30.9132 4.08537C30.2713 4.65668 28.2781 6.10177 24.4605 7.54685C22.9065 8.18537 21.3186 8.68947 19.697 9.05914C18.7173 9.26078 14.9335 9.83209 16.9267 5.19439ZM13.2781 2.53947C13.7173 2.47226 13.9875 2.47226 14.0889 2.53947C14.1227 2.57308 14.1227 2.64029 14.1227 2.7075C14.1227 2.77472 14.0889 2.80832 14.0889 2.87554C14.0213 2.97636 13.9875 3.04357 13.92 3.11078C10.3389 7.27799 7.60241 13.428 6.85916 15.2091C6.7916 15.3436 6.75781 15.4444 6.69024 15.5452C6.65646 15.6124 6.62268 15.6796 6.55511 15.7132C6.48754 15.7468 6.41997 15.7805 6.35241 15.7805C6.21727 15.7805 6.04835 15.7468 5.947 15.646C3.58214 14.2009 2.16322 12.3862 2.16322 10.437C2.16322 6.90832 6.72403 3.88373 13.2781 2.53947Z" fill="black"/>
</g>
</g>
<defs>
<clipPath id="clip0_33_106">
<rect width="150" height="20.5" fill="white" transform="translate(0.507812 0.187012)"/>
</clipPath>
</defs>
</svg>
