<svg width="140" height="35" viewBox="0 0 140 35" fill="none" xmlns="http://www.w3.org/2000/svg">
<g clip-path="url(#clip0_33_91)">
<path d="M22.2968 2.05322V25.4774H16.1201V8.53415H9.3291V2.05322H22.2968Z" fill="black"/>
<path d="M7.00098 8.53421V0H8.49518V8.53421H7.00098Z" fill="black"/>
<path d="M0.000197555 25.4852L0 2.06104H6.17211L6.17236 19.005H12.9669V25.4852H0.000197555Z" fill="black"/>
<path d="M15.296 19.0044V27.5386H13.8013L13.8008 19.0044H15.296Z" fill="black"/>
<path d="M137.109 1.39063C136.537 1.39043 135.977 1.56091 135.502 1.8805C135.026 2.20009 134.655 2.65443 134.436 3.18605C134.217 3.71768 134.16 4.30271 134.271 4.86715C134.383 5.4316 134.658 5.9501 135.063 6.35707C135.467 6.76405 135.982 7.04122 136.543 7.15353C137.104 7.26584 137.686 7.20824 138.214 6.98802C138.743 6.7678 139.195 6.39485 139.512 5.91634C139.83 5.43783 140 4.87526 140 4.29977C140 3.91776 139.925 3.53946 139.78 3.18649C139.635 2.83352 139.422 2.51279 139.153 2.24263C138.885 1.97247 138.566 1.75818 138.215 1.61199C137.864 1.4658 137.488 1.39058 137.109 1.39063ZM137.109 6.79339C136.619 6.79359 136.139 6.64755 135.732 6.37374C135.324 6.09993 135.006 5.71066 134.819 5.25515C134.631 4.79964 134.582 4.29835 134.677 3.81468C134.773 3.33101 135.008 2.88669 135.355 2.5379C135.701 2.18911 136.143 1.95153 136.624 1.85519C137.104 1.75886 137.603 1.8081 138.055 1.99669C138.508 2.18529 138.896 2.50476 139.168 2.91471C139.44 3.32465 139.586 3.80666 139.586 4.29977C139.586 4.9609 139.325 5.59499 138.861 6.06262C138.396 6.53024 137.766 6.7931 137.109 6.79339Z" fill="black"/>
<path d="M136.359 5.7889H135.949V2.73511H137.354C137.852 2.73511 138.351 2.90787 138.351 3.5554C138.362 3.70597 138.327 3.85626 138.252 3.98681C138.176 4.11735 138.064 4.22214 137.929 4.28759C138.101 4.35969 138.275 4.43655 138.292 4.86113L138.317 5.41505C138.322 5.58558 138.342 5.64918 138.47 5.72147V5.7889H137.967C137.917 5.53697 137.893 5.28057 137.895 5.02371C137.895 4.77184 137.844 4.47879 137.354 4.47879H136.359V5.7889ZM136.359 4.12506H137.311C137.61 4.12506 137.929 4.04864 137.929 3.59763C137.929 3.12575 137.585 3.08764 137.384 3.08764H136.359V4.12506Z" fill="black"/>
<path d="M35.8312 1.3916V26.672H30.3555V1.3916H35.8312Z" fill="black"/>
<path d="M80.3334 8.17671V10.0715C80.3334 10.0715 82.7001 7.85742 85.5723 7.85742V12.312C85.5723 12.312 80.3947 12.6156 80.3513 17.2354V26.6736H74.4883V8.17671H80.3334Z" fill="black"/>
<path d="M104.378 8.17114V9.91219C110.474 5.93133 114.103 10.0395 114.103 12.8248V26.6734H108.561V15.7648C108.561 12.9519 104.378 13.1288 104.378 15.7648V26.6734H98.7354V8.17114H104.378Z" fill="black"/>
<path d="M87.4849 19.8731C87.4851 19.403 87.6239 18.9434 87.8837 18.5526C88.1435 18.1618 88.5126 17.8573 88.9445 17.6776C89.3763 17.4978 89.8514 17.4509 90.3097 17.5429C90.768 17.6348 91.189 17.8614 91.5193 18.1939C91.8496 18.5265 92.0745 18.9502 92.1654 19.4114C92.2564 19.8725 92.2094 20.3505 92.0304 20.7847C91.8514 21.219 91.5484 21.5902 91.1597 21.8512C90.771 22.1123 90.3141 22.2515 89.8468 22.2513C89.5365 22.2512 89.2292 22.1897 88.9425 22.0701C88.6559 21.9506 88.3954 21.7754 88.1761 21.5545C87.9567 21.3337 87.7828 21.0715 87.6642 20.783C87.5456 20.4945 87.4847 20.1853 87.4849 19.8731ZM86.9307 12.1653C87.7986 12.0513 88.6763 12.0323 89.5482 12.1085C92.2459 12.2053 91.9179 14.4114 91.9179 14.4114C90.9355 13.8856 89.8424 13.6038 88.7298 13.5892C86.6602 13.5526 82.5195 14.835 82.5195 20.3317C82.5195 25.184 86.3732 26.5804 88.6695 26.5804C89.9178 26.6129 91.1431 26.2379 92.1619 25.5115V26.6722H97.475V14.0815C97.475 11.616 97.0318 10.9593 95.922 9.72409C94.3695 7.9974 90.6923 7.85962 90.6923 7.85962H86.9307V12.1653Z" fill="black"/>
<path d="M123.53 8.75732C117.645 8.61204 115.14 13.6103 115.141 17.5283C115.102 22.6635 118.467 26.8583 123.481 26.46C124.635 26.3263 125.725 25.8552 126.617 25.1047V26.6734H132.312V1.38843H126.617V9.77994C125.444 8.91846 123.53 8.75732 123.53 8.75732ZM123.453 21.1767C122.751 21.177 122.065 20.9678 121.482 20.5757C120.898 20.1836 120.443 19.6262 120.174 18.974C119.906 18.3218 119.835 17.604 119.972 16.9116C120.109 16.2191 120.447 15.583 120.943 15.0837C121.439 14.5844 122.071 14.2443 122.76 14.1065C123.448 13.9687 124.161 14.0393 124.81 14.3095C125.458 14.5797 126.012 15.0372 126.402 15.6242C126.792 16.2113 127 16.9014 127 17.6075C127 18.5538 126.626 19.4614 125.961 20.1307C125.296 20.8 124.394 21.1762 123.453 21.1767Z" fill="black"/>
<path d="M64.5861 29.6335C61.9732 29.5199 61.4253 27.8313 61.4253 27.8313H54.8545C56.2204 37.071 72.3453 37.4374 73.0972 28.5912V8.16284H67.604V10.0875C63.8265 6.24133 55.0057 9.02457 55.3084 17.692C55.591 25.7978 64.127 28.2365 67.604 25.0941V27.2738C67.5887 29.731 64.5861 29.6335 64.5861 29.6335ZM64.1872 21.0192C63.484 21.0194 62.7964 20.8098 62.2116 20.4169C61.6267 20.024 61.1708 19.4654 60.9016 18.8118C60.6323 18.1581 60.5618 17.4389 60.6989 16.7449C60.836 16.051 61.1745 15.4135 61.6718 14.9132C62.169 14.4128 62.8026 14.0721 63.4923 13.934C64.1821 13.7959 64.897 13.8667 65.5468 14.1375C66.1965 14.4083 66.7518 14.8668 67.1425 15.4551C67.5332 16.0434 67.7417 16.735 67.7416 17.4426C67.7415 18.391 67.367 19.3005 66.7005 19.9712C66.0339 20.6419 65.13 21.0189 64.1872 21.0192Z" fill="black"/>
<path d="M45.6515 7.48633C41.167 7.48633 36.7798 11.1826 36.7832 17.016C36.7878 23.5802 40.8672 27.3815 46.2454 27.2136C50.3646 27.0859 53.2245 24.4773 54.2581 20.7945H48.6401C48.3524 21.3864 47.5477 22.0648 45.8968 22.0648C45.4804 22.0867 45.0641 22.022 44.6737 21.8748C44.2833 21.7275 43.9273 21.5008 43.628 21.2088C43.3287 20.9169 43.0924 20.5659 42.934 20.178C42.7755 19.79 42.6983 19.3733 42.7072 18.954L54.5873 18.9492C55.258 12.13 50.8841 7.48633 45.6515 7.48633ZM42.6192 15.0792C42.7058 14.3298 43.0631 13.6384 43.6232 13.1367C44.1833 12.6349 44.9072 12.3577 45.6571 12.3578C46.4071 12.3578 47.1309 12.6351 47.691 13.1369C48.2511 13.6387 48.6083 14.33 48.6949 15.0795L42.6192 15.0792Z" fill="black"/>
</g>
<defs>
<clipPath id="clip0_33_91">
<rect width="140" height="35" fill="white"/>
</clipPath>
</defs>
</svg>
