<svg width="176" height="45" viewBox="0 0 176 45" fill="none" xmlns="http://www.w3.org/2000/svg">
<path d="M75.8652 40.7738V36.0433H81.1377L81.1525 34.4324H75.8652V29.8073H83.2322V28.1953H72.0566V28.7704L72.1767 28.8141C72.865 29.0697 73.1956 29.3746 73.1956 30.3835V42.6021H83.2719V41.0092H75.992C75.8981 41.0092 75.8652 40.8859 75.8652 40.7738Z" fill="black"/>
<path d="M26.8414 0.399902H23.1958V1.07249L23.3384 1.0893C23.3667 1.0893 23.4449 1.13862 23.5117 1.26081C23.6034 1.42784 23.7675 1.9177 23.2988 2.86717L17.467 16.7L10.7137 0.499671L10.6729 0.399902H7.02735V1.07249L7.17 1.0893C7.1983 1.0893 7.27642 1.13862 7.34322 1.26081C7.43606 1.42784 7.59909 1.9177 7.13037 2.86717L0.0939697 19.5204L0 19.7446H2.38547L8.83088 4.34125L15.0261 19.6426L15.0668 19.7423H18.5766L24.9982 4.34798L31.1934 19.6482L31.2342 19.7479H34.916L26.8776 0.504152L26.8414 0.399902Z" fill="black"/>
<path d="M44.5415 0.46582V1.13841L44.6955 1.14625C44.7453 1.15895 44.7916 1.1827 44.8308 1.21572C44.8701 1.24873 44.9012 1.29014 44.9219 1.33682C45.0147 1.49936 45.1789 1.97802 44.6807 2.90619L36.7646 19.7937H39.3822L42.3258 13.4534H50.6155L51.7624 15.9667L51.7941 16.0395C51.8293 16.1121 51.8592 16.187 51.8836 16.2637L53.489 19.7937H57.2081L48.2244 0.46582H44.5415ZM49.7132 11.4312H43.2825L46.5409 4.35897L49.7132 11.4312Z" fill="black"/>
<path d="M145.008 0.46582H141.321V1.13841L141.474 1.14625C141.524 1.15895 141.57 1.1827 141.61 1.21572C141.649 1.24873 141.68 1.29014 141.701 1.33682C141.794 1.49936 141.957 1.97802 141.458 2.90619L133.547 19.7836H136.164L139.102 13.4422H147.393L148.57 16.0272C148.604 16.0999 148.634 16.1748 148.658 16.2514L150.269 19.778H153.988L152.539 16.7155L145.008 0.46582ZM146.493 11.4312H140.061L143.32 4.35897L146.493 11.4312Z" fill="black"/>
<path d="M68.9806 20.1731C71.5325 20.1406 74.1739 19.32 76.2265 17.9222L76.2967 17.874V14.344C76.2943 14.2541 76.2992 14.1641 76.3114 14.075V11.4833H71.4386V12.1088L71.5393 12.1503C72.4722 12.5224 72.9455 12.9607 72.9455 14.3283V17.1308C71.7185 17.7919 70.3458 18.1434 68.9489 18.1542C63.8734 18.1542 62.0733 13.7959 62.0733 10.0641C62.0733 9.87468 62.0733 9.69868 62.088 9.50363C62.3043 5.15649 65.5004 2.00655 69.6871 2.00655C73.4425 2.00655 75.6253 3.88418 76.0272 4.25971L76.2922 4.50968L76.3465 2.09398L76.2967 2.04466C76.2095 1.96171 74.115 0 69.3124 0C65.8434 0 62.9586 1.1008 60.9694 3.18133C59.2293 5.00292 58.2715 7.46906 58.2715 10.1314C58.2715 12.9484 59.2655 15.4056 61.1449 17.2384C63.0696 19.116 65.8502 20.1843 68.7882 20.1843L68.9806 20.1731Z" fill="black"/>
<path d="M81.2219 3.34112V19.7937H94.6856V17.8208H84.9252C84.7667 17.8208 84.6648 17.6605 84.6648 17.4139V10.9167H91.8054L91.8235 8.91013H84.6648V2.47237H94.6392V0.46582H79.6855V1.09581L79.7897 1.13392C80.7396 1.48703 81.2219 1.92533 81.2219 3.34112Z" fill="black"/>
<path d="M104.479 17.8041C104.26 17.7817 104.105 17.664 104.105 17.1035V0.457031H99.2461V1.10159L99.3706 1.13074C100.304 1.34821 100.738 2.0477 100.738 3.33234V19.7849H113.809V17.7929H104.591L104.479 17.8041Z" fill="black"/>
<path d="M121.601 17.8041C121.383 17.7817 121.226 17.664 121.226 17.1035V0.457031H116.367V1.10159L116.493 1.13074C117.426 1.34821 117.859 2.0477 117.859 3.33234V19.7849H130.93V17.7929H121.714L121.601 17.8041Z" fill="black"/>
<path d="M172.858 0.46582V14.3581L160.619 0.52075L160.572 0.46582H155.801V1.08908L155.897 1.13056C156.779 1.51617 157.238 1.90628 157.292 2.96896V19.7937H159.62V4.78382L172.81 19.7937H175.215V0.46582H172.858Z" fill="black"/>
<path d="M106.621 33.6447C104.061 32.9542 103.524 32.1448 103.524 31.5866C103.519 31.2972 103.589 31.0115 103.728 30.757C104.189 29.8984 105.02 29.4982 106.346 29.4982C108.023 29.4982 109.5 30.0867 110.512 31.1617L110.823 31.4913L110.867 29.4982L110.811 29.4433C110.749 29.3805 109.253 27.9053 106.396 27.9053C103.644 27.9053 100.681 29.1944 100.681 32.026C100.681 35.0369 103.709 35.8138 105.518 36.2778L105.971 36.3967L106.038 36.4157C106.728 36.6029 108.827 37.1746 108.827 38.8404C108.827 38.9435 108.795 41.3682 106.03 41.3682C105.992 41.3682 101.677 41.4904 100.897 38.2844L100.863 38.1443H100.354L100.371 41.2471L100.429 41.3009C101.324 42.1193 103.486 42.9981 106.102 42.9981C108.898 42.9981 111.719 41.6103 111.719 38.5142C111.719 35.4181 109.133 34.3139 106.621 33.6447Z" fill="black"/>
<path d="M85.4082 30.8813H85.8894L85.9392 30.7692C85.9661 30.7137 85.9967 30.6602 86.0309 30.6089C86.0535 30.573 86.075 30.5382 86.0841 30.5214C86.2309 30.2965 86.4343 30.1134 86.6743 29.9899C86.9143 29.8665 87.1826 29.8071 87.4529 29.8175H90.6762V42.6863H93.5066V29.8231H96.731C97.3378 29.8231 97.7714 30.0473 98.0896 30.5091L98.3047 30.8813H98.7768V28.1909H85.4173L85.4082 30.8813Z" fill="black"/>
<path d="M65.1207 27.9018C65.372 27.9208 65.8464 28.0139 66.1555 28.3928C66.4181 28.7178 66.451 29.2268 66.4657 29.4476C66.4725 29.5597 66.4657 29.6718 66.4657 29.6718C66.4657 29.6998 66.4657 29.7234 66.4657 29.7368C66.4657 31.3062 66.4657 32.8755 66.4657 34.4449C66.4657 36.0972 66.4657 38.0701 66.4657 39.8917V40.0397C66.4567 40.2598 66.4348 40.4791 66.4 40.6966C66.3799 40.8887 66.342 41.0786 66.2868 41.2638C66.2343 41.4146 66.1684 41.5606 66.0898 41.6999C65.3822 42.9475 64.0259 43.2816 64.0259 43.2816C63.7136 43.3582 63.3914 43.3869 63.0703 43.3668L63.0941 44.9866L63.2571 44.9933C63.35 44.9933 63.4439 45 63.5368 45C64.2461 45.0019 64.9497 44.8738 65.612 44.6222C66.1928 44.3981 68.1379 43.5383 68.7934 41.7357C69.0205 41.0431 69.149 40.3225 69.1749 39.5947V27.2505H65.1207V27.9018Z" fill="black"/>
</svg>
