<svg width="180" height="30" viewBox="0 0 180 30" fill="none" xmlns="http://www.w3.org/2000/svg">
<g clip-path="url(#clip0_33_49)">
<path d="M97.74 0L92.4507 4.02971L89.8951 13.1275L92.8576 17.316H101.43L99.6853 23.6067H92.6065L93.4393 20.6153H87.8131L86.6211 25.0007L89.663 29.1511H99.609L104.921 25.0579L107.448 15.8743L104.46 11.7239H95.8995L97.6287 5.51267H104.669L103.83 8.53574H109.472L110.75 4.02971L107.813 0H97.74Z" fill="black"/>
<path d="M119.228 0L113.917 4.02971L108.087 25.0293L111.151 29.1511H121.094L126.415 25.0293L128.052 19.1006H122.429L121.18 23.6067H114.114L119.158 5.48091H126.205L124.937 10.0505H130.55L132.245 4.02971L129.342 0H119.228Z" fill="black"/>
<path d="M162.171 5.48091H169.215L166.592 14.9058H159.567L162.171 5.48091ZM158.099 0L149.99 29.1511H155.61L158.029 20.4185H162.603L163.652 29.1511H169.148L167.943 19.2149L171.901 16.014L175.232 4.02971L172.282 0H158.099Z" fill="black"/>
<path d="M63.2426 0L58.6845 16.4586L55.9763 0H50.4073L42.3018 29.1511H47.9279L52.5624 12.629L55.3119 29.1511H60.7951L68.8752 0H63.2426Z" fill="black"/>
<path d="M76.1537 5.48091H83.2357L80.626 14.8963H73.5472L76.1537 5.48091ZM76.2173 0L70.9725 4.00113L63.9795 29.1511H69.5961L72.0151 20.4248H79.0971L76.675 29.1511H82.2757L89.2687 4.02971L86.3253 0H76.2173Z" fill="black"/>
<path d="M140.617 5.48091H147.699L145.089 14.8963H138.01L140.617 5.48091ZM140.684 0L135.41 4.02971L128.439 29.1511H134.056L136.475 20.4248H143.557L141.132 29.1511H146.761L153.732 4.00113L150.788 0H140.684Z" fill="black"/>
<path d="M180 1.79737C180.001 2.07762 179.918 2.35175 179.763 2.58508C179.608 2.8184 179.386 3.00042 179.127 3.1081C178.868 3.21578 178.583 3.24428 178.308 3.19C178.033 3.13571 177.78 3.00107 177.581 2.80313C177.383 2.60519 177.247 2.35284 177.193 2.07802C177.138 1.8032 177.165 1.51828 177.273 1.2593C177.38 1.00033 177.562 0.778948 177.795 0.623185C178.028 0.467422 178.302 0.384278 178.583 0.384277C178.958 0.384276 179.318 0.533054 179.584 0.797971C179.85 1.06289 180 1.42231 180 1.79737ZM177.356 1.79737C177.355 2.0407 177.427 2.27874 177.562 2.48132C177.697 2.6839 177.889 2.8419 178.114 2.93531C178.339 3.02872 178.586 3.05332 178.825 3.00601C179.064 2.95869 179.283 2.84158 179.456 2.66952C179.628 2.49746 179.745 2.2782 179.793 2.03952C179.84 1.80084 179.815 1.55348 179.722 1.32879C179.628 1.10411 179.47 0.912212 179.267 0.777418C179.065 0.642625 178.826 0.571004 178.583 0.571632C178.26 0.574978 177.951 0.705594 177.723 0.935104C177.496 1.16461 177.368 1.47448 177.368 1.79737H177.356ZM178.036 1.07336C178.199 1.04679 178.364 1.03405 178.529 1.03525C178.916 1.03525 179.164 1.1718 179.164 1.4576C179.161 1.54362 179.13 1.62626 179.076 1.6936C179.022 1.76094 178.949 1.80951 178.866 1.8323C178.92 1.85894 178.967 1.89636 179.006 1.94224C179.045 1.98813 179.074 2.0415 179.091 2.09905C179.131 2.24948 179.181 2.39698 179.241 2.54044H178.958C178.909 2.43254 178.873 2.31966 178.85 2.20384C178.799 2.01013 178.713 1.9371 178.532 1.92439H178.278V2.54044H178.03L178.036 1.07336ZM178.3 1.70846H178.567C178.786 1.70846 178.913 1.61955 178.913 1.4703C178.913 1.32105 178.754 1.23531 178.56 1.23531C178.473 1.23155 178.385 1.23902 178.3 1.25754V1.70846Z" fill="black"/>
<path d="M36.1312 0.00317383L28.0225 29.1543H39.2399L47.32 0.00317383H36.1312Z" fill="black"/>
<path d="M20.0448 0.0126953L11.9297 29.1892H17.3429L25.4294 0.0126953H20.0448Z" fill="black"/>
<path d="M27.6414 0.0126953L19.5264 29.1892H24.9396L33.026 0.0126953H27.6414Z" fill="black"/>
<path d="M8.11507 0.0126953L0 29.1892H3.363L11.4495 0.0126953H8.11507Z" fill="black"/>
<path d="M13.6395 0.0126953L5.52441 29.1892H8.88741L16.9739 0.0126953H13.6395Z" fill="black"/>
</g>
<defs>
<clipPath id="clip0_33_49">
<rect width="180" height="29.1892" fill="white"/>
</clipPath>
</defs>
</svg>
