<svg width="176" height="30" viewBox="0 0 176 30" fill="none" xmlns="http://www.w3.org/2000/svg">
<g clip-path="url(#clip0_33_244)">
<path d="M40.8965 16.6112C40.8965 8.92234 46.8637 3.26123 54.3226 3.26123C61.7815 3.26123 67.7493 8.92234 67.7493 16.6112C67.7493 24.3001 61.7815 29.9618 54.3226 29.9618C46.8637 29.9618 40.8965 24.3007 40.8965 16.6112ZM63.5032 16.6112C63.5032 11.1029 59.7165 6.97123 54.3226 6.97123C48.9287 6.97123 45.1426 11.104 45.1426 16.6112C45.1426 22.1185 48.9293 26.2501 54.3226 26.2501C59.7159 26.2501 63.5032 22.1201 63.5032 16.6112Z" fill="black"/>
<path d="M83.8886 3.60645H88.517L79.2981 15.2731L89.8942 29.6176H84.9214L76.6208 18.3714L73.752 21.8887V29.6176H69.6592V3.60645H73.752V16.4998L83.8886 3.60645Z" fill="black"/>
<path d="M90.7725 3.60684H94.8658V25.9835H106.494L104.925 29.618H90.7725V3.60684ZM111.368 29.618H107.236L118.636 3.07129H118.865L130.302 29.618H125.98L124.488 25.9835H112.86L111.368 29.618ZM118.712 12.0624L114.389 22.3502H122.957C122.996 22.3502 118.712 12.0602 118.712 12.0602V12.0624Z" fill="black"/>
<path d="M135.657 12.5188V29.6177H131.833V3.22217H132.139L148.816 20.7033V3.60661H152.641V29.9999H152.333L135.657 12.5188Z" fill="black"/>
<path d="M154.937 3.60645H162.281C170.773 3.60645 175.975 8.92311 175.975 16.612C175.975 24.3009 170.809 29.6176 162.281 29.6176H154.937V3.60645ZM162.052 25.9831C168.784 25.9831 171.729 22.1198 171.729 16.612C171.729 11.1042 168.784 7.23978 162.052 7.23978H159.03V25.9831H162.052Z" fill="black"/>
<path d="M13.3494 3.22222C5.92944 3.22222 0 8.93222 0 16.4844C0 24.0367 5.885 29.9211 13.3494 29.9211C20.8289 29.9211 26.6994 24.3183 26.6994 16.3061C26.7022 16.1216 26.7767 15.9454 26.9072 15.8149C27.0376 15.6845 27.2138 15.6099 27.3983 15.6072C27.7933 15.6072 30.0094 16.385 30.0094 16.385V12.5106C29.4933 12.2711 27.5239 11.8094 26.4511 11.8094C24.4894 11.8094 22.84 13.3428 22.84 16.5711C22.84 21.9967 18.8611 26.0644 13.2844 26.0644C7.82556 26.0644 3.85389 21.62 3.85389 16.4861C3.85389 11.2833 7.78111 7.07833 13.3472 7.07833C16.8428 7.07833 17.9417 5.485 17.9417 3.41167C17.9444 1.43056 17.2822 0 17.2822 0H13.345C13.345 0 14.1283 2 14.1283 2.48833C14.1283 2.86556 13.8183 3.22222 13.3494 3.22222Z" fill="black"/>
<path d="M26.581 6.61667C23.5516 6.61667 21.5999 8.19111 21.5999 8.19111C21.5999 8.19111 23.0444 6.22167 23.0444 3.51167C23.0444 1.57889 22.6388 0.857222 22.3221 0H18.4449C18.8627 0.540556 19.1255 2.36556 19.1255 3.53611C19.1255 5.465 17.5255 8.265 13.3188 8.265C8.73657 8.265 5.04102 11.7228 5.04102 16.5711C5.04102 21.335 8.67879 24.8778 13.3477 24.8778C17.9777 24.8778 21.6543 21.3511 21.6543 16.5711C21.6543 12.4389 24.2216 10.5633 26.4505 10.5633C27.4355 10.5633 29.4232 10.8744 30.0088 11.1772V7.30333C28.9905 6.84 28.0944 6.61667 26.581 6.61667ZM17.796 16.7683C17.6477 17.2822 17.2027 21.0211 13.3516 21.0211C10.7671 21.0211 8.91935 18.9339 8.91935 16.9061C8.91935 12.615 12.6738 12.2594 13.2577 12.1017C13.7893 11.9578 17.6021 11.5072 19.2577 10.5911C18.4199 12.1739 17.9449 16.2478 17.796 16.7683Z" fill="black"/>
</g>
<defs>
<clipPath id="clip0_33_244">
<rect width="175.975" height="30" fill="white"/>
</clipPath>
</defs>
</svg>
