<svg width="149" height="60" viewBox="0 0 149 60" fill="none" xmlns="http://www.w3.org/2000/svg">
<path fill-rule="evenodd" clip-rule="evenodd" d="M147.782 11.5584C148.369 10.4929 148.368 10.4927 148.368 10.4924L148.367 10.4917L148.363 10.4897L148.351 10.4833L148.311 10.4615C148.276 10.4431 148.227 10.4169 148.164 10.3839C148.037 10.318 147.854 10.2247 147.62 10.1113C147.154 9.88456 146.486 9.5764 145.666 9.24455C144.034 8.58335 141.774 7.81592 139.302 7.42161C136.838 7.02856 134.084 6.99341 131.515 7.87645C128.907 8.77276 126.566 10.5912 124.954 13.7462C124.937 13.779 124.922 13.8125 124.908 13.8466C123.369 17.682 124.068 20.7921 125.611 23.1026C127.106 25.3419 129.335 26.7552 130.818 27.4617C131.889 27.9789 133.067 28.8991 133.793 29.86C134.58 30.9004 134.504 31.4679 134.31 31.7357L134.31 31.736L134.31 31.7366C134.305 31.743 134.283 31.7757 134.174 31.8077C134.045 31.8455 133.826 31.8702 133.5 31.8361C132.84 31.7675 131.964 31.4846 130.999 31.007C129.046 30.0395 127.149 28.4873 126.356 27.154L126.356 27.154C126.171 26.8444 125.824 26.5808 125.368 26.5562C125.012 26.5369 124.757 26.6772 124.674 26.7263C124.494 26.8322 124.378 26.9637 124.348 26.9974L124.346 26.9998C124.259 27.0981 124.184 27.2087 124.134 27.2848C124.021 27.4567 123.882 27.6914 123.735 27.9536C123.435 28.4863 123.054 29.2137 122.682 29.974C122.31 30.7323 121.938 31.5444 121.661 32.2425C121.524 32.5899 121.402 32.9296 121.316 33.2313C121.247 33.4751 121.151 33.859 121.183 34.2301C121.227 34.8084 121.526 35.3045 121.752 35.6232C122.006 35.9818 122.317 36.3175 122.597 36.5919C122.881 36.871 123.159 37.113 123.364 37.2839C123.467 37.37 123.553 37.4396 123.615 37.4886C123.646 37.5131 123.671 37.5325 123.689 37.5463L123.709 37.5619C127.273 40.38 132.342 43.3225 137.436 42.8165L137.436 42.8164C142.975 42.2648 145.99 38.8761 146.912 35.1181C147.797 31.5085 146.761 27.3822 144.046 25.4017L144.046 25.4013C142.904 24.5694 141.684 23.8228 140.571 23.1421L140.571 23.1421L140.501 23.0999C139.347 22.3935 138.333 21.7694 137.535 21.1524C136.716 20.5194 136.292 20.0159 136.135 19.6143C136.029 19.3424 135.997 19.0115 136.356 18.4658C137.248 17.5281 138.33 17.3258 139.708 17.5379C140.861 17.7156 142.039 18.151 143.298 18.616L143.298 18.616C143.679 18.7568 144.067 18.9004 144.464 19.0403C144.483 19.0468 144.501 19.0528 144.52 19.0583C144.518 19.0578 144.518 19.0578 144.522 19.0593C144.529 19.0621 144.551 19.0701 144.601 19.0897L144.61 19.0929C144.666 19.1147 144.768 19.1544 144.874 19.1867C144.968 19.2152 145.184 19.2769 145.441 19.266C145.734 19.2537 146.248 19.1268 146.549 18.6009C146.585 18.5381 146.615 18.4721 146.64 18.4039L148.929 11.9669C149.128 11.4048 148.891 10.7807 148.369 10.4929L147.782 11.5584ZM143.527 16.8994C140.603 15.8172 137.389 14.6275 135.131 17.103C133.242 19.8396 136.603 21.8391 140.353 24.071C141.355 24.6672 142.385 25.28 143.35 25.9279C147.803 28.918 147.033 40.0062 137.024 41.0029C132.426 41.4804 127.682 38.7811 124.165 35.9986C124.165 35.9986 122.168 34.4828 122.105 33.5277C122.001 32.531 124.935 26.9869 125.039 27.1738C126.953 30.3922 133.529 33.9222 135.027 31.8458C136.421 29.9147 133.529 26.9454 131.073 25.7618C128.327 24.4536 123 20.5914 125.767 13.6976C131.635 2.21492 147.511 10.9567 147.511 10.9567L145.223 17.3937C145.16 17.5035 144.954 17.4237 144.768 17.3512C144.708 17.3278 144.649 17.3051 144.598 17.2899C144.247 17.1662 143.889 17.0336 143.527 16.8994Z" fill="#231F20"/>
<path fill-rule="evenodd" clip-rule="evenodd" d="M13.2406 59.6495H135.507C138.524 59.6495 141.021 56.7009 141.021 53.0879C141.021 53.0879 141.541 46.5264 135.507 46.5264H13.2406C10.2027 46.5264 7.72656 49.4749 7.72656 53.0879C7.72656 56.7009 10.2027 59.6495 13.2406 59.6495ZM135.695 51.7172C135.695 51.9456 135.84 51.8418 135.84 51.8418L136.714 50.0768C136.777 49.8899 136.714 49.7446 136.714 49.7446L136.256 49.3293C136.069 49.2255 136.048 49.5369 136.048 49.5369L135.695 51.7172ZM107.273 53.3779L109.645 53.2533C109.707 53.2533 109.77 53.1703 109.77 53.0664V52.6511C109.77 51.4676 109.686 50.4086 109.562 49.4949C110.354 49.5525 111.117 49.5702 111.649 49.5825C111.886 49.588 112.076 49.5924 112.204 49.5988C111.934 50.6162 111.788 51.9659 111.788 53.3156C111.788 54.7276 111.954 56.1188 112.329 57.1778C112.171 57.1877 111.566 57.2116 110.944 57.2362L110.943 57.2363L110.943 57.2363L110.943 57.2363C110.256 57.2635 109.548 57.2915 109.395 57.3024C109.562 56.4718 109.707 55.4543 109.749 54.3954V54.3746C109.749 54.3503 109.742 54.3189 109.736 54.2928L109.736 54.2928L109.736 54.2927L109.736 54.2921L109.736 54.292C109.731 54.2739 109.728 54.2585 109.728 54.25C109.707 54.2085 109.666 54.1877 109.645 54.1877C108.902 54.1372 108.228 54.1413 107.678 54.1447C107.55 54.1454 107.428 54.1462 107.314 54.1462C107.273 54.1462 107.252 54.1669 107.231 54.2085C107.21 54.25 107.189 54.2915 107.189 54.3331V54.3538C107.231 55.2882 107.377 56.5341 107.668 57.51C106.461 57.4477 105.15 57.4477 104.693 57.4477H104.692C104.984 56.4303 105.129 54.8937 105.129 53.3987C105.129 52.0697 105.025 50.8031 104.817 49.9518C104.895 49.9518 105 49.951 105.127 49.95C105.643 49.946 106.521 49.9392 107.439 49.9725C107.293 50.8031 107.189 51.9036 107.169 53.1703C107.169 53.2325 107.189 53.2741 107.21 53.3156C107.21 53.3779 107.231 53.3987 107.273 53.3779ZM96.6807 54.209C96.8888 56.0155 97.5755 56.8876 99.1569 57.469C100.156 57.822 101.841 57.7597 102.902 57.199C103.922 56.6592 104.338 55.8286 104.38 55.0395L103.945 55.0325C102.871 55.0148 102.138 55.0028 101.862 55.0395C101.82 55.2264 101.571 55.704 101.467 55.8493C101.217 56.2231 100.759 56.4307 100.28 56.3477C99.6146 56.2231 98.9072 55.5171 98.8655 53.856C98.8447 53.233 98.9072 52.7762 99.0736 52.2156C99.469 50.9282 100.364 50.6998 100.717 50.6998C101.3 50.6582 102.195 51.3435 102.32 52.2156C102.612 52.1724 102.856 52.139 103.063 52.1108C103.653 52.0302 103.941 51.9909 104.172 51.8833C104.067 50.9905 103.714 50.2014 102.403 49.7654C101.258 49.3708 99.9476 49.4124 98.7823 49.8692C98.1581 50.0976 96.3894 51.4888 96.6807 54.209ZM72.19 49.6614C70.7959 49.7652 69.1521 49.8068 67.5499 49.8275C67.5499 49.8275 65.2402 49.8691 64.9073 49.8898C64.9184 49.9398 64.9303 49.9912 64.9426 50.0446C65.0224 50.3905 65.1209 50.8176 65.157 51.4472C65.802 51.3433 66.5303 51.2395 67.425 51.1772C67.4537 51.1772 67.478 51.1466 67.4979 51.1215C67.5213 51.0919 67.5386 51.07 67.5499 51.1149C67.7163 52.1324 67.7996 53.5444 67.7996 54.4788C67.7996 55.6416 67.6955 56.7006 67.5291 57.5104C67.6711 57.5003 68.2581 57.4753 68.8539 57.45C69.4803 57.4234 70.1163 57.3964 70.2549 57.3858C69.922 55.9323 69.7139 53.7313 69.7139 51.5095V51.4887C69.7139 51.3849 69.7763 51.0734 69.8387 51.0734C70.239 51.062 70.6581 51.1259 71.0961 51.1926C71.455 51.2473 71.8266 51.3039 72.2108 51.3226C72.19 50.7827 72.19 50.2636 72.19 49.9106V49.6614ZM61.8905 55.6206C62.161 55.4545 62.2026 55.2261 62.1818 55.06C62.1402 54.5617 61.287 54.3125 59.8929 53.9387C58.5404 53.565 56.6053 52.7759 56.5429 51.5716C56.5429 51.3639 56.6053 51.1563 56.7301 50.9486C56.9798 50.5541 57.6665 49.8689 59.5392 49.7858C61.5367 49.7028 63.2846 50.3049 64.3042 51.4055C63.1389 51.7792 62.2026 52.1737 61.9529 52.2983C61.5992 51.8 60.9125 51.447 60.2467 51.447C59.8305 51.447 59.5392 51.5716 59.4144 51.8208C59.3519 51.9453 59.3311 52.0699 59.3727 52.2153C59.4362 52.6742 59.8864 52.7593 60.7418 52.9208C61.0087 52.9712 61.3151 53.0291 61.6616 53.1081L61.7448 53.1289C63.7007 53.5442 64.866 54.4994 64.9076 55.3299C64.9076 55.5999 64.8452 55.849 64.6787 56.0775C64.1585 56.8665 62.6812 57.4064 61.0373 57.4064C59.1438 57.4064 57.6041 56.9288 56.5013 56.0567C57.0436 55.5335 57.7117 54.9946 58.0277 54.7397C58.0754 54.7012 58.1151 54.6692 58.1451 54.6447C59.1022 55.6829 61.1622 56.119 61.8905 55.6206ZM39.1886 49.9108C40.9156 49.8693 43.1421 50.7829 43.7247 53.4823C43.9119 54.2713 43.8287 54.9565 43.4958 55.5379C42.8715 56.6592 41.2902 57.386 39.4383 57.386C37.6904 57.386 36.1298 56.7008 35.3808 55.621C34.9854 55.0396 34.819 54.3751 34.8606 53.6069C35.027 51.1151 37.1494 49.9523 39.1886 49.9108ZM39.8336 55.9117C40.5411 55.9117 41.0821 55.6002 41.3734 55.0396C41.6231 54.5413 41.6647 53.8768 41.519 53.1293C41.2694 51.9872 40.4579 50.8244 39.4799 50.9282C38.5852 51.0113 37.7737 52.1118 37.732 53.3162V53.4407C37.732 54.0429 37.8985 54.6036 38.1898 55.0396C38.5644 55.621 39.147 55.9117 39.8336 55.9117ZM33.9026 53.4823C33.2992 50.783 31.0103 49.8693 29.2209 49.9108C27.1193 49.9524 24.9345 51.1152 24.768 53.6069C24.7264 54.3752 24.8929 55.0397 25.309 55.6211C26.0789 56.7008 27.6811 57.386 29.4914 57.386C31.3849 57.386 33.0287 56.6593 33.6737 55.538C34.0067 54.9566 34.0691 54.2714 33.9026 53.4823ZM30.8647 55.4342C30.5526 55.9948 30.0116 56.2855 29.2625 56.2855C28.555 56.2855 27.9308 55.9948 27.5354 55.4342C27.2233 55.0189 27.0569 54.4583 27.0569 53.8561V53.7523C27.0985 52.5687 27.9308 51.4889 28.8671 51.4059C29.8867 51.3021 30.719 52.4441 31.0103 53.5654C31.1768 54.3129 31.1144 54.9566 30.8647 55.4342ZM13.5329 55.1021C13.2415 54.6245 13.0751 54.0846 13.0751 53.5447C13.0751 53.3786 13.0959 53.1917 13.1167 53.0256C13.2624 52.2366 13.7409 51.5306 14.4484 51.053C15.7385 50.1809 17.3823 50.0148 18.2562 50.0148C19.5255 49.994 22.4178 50.2224 23.042 52.4442C21.1693 52.465 20.1289 52.548 19.6295 52.6103C19.4214 52.0705 19.3382 51.9251 18.9429 51.6967C18.5267 51.4683 18.1938 51.4891 17.8609 51.5098C17.2574 51.5306 16.8205 51.8628 16.4251 52.3819C16.0714 52.8595 15.9049 53.4409 15.9674 54.0223C16.0714 55.3305 17.0494 56.2026 18.3811 56.2026C19.1509 56.1818 20.0041 55.6212 20.0665 55.0398C20.0665 54.9775 20.0665 54.936 20.0249 54.8737C19.9832 54.8321 19.9416 54.8114 19.9 54.8114C19.9 54.8114 18.9221 54.9567 18.714 54.9567C18.6099 54.666 18.6516 53.9393 18.6516 53.9393C19.1301 53.8977 21.7519 53.8562 21.7519 53.8562C21.7519 53.8562 23.2917 53.7524 23.5414 53.7316C23.5564 53.8067 23.5497 54.0011 23.5448 54.1423L23.5448 54.1424C23.543 54.1965 23.5414 54.2428 23.5414 54.2715C23.5414 54.7076 23.4165 55.1021 23.1876 55.4551C22.4386 56.5348 20.6907 57.1785 18.2978 57.1578C16.113 57.1578 14.3235 56.3687 13.5329 55.1021ZM79.951 49.6614C80.5128 50.8035 80.8874 52.2362 80.8874 53.5236C80.8874 54.4165 80.7001 55.2263 80.2839 55.8077C79.4724 56.9705 78.3072 57.4688 76.601 57.4066C74.9155 57.3443 73.8751 56.6798 73.4798 55.4547C73.355 55.0809 73.3133 54.6657 73.3133 54.2296C73.3133 52.8591 73.459 51.1565 73.8543 50.2221C74.2021 50.2813 74.5257 50.3509 74.8124 50.4126C75.229 50.5022 75.5676 50.5751 75.7895 50.5751C75.4149 51.6548 75.3317 52.7969 75.3317 53.7935C75.3317 54.4372 75.5398 55.0186 75.7062 55.4755C75.9559 56.1192 76.4553 56.6383 76.9339 56.576C77.3292 56.5137 78.0783 55.8285 78.328 54.8733C78.4112 54.5826 78.4737 54.1881 78.4737 53.669C78.4737 52.7553 78.1407 51.4887 77.3708 49.8898C77.5495 49.87 78.1209 49.8219 78.6811 49.7747L78.6811 49.7747C79.2956 49.7229 79.8966 49.6723 79.951 49.6614ZM87.9411 49.8484C87.6498 49.8692 85.4233 49.9107 85.4233 49.9107C85.4233 49.9107 81.9901 49.9523 81.6779 49.9938C81.9693 51.5096 82.1149 53.4822 82.0733 55.3925C82.0525 56.057 82.0109 56.6799 81.9693 57.3029C82.3438 57.2613 83.4258 57.1575 84.6118 57.1575C84.4038 56.2024 84.2373 55.1641 84.1333 54.1882V54.1467C84.1333 54.1051 84.1333 54.0636 84.1541 54.0221C84.1749 53.9806 84.1957 53.9598 84.2373 53.9598C84.9864 53.939 85.8603 54.0221 86.1932 54.0636V53.0669C85.9643 53.0877 84.4038 53.2123 84.4038 53.2123L84.1541 53.233C84.0916 53.233 84.0292 53.15 84.0292 53.0462V52.9008L84.0257 52.8059V52.8057V52.8055V52.8054V52.8052V52.8051V52.8049V52.8048V52.8046V52.8045V52.8044V52.8043V52.8041C84.0062 52.2828 83.9888 51.8178 84.0084 51.4265C84.0292 51.3227 84.0708 51.2397 84.1333 51.2397C85.2361 51.1774 86.6926 51.3227 87.7538 51.5927C87.7954 50.8659 87.8786 50.2014 87.9411 49.8484ZM92.123 49.973C92.123 49.973 94.3495 49.9107 94.6408 49.89C94.5784 50.243 94.4951 50.9074 94.4535 51.6342C93.3923 51.385 91.9358 51.2397 90.833 51.3227C90.7705 51.3227 90.7289 51.4058 90.7081 51.5096C90.6885 51.9009 90.7059 52.366 90.7254 52.8874V52.8875V52.8876V52.8878V52.8879V52.888V52.8882V52.8883V52.8885V52.8886V52.8888V52.8889L90.7289 52.9839V53.1292C90.7289 53.233 90.7914 53.3161 90.8538 53.3161L91.1035 53.2953C91.1035 53.2953 92.664 53.15 92.8929 53.1292C92.8929 53.3784 92.8929 53.856 92.9137 54.1259C92.5808 54.0844 91.7069 54.0221 90.9578 54.0429C90.9162 54.0429 90.8954 54.0636 90.8746 54.1051C90.8538 54.1467 90.8538 54.1882 90.8538 54.2297V54.2713C90.9578 55.2472 91.1243 56.2854 91.3532 57.2406C90.1671 57.2406 89.0851 57.3652 88.7314 57.4067L88.7314 57.4064C88.773 56.7835 88.8146 56.1607 88.8146 55.4964C88.8354 53.586 88.6898 51.6134 88.3985 50.0976C88.7106 50.0561 92.123 49.973 92.123 49.973ZM119.319 49.7857C119.07 49.7857 117.946 49.8273 117.946 49.8273C117.946 49.8273 113.452 49.9934 113.14 50.0557C113.348 51.613 113.431 53.3157 113.431 54.8315C113.431 55.8282 113.389 56.721 113.327 57.4686C114.879 57.275 115.96 57.3163 117.176 57.3629C117.656 57.3812 118.157 57.4004 118.716 57.4063C118.703 57.2429 118.706 57.2088 118.71 57.1567C118.713 57.1228 118.716 57.0811 118.716 56.991C118.716 56.8645 118.729 56.5791 118.74 56.3247L118.74 56.3242V56.324L118.74 56.3236L118.74 56.3228L118.74 56.3219L118.74 56.3212V56.321V56.3209C118.749 56.1173 118.758 55.9342 118.758 55.8697L118.486 55.8739C117.328 55.8915 116.423 55.9053 115.553 56.0981C115.512 56.0981 115.47 56.0773 115.449 56.0358C115.408 55.9943 115.408 55.932 115.408 55.8697C115.47 55.3091 115.491 54.6861 115.491 54.1047C115.491 54.0424 115.512 54.0009 115.532 53.9594C115.553 53.9178 115.574 53.8971 115.616 53.8971C116.271 53.9143 116.913 53.9601 117.291 53.987C117.332 53.99 117.37 53.9927 117.404 53.9951C117.435 53.9973 117.463 53.9992 117.488 54.0009L117.483 53.9285C117.464 53.6655 117.447 53.4229 117.447 53.2326V53.108C117.218 53.1288 115.928 53.2534 115.928 53.2534L115.636 53.2741C115.616 53.2949 115.574 53.2741 115.553 53.2326C115.532 53.1911 115.512 53.1496 115.512 53.0873L115.47 51.5092C115.47 51.4469 115.491 51.4053 115.512 51.3638C115.532 51.3223 115.553 51.3015 115.595 51.3015C117.114 51.2808 118.3 51.3638 119.257 51.5299C119.257 51.4235 119.252 51.3226 119.246 51.2242V51.2241V51.224V51.2239V51.2239L119.246 51.2234C119.241 51.1302 119.236 51.0394 119.236 50.9485C119.236 50.4502 119.278 50.0349 119.319 49.7857ZM52.7971 52.361C52.4641 50.6998 49.7175 49.89 45.0566 50.0146C45.1814 50.8867 45.2647 51.9457 45.2647 53.0462C45.2647 54.645 45.119 56.2854 44.8693 57.4482C48.0321 57.5936 49.3846 57.2198 50.7163 56.4931C51.8191 55.8701 52.9011 54.7073 52.9011 53.1292L52.8987 53.1004V53.1004C52.8786 52.8593 52.8571 52.6005 52.7971 52.361ZM50.0088 54.5827C49.5719 55.4964 48.7396 56.057 47.6784 56.1608C47.6159 56.1608 47.5535 56.0985 47.5327 55.974C47.2414 53.856 47.3038 51.3643 47.3246 51.2604C47.3246 51.1358 47.3871 51.032 47.4703 51.032C49.4678 51.0528 50.2377 51.5927 50.3209 52.9631C50.3626 53.503 50.2585 54.0844 50.0088 54.5827ZM126.894 50.0558C130.285 49.5574 133.844 49.8274 134.26 51.5093L134.269 51.5624L134.269 51.5625C134.286 51.6641 134.301 51.7528 134.301 51.8415C134.301 52.0076 134.28 52.1945 134.197 52.3606C133.948 52.9628 133.011 54.001 129.703 54.2917C129.661 54.3125 129.62 54.3333 129.599 54.3748C129.578 54.4163 129.578 54.4578 129.578 54.4994V54.5409C129.682 55.6622 129.911 56.6796 130.223 57.5517C128.912 57.4894 127.58 57.5933 127.081 57.6348C127.352 56.7004 127.497 55.5584 127.497 54.354C127.497 52.9005 127.289 51.3639 126.894 50.0558ZM129.516 53.3781C130.202 53.3158 131.804 53.0874 131.929 52.2153C131.95 52.0076 131.929 51.8 131.825 51.6131C131.471 50.9487 130.244 51.0109 129.536 51.094C129.474 51.094 129.411 51.1771 129.411 51.2809C129.37 51.8415 129.349 52.4852 129.37 53.1497C129.37 53.212 129.391 53.2743 129.411 53.3158C129.432 53.3573 129.474 53.3781 129.516 53.3781ZM124.042 49.7857C123.994 49.7913 123.931 49.7996 123.854 49.8096C123.361 49.8739 122.307 50.0113 121.191 49.9934C121.025 52.1529 120.422 55.226 119.048 57.4893C119.263 57.4983 119.56 57.592 119.909 57.7025C120.37 57.8484 120.923 58.0235 121.504 58.0707C121.558 57.5782 121.726 56.8452 121.864 56.2379L121.864 56.2377C121.883 56.1539 121.902 56.0724 121.92 55.9943C121.94 55.9112 122.003 55.7036 122.065 55.7036C122.193 55.6985 122.376 55.6871 122.591 55.6738L122.591 55.6738C123.249 55.6329 124.205 55.5735 124.77 55.6205C124.833 55.6205 124.854 55.8074 124.854 55.8905C124.892 56.1857 124.987 56.5464 125.079 56.8945L125.079 56.8946C125.187 57.3055 125.291 57.6988 125.291 57.9461C125.519 57.9254 125.665 57.8631 125.665 57.8631C125.95 57.7949 126.06 57.7205 126.149 57.6603C126.223 57.6105 126.282 57.5704 126.414 57.5516C125.415 55.5582 124.458 52.0698 124.042 49.7857ZM122.19 54.7277C122.378 54.2966 122.661 53.3655 122.928 52.4854C123.163 51.7122 123.386 50.9783 123.522 50.6578C123.813 51.5092 124.354 53.6687 124.541 54.5615C124.342 54.5899 124.031 54.5625 123.699 54.5332C123.059 54.4768 122.341 54.4134 122.19 54.7277ZM137.026 52.5893C137.026 52.5893 136.881 52.6723 136.902 52.4439L137.443 50.326C137.443 50.326 137.505 50.0145 137.671 50.1598L138.088 50.6374C138.088 50.6374 138.15 50.7828 138.067 50.9697L137.026 52.5893ZM13.0544 51.8835C13.0544 52.1119 12.9087 52.0081 12.9087 52.0081L12.0348 50.2431C11.9724 50.0562 12.0348 49.9109 12.0348 49.9109L12.4926 49.4956C12.6799 49.3918 12.7007 49.7032 12.7007 49.7032L13.0544 51.8835ZM11.7223 52.7349C11.7223 52.7349 11.868 52.8179 11.8472 52.5895L11.3062 50.4716C11.3062 50.4716 11.2438 50.1601 11.0773 50.3054L10.6611 50.783C10.6611 50.783 10.5987 50.9284 10.682 51.1153L11.7223 52.7349Z" fill="#231F20"/>
<path d="M139.21 44.3042C139.314 44.0758 139.46 43.8681 139.627 43.6812C139.814 43.5151 140.022 43.3698 140.251 43.266C140.48 43.1621 140.75 43.1206 141.021 43.1206C141.291 43.1206 141.541 43.1621 141.77 43.266C141.999 43.3698 142.207 43.4944 142.394 43.6812C142.581 43.8474 142.706 44.055 142.81 44.3042C142.914 44.5326 142.977 44.8025 142.977 45.0725C142.977 45.3632 142.914 45.6123 142.81 45.8615C142.706 46.1107 142.56 46.3183 142.394 46.4844C142.207 46.6713 141.999 46.7959 141.77 46.8997C141.541 47.0036 141.27 47.0451 141.021 47.0451C140.771 47.0451 140.5 47.0036 140.251 46.8997C140.022 46.7959 139.814 46.6713 139.627 46.4844C139.439 46.2976 139.314 46.1107 139.21 45.8615C139.106 45.6331 139.044 45.3632 139.044 45.0725C139.065 44.8025 139.106 44.5534 139.21 44.3042ZM139.543 45.7577C139.627 45.9653 139.731 46.1314 139.876 46.2976C140.022 46.4429 140.188 46.5675 140.396 46.6506C140.605 46.7336 140.813 46.7751 141.041 46.7751C141.27 46.7751 141.478 46.7336 141.666 46.6506C141.853 46.5675 142.019 46.4429 142.165 46.2976C142.311 46.1522 142.415 45.9653 142.498 45.7577C142.581 45.55 142.623 45.3216 142.623 45.0932C142.623 44.8648 142.581 44.6364 142.498 44.4288C142.415 44.2211 142.311 44.055 142.165 43.9097C142.019 43.7643 141.853 43.6397 141.666 43.5567C141.478 43.4736 141.25 43.4321 141.041 43.4321C140.813 43.4321 140.605 43.4736 140.396 43.5567C140.209 43.6397 140.022 43.7643 139.876 43.9097C139.731 44.055 139.627 44.2419 139.543 44.4288C139.46 44.6364 139.418 44.8441 139.418 45.0932C139.418 45.3216 139.46 45.55 139.543 45.7577ZM141.146 43.9512C141.416 43.9512 141.624 44.0135 141.749 44.1173C141.874 44.2211 141.936 44.3872 141.936 44.6156C141.936 44.8233 141.874 44.9686 141.77 45.0725C141.645 45.1763 141.52 45.2178 141.333 45.2386L141.978 46.256H141.603L140.979 45.2801H140.625V46.256H140.272V43.9719H141.146V43.9512ZM141 44.9479C141.083 44.9479 141.166 44.9479 141.229 44.9479C141.291 44.9479 141.374 44.9271 141.416 44.9063C141.478 44.8856 141.52 44.8441 141.562 44.8025C141.603 44.761 141.603 44.6779 141.603 44.5949C141.603 44.5118 141.582 44.4495 141.562 44.408C141.541 44.3665 141.499 44.3249 141.437 44.3042C141.395 44.2834 141.333 44.2626 141.27 44.2626C141.208 44.2626 141.146 44.2419 141.083 44.2419H140.625V44.9686H141V44.9479Z" fill="#231F20"/>
<path fill-rule="evenodd" clip-rule="evenodd" d="M45.3684 9.21844C45.428 8.85184 45.3148 8.47827 45.0617 8.2064C44.8087 7.93453 44.4442 7.79487 44.0743 7.82806L34.8148 8.65863C34.22 8.71199 33.7546 9.19385 33.7218 9.79014L32.078 39.7117C32.0581 40.0734 32.2024 40.4247 32.4706 40.6681C32.7389 40.9114 33.1026 41.0209 33.4606 40.966C40.8809 39.8284 47.0561 39.2357 51.9846 39.2357C52.3171 39.2357 52.6348 39.0979 52.8622 38.8552C53.0895 38.6124 53.2061 38.2864 53.1843 37.9545L52.6641 30.0433C52.621 29.3883 52.0605 28.8889 51.4049 28.9214L43.0964 29.3333C43.4279 23.183 44.1899 16.4676 45.3684 9.21844ZM43.7862 8.73406L34.5268 9.54387L32.883 39.237C40.3321 38.095 46.5745 37.5136 51.5891 37.5136L51.0689 29.6646L41.4349 30.1214C41.7471 23.6014 42.5169 16.4792 43.7862 8.73406Z" fill="#231F20"/>
<path fill-rule="evenodd" clip-rule="evenodd" d="M65.6916 9.06502C65.7102 8.6942 65.5563 8.33563 65.2749 8.09352C64.9934 7.85142 64.6158 7.75294 64.252 7.82673L55.1382 9.67476C54.553 9.79343 54.1435 10.3236 54.1767 10.9198L55.8413 40.8414C55.8614 41.2033 56.0438 41.5368 56.3376 41.7491C56.6314 41.9614 57.0053 42.0298 57.3552 41.9353C64.6265 39.9713 70.7008 38.7207 75.5912 38.1694C75.9214 38.1322 76.2215 37.9599 76.4202 37.6936C76.6189 37.4272 76.6985 37.0905 76.6401 36.7634L75.246 28.9559C75.1306 28.3101 74.5188 27.8759 73.8711 27.9803L65.6507 29.3057C65.3006 23.1531 65.3245 16.4129 65.6916 9.06502ZM64.0542 8.75586L54.9404 10.5831L56.5842 40.2763C63.8877 38.3036 70.026 37.0578 74.9991 36.4971L73.605 28.752L64.075 30.2678C63.6589 23.7685 63.6589 16.584 64.0542 8.75586Z" fill="#231F20"/>
<path fill-rule="evenodd" clip-rule="evenodd" d="M84.5877 3.16609C83.2087 3.03503 81.8887 3.25359 80.6361 3.84507C79.9074 4.17599 79.3038 4.5988 78.7885 5.13545C78.2784 5.6666 77.8956 6.24799 77.6459 6.85889C77.0786 8.21875 77.1686 9.53703 77.9236 10.7707C78.7853 12.1956 80.1085 12.9828 81.8406 13.1822L81.8436 13.1826C83.2613 13.3349 84.5872 13.1399 85.8081 12.5419L85.8107 12.5406C86.5093 12.192 87.1078 11.7735 87.6002 11.2821C88.1026 10.7808 88.4841 10.1715 88.7715 9.44394C89.3146 8.08811 89.2265 6.77262 88.4929 5.55949C87.653 4.15567 86.329 3.34429 84.5906 3.16637L84.5877 3.16609ZM87.5669 5.68306C86.8803 4.52025 85.7775 3.89732 84.2793 3.77273C83.0517 3.66891 81.8864 3.87655 80.7836 4.43719C80.1594 4.72789 79.6184 5.10165 79.1606 5.55847C78.682 6.03605 78.3491 6.5344 78.1202 7.03274C77.6209 8.17479 77.6625 9.23377 78.2659 10.2305C78.9734 11.3725 80.0554 12.0162 81.5743 12.1408C82.8228 12.2446 83.988 12.037 85.07 11.5179C85.7151 11.2064 86.2353 10.8534 86.6722 10.4173C87.1092 10.0021 87.4421 9.48295 87.7126 8.86001C88.212 7.73873 88.1704 6.65898 87.5669 5.68306Z" fill="#231F20"/>
<path fill-rule="evenodd" clip-rule="evenodd" d="M89.0971 14.2543C89.1213 13.884 88.9731 13.5233 88.6956 13.2769C88.4181 13.0305 88.0424 12.9261 87.6775 12.9939L78.4824 14.6962C77.8883 14.8057 77.4677 15.3391 77.4998 15.9424L78.8107 40.5898C78.8297 40.9487 79.0084 41.2803 79.2977 41.4936C79.5869 41.7069 79.9564 41.7796 80.305 41.6918L84.5081 40.6328L84.5189 40.63L88.7221 39.5295C89.3038 39.3772 89.6835 38.8185 89.611 38.2215C89.1181 34.1629 88.8494 29.7018 88.7666 24.8128L88.7662 24.7682C88.7474 22.5466 88.7373 21.3474 88.7678 20.1493C88.8036 18.7443 88.8954 17.3406 89.0947 14.2909L89.0971 14.2543ZM82.9034 14.7364L78.2841 15.5877L79.595 39.9652L83.7981 38.927L88.0013 37.8265C87.5019 33.7566 87.2314 29.2923 87.1482 24.4126C87.129 22.1717 87.1186 20.9687 87.1498 19.7668C87.1862 18.3627 87.2793 16.9601 87.4811 13.9058L82.9034 14.7364Z" fill="#231F20"/>
<path fill-rule="evenodd" clip-rule="evenodd" d="M95.5763 7.92748C94.9542 7.90627 94.4154 8.35563 94.3245 8.97143C94.1206 10.3538 93.8801 11.9945 93.6008 13.9006L93.6006 13.9019C93.1923 16.6884 92.7009 20.0419 92.1189 23.984L92.1172 23.9963L91.0778 31.5676C90.5782 34.8917 90.224 37.4073 89.9946 39.0935C89.9452 39.4565 90.0611 39.8227 90.3106 40.0911C90.56 40.3595 90.9166 40.502 91.2824 40.4793C95.2734 40.2316 98.9284 40.1288 102.248 40.1494H102.263C105.565 40.1288 108.497 40.2319 111.066 40.4761C111.404 40.5082 111.739 40.3988 111.993 40.174C112.247 39.9492 112.396 39.6292 112.405 39.2903L112.509 35.3035L112.509 35.2908L112.572 31.304C112.577 30.978 112.451 30.6635 112.224 30.4303C111.996 30.197 111.684 30.0643 111.358 30.0617L102.579 29.9905L102.861 28.4617C103.632 28.4502 104.463 28.4448 105.351 28.4588C106.16 28.4798 107.789 28.4798 110.203 28.4798H110.204H110.246C110.911 28.4798 111.455 27.9475 111.469 27.2819L111.531 24.2924L111.696 21.3236C111.715 20.9856 111.593 20.655 111.359 20.4103C111.125 20.1656 110.8 20.0288 110.461 20.0325L106.622 20.0739L104.297 20.0613L104.408 19.5224C104.468 19.2631 104.566 18.915 104.701 18.4554C105.914 18.4896 107.179 18.529 108.534 18.5941C109.197 18.636 109.88 18.6819 110.575 18.7287C111.575 18.796 112.6 18.865 113.627 18.926C113.96 18.9458 114.287 18.8286 114.532 18.6017C114.776 18.3747 114.918 18.0577 114.923 17.7241L114.985 13.7373L114.985 13.7311L115.027 9.78581C115.034 9.12151 114.509 8.57305 113.845 8.55041L95.5763 7.92748ZM103.805 16.8004C105.19 16.8391 106.667 16.8804 108.269 16.9575C109.913 17.0613 111.619 17.1859 113.388 17.352L113.429 13.386L113.471 9.48229L104.336 9.15006L95.2019 8.81783C94.7025 12.1817 93.9743 17.1444 93.0171 23.7059L91.9975 31.2226C91.5189 34.5242 91.1652 37.0159 90.9363 38.6771C94.9522 38.4487 98.6352 38.3448 101.985 38.3656C105.314 38.3656 108.29 38.4694 110.912 38.7186L111.016 34.7734L111.057 30.8074L105.939 30.7451L100.82 30.6828L101.548 26.7791C102.589 26.7583 103.775 26.7375 105.086 26.7583C105.876 26.7791 107.499 26.7791 109.955 26.7791L110.017 23.789L110.163 20.8197L106.313 20.8404L102.485 20.8197L102.901 18.8263C103.003 18.3757 103.207 17.7029 103.472 16.8279L103.483 16.7914C103.59 16.7944 103.697 16.7974 103.805 16.8004Z" fill="#231F20"/>
<path fill-rule="evenodd" clip-rule="evenodd" d="M15.2589 7.45898C13.8623 7.45898 12.4707 7.66439 11.1152 8.12952C9.7962 8.56167 8.5851 9.15478 7.44434 9.92888L7.4341 9.9359C6.31628 10.7099 5.29658 11.6387 4.37414 12.7164C4.36777 12.7238 4.36148 12.7314 4.35528 12.7389C3.46606 13.826 2.68326 15.0077 2.03311 16.3053C1.37814 17.6125 0.888459 19.018 0.535568 20.4926L0.534554 20.4969C0.177558 22.011 0 23.5661 0 25.1598C0 26.7534 0.177527 28.2909 0.536627 29.7691C0.891502 31.2299 1.38233 32.5909 2.03311 33.8897C2.67973 35.1803 3.44585 36.3534 4.37791 37.4207C5.2778 38.4749 6.30133 39.4085 7.45198 40.1675C8.59476 40.9419 9.8285 41.5346 11.1284 41.9453C12.4575 42.3861 13.8442 42.5907 15.2589 42.5907C16.769 42.5907 18.1864 42.3618 19.5486 41.9539L19.5642 41.9492L19.5678 41.948C20.9272 41.5185 22.1786 40.9286 23.3396 40.1789C23.348 40.1735 23.3564 40.168 23.3647 40.1623C24.4822 39.404 25.5467 38.5027 26.4831 37.4327C27.4405 36.3624 28.229 35.1666 28.8758 33.898L28.88 33.8897C29.5272 32.598 30.0405 31.2171 30.3972 29.7483C30.7563 28.2701 30.9339 26.7326 30.9339 25.139C30.9339 23.5261 30.7567 21.9693 30.3983 20.4718C30.0427 18.986 29.5306 17.5839 28.8819 16.2885C28.2315 14.9688 27.4424 13.7744 26.4922 12.6896C25.5638 11.606 24.5177 10.6751 23.3547 9.90138C22.185 9.12321 20.9275 8.53133 19.5678 8.10163C18.1802 7.66316 16.7552 7.45898 15.2589 7.45898ZM15.0914 16.8216C15.5866 16.567 16.0869 16.4483 16.653 16.4483C17.2836 16.4483 17.8809 16.5889 18.416 16.839C18.9695 17.1085 19.4295 17.4707 19.8382 17.9438C20.2407 18.4098 20.5758 18.9864 20.8163 19.6893C21.0549 20.3867 21.1823 21.1748 21.1823 22.0659C21.1823 22.8574 21.0599 23.5973 20.8243 24.2741C20.5499 25.0008 20.2191 25.6116 19.8105 26.1173C19.3976 26.6282 18.9108 27.0302 18.3679 27.317C18.3591 27.3217 18.3504 27.3264 18.3417 27.3313C17.8505 27.6052 17.2848 27.7458 16.653 27.7458C16.1387 27.7458 15.6483 27.6116 15.1265 27.3289C14.6347 27.0514 14.1848 26.6567 13.7822 26.1378C13.3805 25.62 13.0499 25.0029 12.8002 24.2924C12.5577 23.582 12.4358 22.8557 12.4358 22.0659C12.4358 21.1748 12.5632 20.3867 12.8018 19.6893C13.0491 18.9667 13.3721 18.3858 13.7554 17.9236L13.7692 17.9066C14.1582 17.4214 14.5942 17.0698 15.0773 16.8288L15.0914 16.8216ZM18.963 8.75527C17.7146 8.36075 16.4037 8.17387 15.0304 8.17387C13.7195 8.17387 12.471 8.36075 11.285 8.75527C10.0781 9.12903 8.95451 9.68967 7.91412 10.3957C6.87374 11.1017 5.93739 11.9738 5.08427 12.9705C4.23116 13.9671 3.50289 15.0884 2.89946 16.2928C2.29604 17.5179 1.81746 18.826 1.48454 20.2172C1.15162 21.6292 0.985154 23.0827 0.985154 24.5778C0.985154 26.0936 1.15162 27.5263 1.48454 28.8968C1.81746 30.2672 2.29604 31.5339 2.89946 32.7382C3.50289 33.9218 4.23116 35.0223 5.08427 35.9982C5.93739 36.9741 6.87374 37.8255 7.91412 38.5107C8.95451 39.2167 10.0781 39.7566 11.285 40.1303C12.471 40.5248 13.7403 40.7117 15.0304 40.7117C16.4037 40.7117 17.7146 40.5041 18.963 40.1303C20.2115 39.7358 21.3767 39.1959 22.4379 38.5107C23.5199 37.8255 24.4771 36.9741 25.351 35.9982C26.2249 35.0223 26.974 33.9425 27.5774 32.7382C28.1808 31.5339 28.6594 30.2465 28.9923 28.876C29.3253 27.5056 29.4917 26.0728 29.4917 24.5778C29.4917 23.062 29.3253 21.6292 28.9923 20.2172C28.6594 18.8053 28.1808 17.4971 27.5774 16.2928C26.9532 15.0884 26.2249 13.9671 25.351 12.9705C24.4771 11.953 23.4991 11.1017 22.4379 10.3957C21.3767 9.68967 20.2115 9.1498 18.963 8.75527ZM18.7758 27.9001C18.0475 28.2946 17.2776 28.4815 16.4245 28.4815C15.6546 28.4815 14.9263 28.2946 14.2397 27.9001C13.5738 27.5263 12.9704 27.0072 12.471 26.3635C11.9716 25.7198 11.5763 24.9723 11.285 24.1417C10.9937 23.2904 10.848 22.4183 10.848 21.4839C10.848 20.4664 10.9937 19.532 11.285 18.6807C11.5763 17.8293 11.9716 17.0818 12.471 16.4796C12.9704 15.8567 13.553 15.3791 14.2397 15.0469C14.9263 14.6939 15.6546 14.5278 16.4245 14.5278C17.2776 14.5278 18.0475 14.6939 18.7758 15.0469C19.4832 15.3999 20.1075 15.8775 20.6276 16.4796C21.1478 17.1026 21.564 17.8293 21.8553 18.6807C22.1466 19.532 22.2923 20.4664 22.2923 21.4839C22.2923 22.4183 22.1466 23.3111 21.8553 24.1417C21.564 24.9723 21.1478 25.7198 20.6276 26.3635C20.1075 27.0072 19.504 27.5263 18.7758 27.9001Z" fill="#231F20"/>
<path fill-rule="evenodd" clip-rule="evenodd" d="M126.509 2.26132C126.637 1.89126 126.57 1.48152 126.33 1.17216C126.09 0.862807 125.709 0.695744 125.319 0.728087L119.306 1.22643C118.784 1.26967 118.356 1.65746 118.262 2.1724L116.577 11.3918C116.511 11.7508 116.618 12.1196 116.866 12.3873C117.114 12.655 117.474 12.7901 117.837 12.752L121.395 12.3782C121.91 12.3241 122.327 11.9346 122.415 11.4243C122.66 10.0135 123.263 8.8178 124.054 7.38713C124.132 7.24621 124.211 7.10318 124.292 6.95776C125.02 5.64957 125.856 4.14831 126.509 2.26132ZM122.842 5.96304C123.572 4.66023 124.359 3.25508 124.977 1.48779L118.943 1.96537L117.258 11.1017L120.837 10.7487C121.146 8.99102 121.951 7.55327 122.842 5.96304Z" fill="#231F20"/>
</svg>
