<svg width="180" height="30" viewBox="0 0 180 30" fill="none" xmlns="http://www.w3.org/2000/svg">
<g clip-path="url(#clip0_33_207)">
<path d="M81.3568 22.8093H0L17.1287 0H98.499L81.3703 22.8093M36.9619 5.85475L31.35 13.2472C31.35 13.2472 30.3403 14.5921 30.8091 15.9369C31.0572 16.5356 31.4701 17.0526 32.0003 17.4285C32.5306 17.8044 33.1566 18.0239 33.8066 18.0619L36.4571 18.1919C36.4571 18.1919 36.6734 18.1919 36.998 18.1919C38.1169 18.222 39.232 18.0488 40.2885 17.6808C41.4057 17.1448 42.4165 16.4128 43.2725 15.52C43.4528 15.3183 50.7144 5.82785 50.7144 5.82785H45.0259L39.4546 13.4803C39.2438 13.7558 38.9707 13.9781 38.6575 14.1292C38.3442 14.2803 37.9996 14.3559 37.6516 14.35C37.043 14.35 36.2723 13.6461 37.1152 12.7092C37.4487 12.3237 42.371 5.85475 42.371 5.85475H36.9619ZM30.0563 5.91303H29.9482L22.087 5.94441L13.2071 17.8512H18.1654L20.32 15.1928H25.4136C28.952 15.1928 30.3719 13.023 30.3719 13.023L32.0938 10.7008C32.0938 10.7008 33.2838 9.08697 32.6572 7.41482C32.1343 6.02062 30.5206 5.91751 30.0609 5.91751M52.6662 5.85923L43.6511 17.8332H48.6094L53.1891 12.104L53.4505 14.9103L58.6613 12.2744L54.4242 17.7884H59.6439L68.659 5.81889H62.709L57.4713 8.93455L57.1332 5.85475H52.6617M68.7672 15.3855H72.2966L70.4936 17.7615H75.6773C75.6773 17.7615 80.4147 11.8081 80.7798 11.2747C81.1474 10.6978 81.3511 10.0327 81.3693 9.34999C81.3876 8.66728 81.2197 7.99238 80.8835 7.39689C79.982 5.88165 77.9626 5.82337 77.6606 5.82337H70.7685L61.8075 17.7615H66.9191L68.7672 15.3855ZM75.3888 11.6557H71.5889L73.1034 9.61596H75.6637C75.7905 9.59801 75.9196 9.625 76.0284 9.69221C76.1372 9.75942 76.2187 9.86257 76.2587 9.98356C76.3077 10.15 76.2882 10.329 76.2046 10.4812L75.3888 11.6557ZM25.2423 11.5436H23.5565L25.2062 9.36043H26.5945C26.8019 9.36043 27.3744 9.39629 27.4961 9.77286C27.6628 10.3422 27.0002 11.0684 26.6982 11.2478C26.2567 11.4664 25.7666 11.5698 25.2738 11.5481" fill="black"/>
<path fill-rule="evenodd" clip-rule="evenodd" d="M82.5654 22.8093H164.062H164.08L181.209 0H99.7076L82.5654 22.8093ZM119.711 16.0825C119.877 16.0869 120.042 16.0894 120.208 16.0894C121.304 16.134 122.396 15.927 123.399 15.4842C125.061 14.6363 126.773 13.8878 128.524 13.2427C129.046 13.0561 129.588 12.9361 130.138 12.885C131.66 13.0056 133.156 13.351 134.577 13.9107C137.282 14.861 140.437 15.6456 140.437 15.6456C145.108 16.323 150.425 18.1187 153.033 18.9996C153.67 19.2146 154.145 19.3751 154.41 19.4516C155.047 19.6566 155.708 19.7772 156.376 19.8102V19.8013C156.562 19.8013 156.734 19.7817 156.88 19.7379C157.124 19.7739 157.369 19.798 157.616 19.8102C158.139 19.8102 158.518 19.6668 158.572 19.2857C158.684 18.5012 157.445 18.5012 156.661 18.5012C155.897 18.4164 155.148 18.2248 154.438 17.9319C154.438 17.9319 150.774 15.7487 149.539 14.9103C148.304 14.072 148.02 13.3413 148.975 13.1754C148.981 13.1743 148.988 13.1731 148.994 13.172C149.168 13.196 149.342 13.2261 149.517 13.2563C149.85 13.3139 150.187 13.3721 150.538 13.3906C150.721 13.4017 150.885 13.4066 151.036 13.4111C151.684 13.4306 152.092 13.4428 152.684 13.8972C152.85 14.0458 153.061 14.1343 153.284 14.1482C153.373 14.1452 153.461 14.1208 153.54 14.0771C153.618 14.0335 153.685 13.9718 153.734 13.8972C153.758 13.8817 153.782 13.866 153.806 13.8501C153.829 13.8667 153.852 13.8838 153.875 13.9017C154.04 14.0503 154.252 14.1388 154.474 14.1527C154.564 14.1497 154.652 14.1253 154.73 14.0816C154.809 14.0379 154.876 13.9762 154.925 13.9017C155.516 13.5175 156.045 13.0458 156.494 12.503C156.89 11.8888 156.552 11.6064 156.552 11.6064C156.552 11.6064 156.327 11.046 155.709 9.48147C155.169 8.09175 153.424 7.84519 152.883 7.84519H152.73C152.705 7.84937 152.679 7.84937 152.653 7.84519C152.59 7.83891 152.529 7.82021 152.473 7.7902C152.418 7.76018 152.369 7.71944 152.329 7.67035L151.77 6.94411C151.77 6.94411 151.451 7.20027 150.99 7.489L150.574 6.94861C150.574 6.94861 149.36 7.9254 148.242 8.21408C147.657 8.08828 147.211 7.88791 146.684 7.65136C145.585 7.15788 144.134 6.50699 140.348 6.04752C139.275 5.92731 138.196 5.87042 137.116 5.87717C136.889 5.87717 136.661 5.87924 136.432 5.88322C136.261 5.88112 136.091 5.8806 135.92 5.88166C130.864 5.88166 125.045 6.91846 123.132 7.25918C122.925 7.29603 122.764 7.32473 122.655 7.34311C122.531 7.36137 122.406 7.37595 122.281 7.38684C121.599 7.35308 120.918 7.28012 120.244 7.16826C117.103 6.78881 113.942 6.60614 110.778 6.62134C110.48 6.62126 110.181 6.62248 109.883 6.62499C109.783 6.62508 109.683 6.62536 109.583 6.62583C106.016 6.62292 102.452 6.80548 98.9044 7.17275C98.9044 7.17275 97.0473 7.41483 97.16 7.9752C97.2727 8.53558 98.7917 8.53558 98.7917 8.53558H99.1208C99.23 8.53375 99.4095 8.52113 99.6468 8.50069C99.8532 8.51763 100.001 8.51763 100.001 8.51763H100.33C100.591 8.51763 101.256 8.45296 102.153 8.36574C103.726 8.21268 106.014 7.99017 108.087 7.92593C111.514 7.93571 115.56 8.25315 115.56 8.25315H115.596C116.79 8.30404 117.979 8.42981 119.157 8.62972C119.415 8.66404 119.663 8.75105 119.886 8.88528C120.108 9.01952 120.301 9.19808 120.451 9.40975C120.617 9.66977 120.541 9.97012 120.225 10.4184C119.431 11.211 118.555 11.9173 117.611 12.5254C117.137 12.7802 116.616 12.9316 116.083 12.9725C115.939 12.9687 115.795 12.9622 115.651 12.9513H115.552C115.433 12.9452 115.314 12.951 115.197 12.9681C115.123 12.9658 115.05 12.963 114.976 12.9603C114.798 12.9535 114.62 12.9468 114.442 12.9468H114.343C114.052 12.932 113.762 12.9875 113.497 13.1085C113.233 13.2295 113.002 13.4125 112.824 13.6417C111.775 14.6856 110.588 15.5816 109.294 16.3046C108.841 16.5409 108.405 16.8106 107.992 17.1115C107.324 17.455 106.595 17.6638 105.846 17.7257C105.161 17.7794 105.107 18.0753 105.107 18.0753L104.597 18.9271C104.309 19.3754 104.832 19.4023 104.832 19.4023C105.356 19.4972 105.886 19.5482 106.419 19.5547C106.614 19.5547 106.8 19.5455 106.977 19.5274C107.193 19.545 107.41 19.5556 107.627 19.5592C109.117 19.5592 109.991 19.0208 111.571 18.0477C111.904 17.8427 112.268 17.6185 112.676 17.376C114.357 16.3691 115.455 16.0321 116.442 15.9527C116.62 15.964 116.803 15.9781 116.992 15.9927C117.2 16.0088 117.417 16.0256 117.647 16.0401C118.098 16.0894 118.548 16.0894 118.999 16.0894C119.237 16.0989 119.475 16.0966 119.711 16.0825Z" fill="black"/>
<path d="M18.0032 29.8881H15.8891C15.781 29.8881 15.7539 29.8881 15.7539 29.7536V25.6472C15.7539 25.5306 15.781 25.5127 15.8891 25.5127H17.9942C18.1249 25.5127 18.1609 25.5127 18.1609 25.5844L18.1339 25.6741L18.0122 26.1C18.01 26.1159 18.0046 26.1313 17.9964 26.1452C17.9881 26.1591 17.9771 26.1711 17.9641 26.1807C17.9511 26.1904 17.9363 26.1973 17.9206 26.2011C17.9048 26.2049 17.8885 26.2056 17.8725 26.2031H16.6239V27.2566H17.7102C17.8319 27.2566 17.8499 27.2566 17.8499 27.3911V27.7945C17.8499 27.9111 17.8229 27.929 17.7102 27.929H16.6239V29.1798H17.9761C18.0978 29.1798 18.1159 29.1798 18.1159 29.3142V29.7356C18.1159 29.8522 18.1159 29.8701 17.9851 29.8701" fill="black"/>
<path d="M29.4116 29.8881H28.9879C28.8977 29.8881 28.8752 29.8881 28.8391 29.7984L27.6671 27.6197C27.5042 27.3503 27.3812 27.0589 27.302 26.7545C27.302 26.8352 27.302 27.1624 27.302 27.4538V29.7536C27.302 29.8701 27.302 29.8881 27.1713 29.8881H26.7206C26.6079 29.8881 26.5898 29.8881 26.5898 29.7536V25.6472C26.5898 25.5306 26.5898 25.5127 26.7206 25.5127H27.2479C27.3426 25.5127 27.3606 25.5127 27.3967 25.5934L28.456 27.5749C28.612 27.8708 28.7373 28.1817 28.8301 28.5028C28.8301 28.3011 28.8301 27.8528 28.8301 27.6735V25.6472C28.8301 25.5306 28.8571 25.5127 28.9608 25.5127H29.4116C29.5243 25.5127 29.5513 25.5127 29.5513 25.6472V29.7536C29.5513 29.8701 29.5513 29.8881 29.4116 29.8881Z" fill="black"/>
<path d="M40.4954 29.8881H38.3858C38.2731 29.8881 38.2461 29.8881 38.2461 29.7536V25.6472C38.2461 25.5306 38.2731 25.5127 38.3858 25.5127H40.4954C40.6171 25.5127 40.6531 25.5127 40.6531 25.5844V25.6741L40.5314 26.1C40.5238 26.1333 40.5038 26.1625 40.4753 26.1817C40.4468 26.2008 40.4121 26.2085 40.3782 26.2031H39.1161V27.2566H40.2024C40.3241 27.2566 40.3421 27.2566 40.3421 27.3911V27.7945C40.3421 27.9111 40.3151 27.929 40.2024 27.929H39.1161V29.1798H40.4954C40.608 29.1798 40.6261 29.1798 40.6261 29.3142V29.7356C40.6261 29.8522 40.6261 29.8701 40.4954 29.8701" fill="black"/>
<path d="M51.2288 30.0001C51.1927 30.0001 51.1431 29.9195 51.08 29.7984L50.21 28.0814H49.899V29.7536C49.899 29.8701 49.899 29.8881 49.7683 29.8881H49.1688C49.0651 29.8881 49.0381 29.8881 49.0381 29.7536V25.6472C49.0381 25.5306 49.0651 25.5127 49.1688 25.5127H50.21C50.7059 25.5127 51.7066 25.5486 51.7066 26.7455C51.7264 26.9942 51.6664 27.2428 51.5352 27.4555C51.404 27.6682 51.2083 27.834 50.9763 27.929L51.9319 29.6325L51.9905 29.7536L51.8553 29.8343L51.3144 29.9822H51.2288M49.8765 26.1672V27.3911H50.0433C50.467 27.3911 50.8231 27.3283 50.8231 26.741C50.8231 26.1538 50.4489 26.1672 50.1199 26.1672H49.8765Z" fill="black"/>
<path d="M61.8162 30.0002C60.6803 30.0002 60.0898 29.2695 60.0898 27.7229C60.0898 26.1763 60.6803 25.4097 61.8253 25.4097C62.4067 25.4097 63.0243 25.6876 63.0243 25.7952L62.9837 25.8893L62.7809 26.3376L62.7042 26.4004C62.454 26.2391 62.1675 26.1421 61.8703 26.118C61.2167 26.118 61.0094 26.7232 61.0094 27.7005C61.0094 28.6777 61.1671 29.3278 61.8703 29.3278C62.026 29.3278 62.1798 29.2942 62.3211 29.2292V28.2788H61.8433C61.7396 28.2788 61.7126 28.2788 61.7126 28.1488V27.7229C61.7126 27.6108 61.7396 27.5884 61.8433 27.5884H62.9702C63.0693 27.5884 63.1009 27.6108 63.1009 27.7229V29.5161C63.1009 29.785 62.3391 30.0182 61.8162 30.0182" fill="black"/>
<path d="M73.112 29.8881H72.526C72.4088 29.8881 72.3818 29.8881 72.3818 29.7536V28.0949L71.1737 25.7682L71.1377 25.6337L71.2684 25.562L71.913 25.4634H71.9806L72.0708 25.5486L72.5981 26.6424C72.7016 26.8666 72.786 27.0991 72.8506 27.3373C72.9226 27.0798 73.0176 26.8292 73.1345 26.5886L73.6123 25.5934C73.6664 25.4634 73.6845 25.4634 73.716 25.4634H73.8152L74.3606 25.5799L74.4733 25.6606L74.4282 25.7637L73.2337 28.0904V29.7491C73.2337 29.8657 73.2067 29.8836 73.094 29.8836" fill="#1D1D1B"/>
</g>
<defs>
<clipPath id="clip0_33_207">
<rect width="180" height="30" fill="white"/>
</clipPath>
</defs>
</svg>
