<svg width="180" height="22" viewBox="0 0 180 22" fill="none" xmlns="http://www.w3.org/2000/svg">
<g clip-path="url(#clip0_33_145)">
<path d="M12.1019 6.35654C11.9185 5.07301 10.8183 3.11715 8.00679 3.11715C5.86757 3.11715 4.40068 4.52292 4.40068 6.11205C4.40068 7.45671 5.25637 8.43464 6.8455 8.80136L9.84041 9.41256C13.5688 10.146 15.5246 12.4686 15.5246 15.4635C15.5246 18.7029 12.8964 21.82 8.06791 21.82C2.81154 21.9423 0.305603 18.4584 0 15.4635L3.30051 14.4856C3.48387 16.6859 5.073 18.7029 8.12903 18.7029C10.635 18.7029 11.9796 17.4194 11.9796 15.7691C11.9796 14.4244 10.9406 13.3243 9.16808 12.8964L6.17317 12.2852C2.99491 11.6129 0.855688 9.5348 0.855688 6.35654C0.855688 2.93379 4.03396 0 8.00679 0C12.9576 0 14.9134 2.99491 15.3413 5.37861L12.1019 6.35654ZM37.2835 16.1969H28.4211L26.4652 21.4533H22.6757L30.8659 0.427844H34.9609L43.1511 21.4533H39.2394L37.2835 16.1969ZM29.6435 12.8964H36.0611L32.8829 4.27844L29.6435 12.8964ZM65.8879 21.4533L55.4975 5.50085V21.4533H51.9525V0.427844H56.4754L66.0102 15.3413V0.427844H69.5552V21.4533H65.8879ZM80.5569 21.4533V0.427844H88.0136C93.7589 0.427844 98.2207 4.21732 98.2207 11.0017C98.2207 17.725 93.6367 21.4533 87.9525 21.4533H80.5569ZM87.8302 18.2139C91.4974 18.2139 94.4924 15.8913 94.4924 11.0017C94.4924 6.05093 91.4974 3.72835 87.8302 3.72835H84.0407V18.2139H87.8302V18.2139ZM107.878 21.4533V0.427844H111.423V18.0917H121.08V21.4533H107.878V21.4533ZM159.708 13.1409H157.08V21.4533H153.474V0.427844H161.542C165.576 0.427844 168.143 3.23939 168.143 6.78438C168.143 9.77929 166.309 12.0407 163.375 12.7742L168.143 21.4533H164.109L159.708 13.1409ZM160.93 10.0238C163.131 10.0238 164.537 8.74024 164.537 6.8455C164.537 4.88964 163.131 3.60611 160.93 3.60611H157.08V10.0238H160.93Z" fill="black"/>
<path d="M139.415 18.1527V21.4532H126.396V18.1527H139.415V18.1527ZM131.225 9.41245V12.713H144.244V9.41245H131.225ZM136.054 0.427734V3.72824H149.072V0.427734H136.054Z" fill="black"/>
<path d="M173.094 3.2396C173.094 3.48408 173.155 3.60632 173.216 3.78968C173.399 4.03416 173.705 4.15641 174.072 4.15641C174.255 4.15641 174.439 4.15641 174.561 4.09528C174.866 3.97304 174.989 3.78968 174.989 3.48408C174.989 3.30072 174.927 3.11736 174.805 3.05624C174.683 2.99511 174.5 2.87287 174.194 2.81175L173.705 2.68951C173.399 2.62839 173.155 2.50615 173.033 2.44503C172.788 2.26167 172.666 2.01719 172.666 1.71158C172.666 1.34486 172.788 1.10038 173.033 0.855896C173.277 0.611414 173.583 0.550293 174.011 0.550293C174.377 0.550293 174.744 0.672534 174.989 0.855896C175.233 1.03926 175.416 1.34486 175.416 1.7727H174.927C174.927 1.58934 174.866 1.40598 174.744 1.28374C174.622 1.10038 174.316 0.978137 173.95 0.978137C173.644 0.978137 173.461 1.03926 173.338 1.1615C173.216 1.28374 173.155 1.4671 173.155 1.58934C173.155 1.7727 173.216 1.89495 173.399 2.01719C173.522 2.07831 173.705 2.13943 174.072 2.20055L174.622 2.32279C174.866 2.38391 175.05 2.44503 175.233 2.56727C175.478 2.75063 175.6 2.99511 175.6 3.36184C175.6 3.78968 175.478 4.09528 175.172 4.27865C174.866 4.46201 174.5 4.52313 174.133 4.52313C173.644 4.52313 173.277 4.40089 173.033 4.15641C172.788 3.91192 172.666 3.60632 172.666 3.17848H173.094V3.2396Z" fill="black"/>
<path d="M176.273 0.672363H177.007L178.107 3.91175L179.207 0.672363H179.941V4.52296H179.452V2.20038C179.452 2.13926 179.452 2.01702 179.452 1.83365C179.452 1.65029 179.452 1.46693 179.452 1.22245L178.352 4.46184H177.863L176.762 1.22245V1.34469C176.762 1.46693 176.762 1.58917 176.762 1.77253C176.762 1.95589 176.762 2.07814 176.762 2.20038V4.46184H176.273V0.672363Z" fill="black"/>
</g>
<defs>
<clipPath id="clip0_33_145">
<rect width="180" height="21.9423" fill="white"/>
</clipPath>
</defs>
</svg>
