<svg width="149" height="40" viewBox="0 0 149 40" fill="none" xmlns="http://www.w3.org/2000/svg">
<path d="M35.3574 6.10809L42.2508 24.0597H48.1807L38.6929 0.521484H31.9477L22.46 24.0597H37.4328L35.5797 19.218H30.317L35.3574 6.10809Z" fill="black"/>
<path d="M112.295 6.10809L105.402 24.0597H99.4717L108.959 0.521484H115.631L125.118 24.0597H110.145L111.998 19.218H117.261L112.295 6.10809Z" fill="black"/>
<path d="M47.3604 0.521484L56.8481 24.0597H63.5933L73.0811 0.521484H67.0771L60.1836 18.4731L53.2902 0.521484H47.3604Z" fill="black"/>
<path d="M12.1562 9.90664L10.8961 9.68318C8.00529 9.23625 6.00397 8.78932 6.00397 7.37405C6.07809 5.88429 7.7088 5.06492 10.1549 5.06492C12.675 5.06492 15.047 5.88429 17.0483 7.0761L18.9755 2.30886C16.0106 0.744611 13.268 0.0742188 9.93249 0.0742188C4.22501 0.0742188 0.0741231 3.12823 0.0741231 7.82098C0.0741231 11.8433 3.11317 14.078 7.78292 14.7484L9.04301 14.9718C12.1562 15.4188 13.9351 15.9402 13.9351 17.281C13.9351 18.8452 12.1562 19.5901 9.78424 19.5901C6.44871 19.5901 3.78028 18.3983 1.9272 17.0575L0 21.9737C2.59431 23.6869 6.22634 24.5063 9.78424 24.5063C14.9729 24.5063 19.9391 22.1227 19.9391 16.6106C19.9391 12.8117 16.7518 10.6515 12.1562 9.90664Z" fill="black"/>
<path d="M140.465 9.90691L139.205 9.68345C136.314 9.23652 134.313 8.78959 134.313 7.37432C134.387 5.88456 136.017 5.06519 138.463 5.06519C140.984 5.06519 143.356 5.88456 145.357 7.07637L147.284 2.30913C144.319 0.744881 141.577 0 138.241 0C132.534 0 128.457 3.05401 128.457 7.74676C128.457 11.7691 131.496 14.0038 136.166 14.6741L137.426 14.8976C140.539 15.3445 142.318 15.866 142.318 17.2067C142.318 18.771 140.539 19.5159 138.167 19.5159C134.831 19.5159 132.163 18.3241 130.31 16.9833L128.309 21.8995C130.903 23.6127 134.535 24.4321 138.093 24.4321C143.281 24.4321 148.248 22.0485 148.248 16.5363C148.248 12.8119 145.06 10.6518 140.465 9.90691Z" fill="black"/>
<path d="M74.5713 0.521484L84.059 24.0597H90.8042L100.292 0.521484H94.288L87.3946 18.4731L80.5011 0.521484H74.5713Z" fill="black"/>
<path d="M6.45093 39.8508H0.96582V31.9551H2.00354V38.8825H6.45093V39.8508Z" fill="black"/>
<path d="M14.9743 39.8508H9.41504V31.9551H14.9001V32.9234H10.3786V35.3815H14.7519V36.3499H10.3786V38.8825H14.9743V39.8508Z" fill="black"/>
<path d="M25.3506 39.8508H24.3129L23.4234 37.6907H19.6431L18.7536 39.8508H17.79L20.9773 31.9551H22.2374L25.3506 39.8508ZM20.0137 36.7223H23.0528L21.4962 32.9234L20.0137 36.7223Z" fill="black"/>
<path d="M31.4336 31.9551C33.2125 31.9551 34.1761 32.7744 34.1761 34.1897C34.1761 35.5305 33.1384 36.4244 31.4336 36.4244H31.3595L34.102 39.8508H32.916L30.2476 36.4244H29.3581V39.8508H28.3945V31.9551H31.4336ZM29.284 32.9234V35.605H31.3595C32.5454 35.605 33.0643 35.1581 33.0643 34.2642C33.0643 33.3704 32.4713 32.9234 31.3595 32.9234H29.284V32.9234Z" fill="black"/>
<path d="M44.1077 39.8508H43.2182L38.4743 33.6683V39.8508H37.5107V31.9551H38.4002L43.1441 38.1376V31.9551H44.1077V39.8508Z" fill="black"/>
<path d="M48.9226 31.9551H47.959V39.8508H48.9226V31.9551Z" fill="black"/>
<path d="M59.3752 39.8508H58.4857L53.7418 33.6683V39.8508H52.7041V31.9551H53.5936L58.3375 38.1376V31.9551H59.3752V39.8508Z" fill="black"/>
<path d="M69.8258 33.1469L69.0845 33.8173C68.5657 33.1469 67.7503 32.7744 66.7867 32.7744C65.0819 32.7744 63.7477 34.0407 63.7477 35.9029C63.7477 37.7651 65.0819 39.0314 66.7126 39.0314C68.3433 39.0314 69.3069 38.0631 69.4552 36.5733H67.0832V35.6795H70.4929C70.4929 35.7539 70.4929 35.8284 70.4929 35.9029C70.4929 38.212 69.0845 39.9998 66.7126 39.9998C64.6372 39.9998 62.71 38.51 62.71 35.9774C62.71 33.5938 64.4148 31.9551 66.7867 31.9551C68.0468 31.8061 69.0845 32.3275 69.8258 33.1469Z" fill="black"/>
<path d="M85.5414 33.4451L84.7261 33.9666C84.2072 33.2217 83.3918 32.7003 82.3541 32.7003C80.6493 32.7003 79.3151 33.9666 79.3151 35.8288C79.3151 37.691 80.6493 38.9573 82.3541 38.9573C83.3918 38.9573 84.2072 38.5103 84.7261 37.691L85.5414 38.2869C84.8743 39.2552 83.6883 39.8511 82.3541 39.8511C79.9822 39.8511 78.2773 38.1379 78.2773 35.8288C78.2773 33.4451 79.9822 31.8064 82.3541 31.8064C83.7625 31.8064 84.9484 32.4768 85.5414 33.4451Z" fill="black"/>
<path d="M96.2873 35.903C96.2873 38.2866 94.5825 39.9253 92.2106 39.9253C89.8386 39.9253 88.1338 38.2121 88.1338 35.903C88.1338 33.5194 89.8386 31.8806 92.2106 31.8806C94.5825 31.8806 96.2873 33.5194 96.2873 35.903ZM89.2456 35.903C89.2456 37.7652 90.5798 39.0315 92.2847 39.0315C93.9895 39.0315 95.3237 37.7652 95.3237 35.903C95.3237 34.0408 93.9895 32.7745 92.2847 32.7745C90.5798 32.7745 89.2456 34.0408 89.2456 35.903Z" fill="black"/>
<path d="M107.925 39.8508H106.961V33.0724L104.367 38.957H103.329L100.661 33.0724V39.8508H99.6973V31.9551H101.18L103.848 37.8396L106.442 31.9551H107.925V39.8508Z" fill="black"/>
<path d="M112.821 36.6478V39.7763H111.857V31.9551H114.822C116.601 31.9551 117.565 32.8489 117.565 34.3387C117.565 35.8285 116.601 36.7223 114.822 36.7223H112.821V36.6478ZM112.821 32.9234V35.754H114.822C116.008 35.754 116.601 35.307 116.601 34.3387C116.601 33.3704 116.008 32.9234 114.822 32.9234H112.821Z" fill="black"/>
<path d="M126.827 39.8508H125.789L124.9 37.6907H121.12L120.23 39.8508H119.192L122.38 31.9551H123.64L126.827 39.8508ZM121.49 36.7223H124.529L122.973 32.9234L121.49 36.7223Z" fill="black"/>
<path d="M136.387 39.8508H135.497L130.754 33.6683V39.8508H129.716V31.9551H130.605L135.349 38.1376V31.9551H136.387V39.8508Z" fill="black"/>
<path d="M143.283 36.5733V39.8508H142.319V36.5733L139.206 31.9551H140.392L142.838 35.605L145.21 31.9551H146.396L143.283 36.5733Z" fill="black"/>
</svg>
