<svg width="180" height="34" viewBox="0 0 180 34" fill="none" xmlns="http://www.w3.org/2000/svg">
<g clip-path="url(#clip0_33_338)">
<path d="M50.4326 27.1499V27.6101H48.4398V29.0673H50.126V29.5274H48.4398V31.2914H47.9033V27.1499H50.4326Z" fill="black"/>
<path d="M53.0768 31.2531H52.502V27.1499H53.0768V31.2531Z" fill="black"/>
<path d="M55.8744 27.1497C55.9128 27.1497 55.9128 27.188 55.9511 27.2264L58.3271 30.3325C58.3271 30.2941 58.3271 30.2175 58.3271 30.1791C58.3271 30.1408 58.3271 30.1024 58.3271 30.0257V27.1113H58.8253V31.2145H58.557C58.5187 31.2145 58.4804 31.2145 58.442 31.1761C58.4037 31.1378 58.3654 31.1378 58.3654 31.0994L55.9894 27.9933C55.9894 28.0317 55.9894 28.07 55.9894 28.1467C55.9894 28.1851 55.9894 28.2234 55.9894 28.2617V31.2145H55.4912V27.1497H55.7978C55.7978 27.1497 55.8361 27.1497 55.8744 27.1497Z" fill="black"/>
<path d="M63.6152 27.1499V27.6101H61.6225V28.9906H63.232V29.4124H61.6225V30.8312H63.6152V31.2914H61.0859V27.1499H63.6152Z" fill="black"/>
<path d="M67.6006 27.1499H68.0605C68.0988 27.1499 68.1371 27.1499 68.1754 27.1882C68.2137 27.2266 68.2137 27.2266 68.2521 27.2649L69.0952 30.141C69.0952 30.1793 69.1335 30.256 69.1335 30.2944C69.1335 30.3711 69.1718 30.4094 69.1718 30.4861C69.1718 30.4094 69.2101 30.3711 69.2101 30.2944C69.2101 30.2177 69.2484 30.1793 69.2484 30.141L70.2065 27.2649C70.2065 27.2266 70.2448 27.1882 70.2831 27.1882C70.3215 27.1499 70.3598 27.1499 70.3981 27.1499H70.5514C70.5897 27.1499 70.6281 27.1499 70.6664 27.1882C70.7047 27.2266 70.7047 27.2266 70.743 27.2649L71.7011 30.141C71.7394 30.256 71.7777 30.3711 71.7777 30.4861C71.7777 30.4094 71.816 30.3711 71.816 30.2944C71.816 30.256 71.8544 30.1793 71.8544 30.141L72.6975 27.2649C72.6975 27.2266 72.7358 27.1882 72.7741 27.1882C72.8124 27.1499 72.8507 27.1499 72.8891 27.1499H73.3106L72.0077 31.2531H71.5095L70.4748 28.1086C70.4364 28.0319 70.4364 27.9935 70.3981 27.9168C70.3981 27.9552 70.3981 27.9935 70.3598 28.0319C70.3598 28.0702 70.3598 28.1086 70.3215 28.1469L69.2868 31.2914H68.7886L67.6006 27.1499Z" fill="black"/>
<path d="M75.8785 31.2531H75.3037V27.1499H75.8785V31.2531Z" fill="black"/>
<path d="M78.6381 27.1497C78.6764 27.1497 78.6764 27.188 78.7147 27.2264L81.0907 30.3325C81.0907 30.2941 81.0907 30.2175 81.0907 30.1791C81.0907 30.1408 81.0907 30.1024 81.0907 30.0257V27.1113H81.5889V31.2145H81.3207C81.2823 31.2145 81.244 31.2145 81.2057 31.1761C81.1674 31.1378 81.1291 31.1378 81.1291 31.0994L78.7531 27.9933C78.7531 28.0317 78.7531 28.07 78.7531 28.1467C78.7531 28.2234 78.7531 28.2234 78.7531 28.2617V31.2145H78.2549V27.1497H78.5615C78.5615 27.1497 78.5998 27.1497 78.6381 27.1497Z" fill="black"/>
<path d="M86.3789 27.1499V27.6101H84.3861V28.9906H85.9957V29.4124H84.3861V30.8312H86.3789V31.2914H83.8496V27.1499H86.3789Z" fill="black"/>
<path d="M92.204 27.9165V29.1436H93.392V29.5271H92.204V30.7542H91.7825V29.5271H90.6328V29.1436H91.7825V27.9165H92.204Z" fill="black"/>
<path d="M99.9448 27.8018C99.9448 27.8401 99.9065 27.8401 99.9065 27.8785C99.8682 27.8785 99.8682 27.9168 99.8299 27.9168C99.7915 27.9168 99.7532 27.9168 99.7149 27.8785C99.6766 27.8401 99.5999 27.8018 99.5616 27.7634C99.4849 27.7251 99.4083 27.6867 99.3317 27.6484C99.255 27.61 99.14 27.61 98.9868 27.61C98.8718 27.61 98.7568 27.61 98.6419 27.6484C98.5652 27.6867 98.4502 27.7251 98.4119 27.8018C98.3353 27.8785 98.297 27.9168 98.2586 27.9935C98.2203 28.0702 98.2203 28.1469 98.2203 28.2619C98.2203 28.377 98.2586 28.4537 98.297 28.5304C98.3353 28.6071 98.4119 28.6838 98.5269 28.7221C98.6035 28.7605 98.7185 28.8371 98.8335 28.8755C98.9484 28.9138 99.0634 28.9522 99.1784 28.9905C99.2933 29.0289 99.4083 29.0672 99.5233 29.1439C99.6382 29.1823 99.7532 29.259 99.8299 29.3357C99.9065 29.4124 99.9831 29.5274 100.06 29.6424C100.098 29.7575 100.136 29.9109 100.136 30.0643C100.136 30.256 100.098 30.4094 100.06 30.5628C99.9831 30.7162 99.9065 30.8695 99.7915 30.9846C99.6766 31.0996 99.5233 31.1763 99.37 31.253C99.2167 31.3297 98.9868 31.3681 98.7951 31.3681C98.5269 31.3681 98.297 31.3297 98.067 31.2147C97.8371 31.0996 97.6455 30.9846 97.4922 30.8312L97.6455 30.5628C97.6455 30.5244 97.6838 30.5244 97.6838 30.5244C97.6838 30.5244 97.7221 30.4861 97.7604 30.4861C97.7988 30.4861 97.8371 30.5244 97.9137 30.5628C97.9904 30.6011 98.0287 30.6395 98.1053 30.7162C98.182 30.7545 98.2586 30.8312 98.3736 30.8695C98.4886 30.9079 98.6035 30.9462 98.7951 30.9462C98.9101 30.9462 99.0634 30.9462 99.1401 30.9079C99.255 30.8695 99.3317 30.8312 99.4083 30.7545C99.4849 30.6778 99.5233 30.6011 99.5616 30.5244C99.5999 30.4477 99.5999 30.3327 99.5999 30.2176C99.5999 30.1026 99.5616 29.9876 99.5233 29.9109C99.485 29.8342 99.4083 29.7575 99.2933 29.7191C99.2167 29.6808 99.1017 29.6041 98.9868 29.5657C98.8718 29.5274 98.7568 29.489 98.6419 29.4507C98.5269 29.4124 98.4119 29.374 98.297 29.2973C98.182 29.2206 98.067 29.1823 97.9904 29.1056C97.9137 29.0289 97.8371 28.9138 97.7604 28.7988C97.7221 28.6838 97.6838 28.5304 97.6838 28.3386C97.6838 28.1852 97.7221 28.0702 97.7604 27.9168C97.7988 27.7634 97.9137 27.6484 97.9904 27.5717C98.1053 27.4566 98.2203 27.38 98.3736 27.3033C98.5269 27.2266 98.7185 27.2266 98.9101 27.2266C99.1401 27.2266 99.3317 27.2649 99.5233 27.3416C99.7149 27.4183 99.8682 27.5333 100.021 27.6484L99.9448 27.8018Z" fill="black"/>
<path d="M102.743 29.7192V31.2531H102.206V27.1499H103.432C103.701 27.1499 103.931 27.1882 104.122 27.2266C104.314 27.3033 104.467 27.38 104.582 27.495C104.697 27.6101 104.812 27.7251 104.85 27.8785C104.889 28.0319 104.927 28.2236 104.927 28.4154C104.927 28.6071 104.889 28.7988 104.812 28.9522C104.735 29.1056 104.659 29.259 104.505 29.374C104.39 29.4891 104.199 29.5658 104.007 29.6425C103.816 29.7192 103.586 29.7575 103.356 29.7575H102.743V29.7192ZM102.743 29.2973H103.394C103.547 29.2973 103.701 29.259 103.816 29.2206C103.931 29.1823 104.046 29.1056 104.122 29.0289C104.199 28.9522 104.275 28.8755 104.314 28.7605C104.352 28.6454 104.39 28.5304 104.39 28.4154C104.39 28.1469 104.314 27.9552 104.16 27.8018C104.007 27.6484 103.739 27.5717 103.432 27.5717H102.781V29.2973H102.743Z" fill="black"/>
<path d="M107.571 31.2531H106.996V27.1499H107.571V31.2531Z" fill="black"/>
<path d="M110.56 29.5274V31.2531H110.023V27.1499H111.173C111.441 27.1499 111.671 27.1882 111.863 27.2266C112.055 27.2649 112.208 27.3416 112.323 27.4567C112.438 27.5717 112.553 27.6868 112.591 27.8018C112.629 27.9168 112.668 28.1086 112.668 28.262C112.668 28.4154 112.629 28.5304 112.591 28.6838C112.553 28.8372 112.476 28.9139 112.399 29.0289C112.323 29.144 112.208 29.2207 112.093 29.2973C111.978 29.374 111.825 29.4124 111.671 29.4507C111.748 29.4891 111.786 29.5658 111.863 29.6425L113.051 31.2914H112.553C112.438 31.2914 112.361 31.2531 112.323 31.1764L111.25 29.7192C111.211 29.6808 111.173 29.6425 111.135 29.6041C111.096 29.5658 111.058 29.5658 110.943 29.5658H110.56V29.5274ZM110.56 29.144H111.135C111.288 29.144 111.441 29.1056 111.556 29.0673C111.671 29.0289 111.786 28.9906 111.863 28.9139C111.94 28.8372 112.016 28.7605 112.055 28.6454C112.093 28.5304 112.131 28.4537 112.131 28.3003C112.131 28.0702 112.055 27.8785 111.901 27.7635C111.748 27.6484 111.48 27.5717 111.173 27.5717H110.56V29.144Z" fill="black"/>
<path d="M115.581 31.2531H115.006V27.1499H115.581V31.2531Z" fill="black"/>
<path d="M120.754 27.1499V27.6101H119.413V31.2531H118.838V27.6101H117.497V27.1499H120.754Z" fill="black"/>
<path d="M124.74 27.8018C124.74 27.8401 124.701 27.8401 124.701 27.8785C124.663 27.8785 124.663 27.9168 124.625 27.9168C124.586 27.9168 124.548 27.9168 124.51 27.8785C124.471 27.8401 124.395 27.8018 124.357 27.7634C124.28 27.7251 124.203 27.6867 124.127 27.6484C124.05 27.61 123.935 27.61 123.782 27.61C123.667 27.61 123.552 27.61 123.437 27.6484C123.36 27.6867 123.245 27.7251 123.207 27.8018C123.13 27.8785 123.092 27.9168 123.054 27.9935C123.015 28.0702 123.015 28.1469 123.015 28.2619C123.015 28.377 123.054 28.4537 123.092 28.5304C123.13 28.6071 123.207 28.6838 123.322 28.7221C123.398 28.7605 123.513 28.8371 123.628 28.8755C123.743 28.9138 123.858 28.9522 123.973 28.9905C124.088 29.0289 124.203 29.0672 124.318 29.1439C124.433 29.1823 124.548 29.259 124.625 29.3357C124.701 29.4124 124.778 29.5274 124.855 29.6424C124.893 29.7575 124.931 29.9109 124.931 30.0643C124.931 30.256 124.893 30.4094 124.855 30.5628C124.778 30.7162 124.701 30.8695 124.586 30.9846C124.471 31.0996 124.318 31.1763 124.165 31.253C124.012 31.3297 123.782 31.3681 123.59 31.3681C123.322 31.3681 123.092 31.3297 122.862 31.2147C122.632 31.0996 122.44 30.9846 122.287 30.8312L122.44 30.5628C122.44 30.5244 122.479 30.5244 122.479 30.5244C122.479 30.5244 122.517 30.4861 122.555 30.4861C122.594 30.4861 122.632 30.5244 122.709 30.5628C122.785 30.6011 122.824 30.6395 122.9 30.7162C122.977 30.7545 123.054 30.8312 123.169 30.8695C123.283 30.9079 123.398 30.9462 123.59 30.9462C123.705 30.9462 123.858 30.9462 123.935 30.9079C124.05 30.8695 124.127 30.8312 124.203 30.7545C124.28 30.6778 124.318 30.6011 124.357 30.5244C124.395 30.4477 124.395 30.3327 124.395 30.2176C124.395 30.1026 124.357 29.9876 124.318 29.9109C124.28 29.8342 124.203 29.7575 124.088 29.7191C124.012 29.6808 123.897 29.6041 123.782 29.5657C123.667 29.5274 123.552 29.489 123.437 29.4507C123.322 29.4124 123.207 29.374 123.092 29.2973C122.977 29.2206 122.862 29.1823 122.785 29.1056C122.709 29.0289 122.632 28.9138 122.555 28.7988C122.517 28.6838 122.479 28.5304 122.479 28.3386C122.479 28.1852 122.517 28.0702 122.555 27.9168C122.594 27.7634 122.709 27.6484 122.785 27.5717C122.9 27.4566 123.015 27.38 123.169 27.3033C123.322 27.2266 123.513 27.2266 123.705 27.2266C123.935 27.2266 124.127 27.2649 124.318 27.3416C124.51 27.4183 124.663 27.5333 124.816 27.6484L124.74 27.8018Z" fill="black"/>
<path d="M119.833 3.37439C120.293 3.29769 120.792 3.221 121.29 3.18265C121.788 3.10596 122.324 3.10596 122.823 3.10596C123.512 3.10596 124.202 3.18265 124.854 3.29769C125.505 3.41273 126.118 3.64282 126.617 3.9496C127.115 4.25637 127.536 4.63985 127.843 5.17671C128.149 5.67522 128.303 6.32712 128.303 7.13241C128.303 7.47754 128.264 7.82266 128.149 8.12944C128.073 8.43622 127.919 8.743 127.766 8.97308C127.613 9.24151 127.46 9.43325 127.268 9.62498C127.076 9.81672 126.923 9.93176 126.77 10.0468C127.115 10.1235 127.498 10.2769 127.843 10.4686C128.188 10.6604 128.533 10.9288 128.839 11.2356C129.146 11.5423 129.376 11.9258 129.529 12.386C129.721 12.8461 129.797 13.3447 129.797 13.9199C129.797 14.7252 129.644 15.4538 129.337 16.0673C129.031 16.6809 128.571 17.1794 127.996 17.6012C127.421 18.023 126.731 18.3298 125.888 18.5215C125.084 18.7133 124.164 18.8283 123.129 18.8283C122.631 18.8283 122.056 18.8283 121.481 18.79C120.907 18.7516 120.332 18.7133 119.757 18.6366V3.37439H119.833ZM122.171 9.43325H124.317C124.547 9.3949 124.815 9.3182 125.007 9.20316C125.237 9.08812 125.429 8.93473 125.582 8.70465C125.735 8.51291 125.888 8.28283 125.965 8.05275C126.042 7.82266 126.118 7.55423 126.118 7.2858C126.118 6.86398 126.042 6.48051 125.85 6.21208C125.697 5.94365 125.467 5.71357 125.199 5.52183C124.93 5.36844 124.624 5.2534 124.279 5.17671C123.934 5.10001 123.627 5.06166 123.282 5.06166C123.091 5.06166 122.861 5.06166 122.669 5.10001C122.478 5.10001 122.286 5.13836 122.133 5.17671V9.43325H122.171ZM122.171 16.6425C122.401 16.6809 122.669 16.6809 122.899 16.7192C123.129 16.7192 123.359 16.7576 123.627 16.7576C124.164 16.7576 124.662 16.7192 125.122 16.6042C125.582 16.4891 126.003 16.3357 126.387 16.1057C126.731 15.8756 127.038 15.5688 127.268 15.2237C127.498 14.8786 127.613 14.4184 127.613 13.9199C127.613 13.3447 127.498 12.8845 127.268 12.501C127.038 12.1559 126.77 11.8875 126.463 11.6957C126.118 11.504 125.773 11.389 125.39 11.3123C125.007 11.2356 124.662 11.2356 124.356 11.2356H122.209V16.6425H122.171Z" fill="black"/>
<path d="M137.155 10.9672C137.155 9.8551 137.347 8.81973 137.768 7.86104C138.152 6.90236 138.726 6.02038 139.455 5.33013C140.183 4.60153 141.026 4.02632 141.984 3.64285C142.98 3.22103 144.053 3.0293 145.203 3.0293C146.353 3.0293 147.426 3.22103 148.422 3.64285C149.418 4.06467 150.262 4.63988 150.99 5.33013C151.718 6.05873 152.254 6.90236 152.676 7.86104C153.059 8.81973 153.289 9.89345 153.289 10.9672C153.289 12.0792 153.097 13.1146 152.676 14.0733C152.293 15.032 151.718 15.8756 150.99 16.6042C150.262 17.3328 149.418 17.8697 148.422 18.2915C147.426 18.7133 146.353 18.905 145.203 18.905C144.053 18.905 142.98 18.7133 141.984 18.2915C140.988 17.8697 140.144 17.2945 139.455 16.6042C138.726 15.8756 138.19 15.0703 137.768 14.0733C137.347 13.1146 137.155 12.0792 137.155 10.9672ZM139.608 10.9672C139.608 11.8492 139.761 12.6544 140.068 13.383C140.374 14.1116 140.758 14.7252 141.294 15.2237C141.792 15.7222 142.405 16.144 143.057 16.4125C143.708 16.6809 144.437 16.8343 145.203 16.8343C145.931 16.8343 146.659 16.6809 147.311 16.4125C148 16.144 148.575 15.7222 149.112 15.2237C149.61 14.7252 150.032 14.0733 150.338 13.383C150.645 12.6544 150.798 11.8492 150.798 10.9672C150.798 10.0852 150.645 9.27989 150.338 8.55129C150.032 7.8227 149.648 7.20914 149.112 6.67228C148.614 6.13542 148 5.75195 147.311 5.44517C146.621 5.13839 145.931 5.02335 145.203 5.02335C144.437 5.02335 143.747 5.17674 143.057 5.44517C142.405 5.75195 141.792 6.13542 141.294 6.67228C140.796 7.20914 140.374 7.8227 140.068 8.55129C139.761 9.27989 139.608 10.0852 139.608 10.9672Z" fill="black"/>
<path d="M180 3.29769L174.06 18.79H173.715L169.652 8.12944L165.629 18.79H165.284L159.497 3.29769H161.988L165.59 13.3063L169.576 3.10596H169.882L173.868 13.4214L177.662 3.29769H180Z" fill="black"/>
<path d="M62.427 3.29769L56.5254 18.79H56.1805L52.1183 8.12944L48.0561 18.79H47.7496L41.9629 3.29769H44.4538L48.0561 13.3063L52.0033 3.10596H52.3482L56.3338 13.4214L60.0894 3.29769H62.427Z" fill="black"/>
<path d="M72.4292 3.29785H70.1299V18.5984H72.4292V3.29785Z" fill="black"/>
<path d="M92.8935 3.29769V18.5982H90.6708V12.0025L84.0411 7.2858V18.5982H81.8184V3.221L82.1249 3.10596L90.6708 9.27986V3.29769H92.8935Z" fill="black"/>
<path d="M111.02 16.681V18.5984H102.282V3.29785H110.751V5.21521H104.582V9.01158H109.525V10.9289H104.582V16.681H111.02Z" fill="black"/>
<path d="M33.3405 15.2238C33.3405 15.2238 32.804 16.566 31.9992 17.8315C25.2928 28.0318 14.6392 28.9521 12.6848 29.0288C20.0043 26.9581 24.2581 22.8933 27.0173 18.2533C29.1251 14.687 29.9298 10.7372 30.1598 6.78746C29.3167 5.59869 28.282 4.52497 27.1323 3.60464C27.1323 3.64298 27.4389 6.78746 26.6341 10.6222C23.9515 23.1617 15.2907 27.8401 12.6465 29.0288C18.7014 24.4272 21.1923 19.0202 22.0737 13.7283C22.7252 9.62515 21.8438 4.17985 20.6175 0.383472C20.8474 0.421819 18.2798 0 18.2798 0C18.2798 0 19.6211 3.25951 20.1193 7.20927C21.6522 19.9405 14.7925 26.9964 12.6465 28.9905C16.3637 22.6249 16.4787 17.563 15.5589 12.2711C14.256 4.83175 9.84892 1.45719 9.84892 1.45719C9.84892 1.45719 4.21554 3.98811 1.68627 9.28002C-2.33758 17.6014 1.07311 27.61 9.35073 31.6364C17.6284 35.6629 27.7838 32.3267 31.731 23.967C34.0303 19.0586 33.3405 15.2238 33.3405 15.2238Z" fill="black"/>
</g>
<defs>
<clipPath id="clip0_33_338">
<rect width="180" height="33.3621" fill="white"/>
</clipPath>
</defs>
</svg>
